SplineFontDB: 3.2
FontName: Sans-Normalcy
FullName: Sans Normalcy
FamilyName: Sans Normalcy
Weight: Bold
Copyright: Copyright (c) 2022, SYwaves
UComments: "2022-2-24: Created with FontForge (http://fontforge.org)"
Version: 0.1.7
ItalicAngle: 0
UnderlinePosition: -100
UnderlineWidth: 50
Ascent: 747
Descent: 253
InvalidEm: 0
LayerCount: 2
Layer: 0 0 "Back" 1
Layer: 1 0 "Fore" 0
XUID: [1021 570 -906042433 18851]
StyleMap: 0x0000
FSType: 0
OS2Version: 0
OS2_WeightWidthSlopeOnly: 0
OS2_UseTypoMetrics: 1
CreationTime: 1645711195
ModificationTime: 1646293509
PfmFamily: 33
TTFWeight: 700
TTFWidth: 5
LineGap: 90
VLineGap: 0
OS2TypoAscent: 0
OS2TypoAOffset: 1
OS2TypoDescent: 0
OS2TypoDOffset: 1
OS2TypoLinegap: 90
OS2WinAscent: 0
OS2WinAOffset: 1
OS2WinDescent: 0
OS2WinDOffset: 1
HheadAscent: 0
HheadAOffset: 1
HheadDescent: 0
HheadDOffset: 1
OS2Vendor: 'PfEd'
MarkAttachClasses: 1
DEI: 91125
LangName: 1033
Encoding: UnicodeBmp
UnicodeInterp: none
NameList: AGL For New Fonts
DisplaySize: -48
AntiAlias: 1
FitToEm: 0
WidthSeparation: 60
WinInfo: 722 38 13
BeginPrivate: 0
EndPrivate
TeXData: 1 0 0 346030 173015 115343 456887 1048576 115343 783286 444596 497025 792723 393216 433062 380633 303038 157286 324010 404750 52429 2506097 1059062 262144
BeginChars: 65536 440

StartChar: D
Encoding: 68 68 0
Width: 541
Flags: HW
HStem: 0 129.5<219.259 322.33> 435.722 132.937<162.975 303.364>
VStem: 30.0391 132.936<0 435.722> 379.759 146.535<181.519 352.571>
LayerCount: 2
Fore
SplineSet
30.0380859375 568.658203125 m 1
 30.0380859375 568.658203125 22.07421875 569.9296875 237.651367188 568.658203125 c 0
 453.229492188 567.38671875 526.293945312 407.739257812 526.293945312 275.436523438 c 0
 526.293945312 110.149414062 439.286132812 0 279.258789062 0 c 2
 219.258789062 0 l 1
 219.258789062 129.5 l 1
 355.413085938 127.953125 379.758789062 191.302734375 379.758789062 277.66796875 c 0
 379.758789062 329.251953125 339.563476562 435.721679688 225.2734375 435.721679688 c 2
 162.974609375 435.721679688 l 1
 162.974609375 0 l 1
 30.0390625 0 l 1
 30.0380859375 568.658203125 l 1
EndSplineSet
EndChar

StartChar: p
Encoding: 112 112 1
Width: 482
Flags: HW
HStem: 0 117.5<216.27 302.591> 321.5 114.222<159.986 306.898>
VStem: 30 129.986<-185 321.5> 346.77 120.535<156.261 285.675>
LayerCount: 2
Fore
SplineSet
30 435.721679688 m 1
 238.663085938 435.721679688 l 2
 398.182617188 435.721679688 467.3046875 339.591796875 467.3046875 212.5 c 0
 467.3046875 85.408203125 367.983398438 0 248.26953125 0 c 2
 216.26953125 0 l 1
 216.26953125 117.5 l 1
 284.310546875 117.5 346.76953125 144.0234375 346.76953125 220.732421875 c 0
 346.76953125 278.6796875 313.57421875 321.5 215.284179688 321.5 c 2
 159.986328125 321.5 l 1
 159.986328125 -185 l 1
 30 -185 l 1
 30 435.721679688 l 1
EndSplineSet
EndChar

StartChar: zero
Encoding: 48 48 2
Width: 467
Flags: HW
HStem: -32.4199 128.42<208.739 346.575> 443.648 21G<332.278 355.512> 462 130.658<208.739 354.882>
VStem: 20.7559 117.158<179.633 379.486> 419.389 119.355<179.633 383.289>
LayerCount: 2
Fore
SplineSet
233.662109375 583.720703125 m 4
 298.35546875 583.720703125 344.53125 569.904296875 377.0625 546.740234375 c 5
 279.96484375 449.642578125 l 5
 268.369140625 455.666992188 253.291015625 459.265625 233.662109375 459.265625 c 4
 152.766601562 459.265625 148.986328125 398.258789062 148.986328125 357.40234375 c 6
 148.986328125 207 l 6
 148.986328125 151.966796875 170.975585938 119.653320312 233.662109375 119.505859375 c 4
 296.348632812 119.358398438 318.337890625 154.11328125 318.337890625 207 c 6
 318.337890625 357.40234375 l 6
 318.337890625 361.563476562 318.29296875 365.940429688 318.13671875 370.43359375 c 6
 429.001953125 481.298828125 l 5
 443.314453125 447.977539062 448.32421875 409.060546875 448.32421875 368.498046875 c 6
 448.32421875 183 l 6
 448.32421875 45.0224609375 359.319335938 -12.8154296875 233.662109375 -12.31640625 c 4
 108.004882812 -11.8173828125 19 46.224609375 19 183 c 6
 19 368.498046875 l 6
 19 479.772460938 58.57421875 583.720703125 233.662109375 583.720703125 c 4
EndSplineSet
EndChar

StartChar: one
Encoding: 49 49 3
Width: 281
Flags: HW
HStem: 0 21G<129.248 262.185> 548.658 20G<85.6262 262.185>
VStem: 129.248 132.937<0 435.722>
LayerCount: 2
Fore
SplineSet
129.248046875 0 m 1
 129.248046875 435.721679688 l 1
 20 435.721679688 l 1
 97.248046875 568.658203125 l 1
 262.184570312 568.658203125 l 1
 262.184570312 0 l 1
 129.248046875 0 l 1
EndSplineSet
EndChar

StartChar: two
Encoding: 50 50 4
Width: 408
Flags: HW
HStem: 0 132.936<251.994 413.228> 491.914 103.613<172.004 264.852>
VStem: 44.9422 111.43<386.183 475.471> 279.373 123.023<372.613 478.441>
LayerCount: 2
Fore
SplineSet
203.6953125 582.52734375 m 4
 317.916992188 582.52734375 387.067382812 512.8984375 387.067382812 414.986328125 c 4
 387.067382812 368.709960938 365.067382812 324.33203125 354.641601562 306.107421875 c 6
 243.78515625 132.935546875 l 5
 389.29296875 132.935546875 l 5
 389.079101562 0 l 5
 15 0 l 5
 222.166015625 320.283203125 l 6
 234.997070312 340.120117188 263.921875 377.454101562 263.921875 404.48046875 c 4
 263.921875 435.721679688 239.262695312 464.450195312 204.123046875 464.450195312 c 4
 166.66796875 464.450195312 139.467773438 443.703125 140.623046875 407.72265625 c 4
 141.68359375 374.690429688 171.014648438 357.538085938 183.08203125 349.5 c 5
 120.807617188 257 l 5
 120.807617188 257 26.6357421875 298.560546875 26.6357421875 404.72265625 c 4
 26.6357421875 511.232421875 103.426757812 582.52734375 203.6953125 582.52734375 c 4
EndSplineSet
EndChar

StartChar: three
Encoding: 51 51 5
Width: 360
Flags: HW
HStem: 0.00585938 132.937<38.9627 171.998> 247.859 91.6465<62.5877 164.672> 449.728 132.937<38.8924 175.401>
VStem: 188.087 134.955<148.556 225.499>
LayerCount: 2
Fore
SplineSet
15.5771484375 568.658203125 m 5
 336.653320312 568.658203125 l 5
 228.361328125 362.235351562 l 5
 284.986328125 339.44140625 345.998046875 272.40625 345.998046875 198.956054688 c 4
 345.998046875 46.3544921875 239.185546875 -7.8720703125 98.2802734375 -7.8720703125 c 4
 71.3701171875 -7.8720703125 27.697265625 -4.71484375 15.376953125 -0.3916015625 c 5
 15.376953125 51.568359375 15.5908203125 132.543945312 15.5908203125 132.543945312 c 5
 26.845703125 129.737304688 61.1982421875 125.541015625 90.43359375 125.541015625 c 4
 161.004882812 125.541015625 194.501953125 161.393554688 194.501953125 212.340820312 c 4
 194.501953125 270.049804688 145.651367188 308.317382812 68.3154296875 311.817382812 c 5
 142.811523438 435.72265625 l 5
 15.3603515625 435.72265625 l 5
 15.5771484375 568.658203125 l 5
EndSplineSet
EndChar

StartChar: four
Encoding: 52 52 6
Width: 487
Flags: HW
HStem: 0 21G<275.309 402.669> 141.277 132.973<170.489 274.425 402.669 467.362> 548.879 20G<273.674 402.669>
VStem: 19.9867 125.006<301.59 568.658> 274.425 128.244<0 141.277 274.25 568.658>
LayerCount: 2
Fore
SplineSet
19.583984375 568.87890625 m 5
 146.630859375 568.658203125 l 5
 146.630859375 390.75 l 6
 146.630859375 300.005859375 169.950195312 278.25 262.25 278.25 c 6
 274.0625 278.25 l 5
 273.2578125 568.87890625 l 5
 402.306640625 568.658203125 l 5
 402.306640625 278.25 l 5
 467 278.25 l 5
 467 141.27734375 l 5
 402.306640625 141.27734375 l 5
 402.306640625 0 l 5
 275.02734375 0 l 5
 274.462890625 141.27734375 l 5
 219.25 141.27734375 l 6
 77.7080078125 141.27734375 19.625 240.702148438 19.625 344.7109375 c 4
 19.625 410.096679688 19.583984375 568.87890625 19.583984375 568.87890625 c 5
EndSplineSet
EndChar

StartChar: five
Encoding: 53 53 7
Width: 408
Flags: HW
LayerCount: 2
Fore
SplineSet
371.509765625 435.721679688 m 1
 299.280273438 435.721679688 227.05078125 435.721679688 154.8203125 435.721679688 c 1
 154.8203125 362.137695312 l 1
 201.059570312 362.137695312 240.130859375 359.947265625 276.249023438 347.294921875 c 0
 346.465820312 322.697265625 392.592773438 267.442382812 392.592773438 179.220703125 c 0
 392.592773438 76.0166015625 324.010742188 0 198.642578125 0 c 2
 17 0 l 1
 17 132.094726562 l 1
 158.036132812 132.592773438 l 2
 195.696289062 132.592773438 249.713867188 142.141601562 249.713867188 184.943359375 c 0
 249.713867188 225.4921875 211.993164062 239.897460938 152.81640625 239.897460938 c 0
 129.633789062 239.897460938 17.029296875 240.033203125 17.029296875 240.033203125 c 1
 17.029296875 568.658203125 l 1
 371.509765625 568.658203125 l 1
 371.509765625 435.721679688 l 1
EndSplineSet
EndChar

StartChar: six
Encoding: 54 54 8
Width: 473
Flags: HW
HStem: -22.0625 124.221<178.458 299.216> 260.158 117.5<205.965 296.776> 436.246 21G<379.869 379.869> 446.377 132.895<184.625 379.835>
VStem: 19.6953 129.986<128.827 412.358> 324.465 128.535<126.5 235.025>
LayerCount: 2
Fore
SplineSet
234.357421875 -22.0625 m 0xdc
 79.1689453125 -22.0625 19.6953125 73.3994140625 19.6953125 193.16015625 c 2
 19.6953125 383.658203125 l 2
 19.6953125 445.8359375 50.640625 502.87109375 95.880859375 536.62890625 c 0
 159.680664062 584.236328125 243.021484375 579.271484375 281.58203125 579.271484375 c 0xdc
 326.725585938 579.271484375 379.869140625 568.658203125 379.869140625 568.658203125 c 1
 379.869140625 436.24609375 l 1xec
 379.869140625 436.24609375 340.517578125 446.376953125 285.1171875 446.376953125 c 0
 229.716796875 446.376953125 205.952148438 438.762695312 182.70703125 423.75 c 0
 167.141601562 413.697265625 149.681640625 393.749023438 149.681640625 359.658203125 c 2
 149.681640625 204.255859375 l 2
 149.681640625 161.8828125 158.413085938 102.158203125 243.154296875 102.158203125 c 0
 292.331054688 102.158203125 324.46484375 135.575195312 324.46484375 182.92578125 c 0
 324.46484375 228.786132812 293.3203125 263.107421875 205.96484375 260.158203125 c 1
 205.96484375 377.658203125 l 1
 249.96484375 377.658203125 l 2
 350.321289062 377.658203125 453 321.8359375 453 179.158203125 c 0
 453 62.0009765625 399.383789062 -22.0625 234.357421875 -22.0625 c 0xdc
EndSplineSet
EndChar

StartChar: seven
Encoding: 55 55 9
Width: 445
Flags: HW
HStem: 0 21G<55.9823 214.271> 435.723 132.936<10.2167 231.451>
LayerCount: 2
Fore
SplineSet
10.216796875 568.658203125 m 1
 431.29296875 568.658203125 l 1
 206.360351562 0 l 1
 55.982421875 0 l 1
 231.451171875 435.72265625 l 1
 10 435.72265625 l 1
 10.216796875 568.658203125 l 1
EndSplineSet
EndChar

StartChar: eight
Encoding: 56 56 10
Width: 438
Flags: HW
HStem: -33.5137 117.613<-89.8144 13.5666> 477.914 117.613<-95.4954 3.18356>
VStem: 19.4906 119.023<362.627 461.428>
LayerCount: 2
Fore
SplineSet
221.411132812 584.658203125 m 0
 345.763671875 584.658203125 415.473632812 525.9140625 415.473632812 429.640625 c 0
 415.473632812 396.555664062 406.088867188 356.48046875 368.430664062 326.172851562 c 0
 326.200195312 292.185546875 273.810546875 262.271484375 223.204101562 230.341796875 c 0
 184.951171875 206.206054688 158.701171875 182.963867188 158.701171875 156.1640625 c 0
 158.701171875 121.846679688 190.66796875 113.076171875 222.974609375 113.076171875 c 0
 257.776367188 113.076171875 286.216796875 130.19921875 286.216796875 160.147460938 c 0
 286.216796875 174.709960938 277.61328125 192.640625 259.34765625 204.091796875 c 1
 361.26171875 268.596679688 l 1
 396.092773438 241.943359375 423.4921875 205.206054688 422.08203125 141.46484375 c 0
 419.91796875 43.5927734375 334.430664062 -17.513671875 218.865234375 -17.513671875 c 0
 94.5126953125 -17.513671875 16 47.1455078125 16 143.41796875 c 0
 16 190.03125 39.60546875 226.81640625 67.9541015625 247.926757812 c 0
 105.192382812 275.65625 154.15234375 299.491210938 221.649414062 340.274414062 c 0
 248.293945312 356.373046875 284.583984375 383.575195312 284.583984375 411.258789062 c 0
 284.583984375 443.668945312 260.294921875 460.068359375 219.141601562 460.068359375 c 0
 179.787109375 460.068359375 151.983398438 444.819335938 151.983398438 414.081054688 c 0
 151.983398438 393.522460938 171.950195312 373.9375 189.806640625 362.96484375 c 1
 88.3173828125 304.135742188 l 1
 63.2822265625 320.184570312 24.5107421875 358.370117188 24.5107421875 419.6796875 c 0
 24.5107421875 532.1796875 101.56640625 584.658203125 221.411132812 584.658203125 c 0
EndSplineSet
EndChar

StartChar: nine
Encoding: 57 57 11
Width: 468
Flags: HW
HStem: -10.6133 132.895<88.1648 283.374> 191 117.5<171.223 262.034> 466.5 124.221<168.783 289.541>
VStem: 14.9998 128.535<333.633 442.158> 318.317 129.986<156.3 439.831>
LayerCount: 2
Fore
SplineSet
233.642578125 590.720703125 m 0
 388.831054688 590.720703125 448.3046875 495.2578125 448.3046875 375.498046875 c 2
 448.3046875 185 l 2
 448.3046875 122.822265625 417.359375 65.787109375 372.119140625 32.029296875 c 0
 308.319335938 -15.578125 224.978515625 -10.61328125 186.41796875 -10.61328125 c 0
 141.274414062 -10.61328125 88.130859375 0 88.130859375 0 c 1
 88.130859375 132.412109375 l 1
 88.130859375 132.412109375 127.482421875 122.28125 182.8828125 122.28125 c 0
 238.283203125 122.28125 262.047851562 129.895507812 285.29296875 144.908203125 c 0
 300.858398438 154.9609375 318.318359375 174.909179688 318.318359375 209 c 2
 318.318359375 364.40234375 l 2
 318.318359375 406.775390625 309.586914062 466.5 224.845703125 466.5 c 0
 175.668945312 466.5 143.53515625 433.083007812 143.53515625 385.732421875 c 0
 143.53515625 339.872070312 174.6796875 305.549804688 262.03515625 308.5 c 1
 262.03515625 191 l 1
 218.03515625 191 l 2
 117.678710938 191 15 246.822265625 15 389.5 c 0
 15 506.657226562 68.6162109375 590.720703125 233.642578125 590.720703125 c 0
EndSplineSet
EndChar

StartChar: A
Encoding: 65 65 12
Width: 563
Flags: HW
HStem: -0.349609 21G<26.0986 156.625 415.252 545.701> 131.406 96.4531<269.266 347.653> 573.084 20G<245.165 324.71>
LayerCount: 2
Fore
SplineSet
280.6171875 579.083984375 m 6
 360.162109375 579.083984375 384.296875 498.544921875 384.296875 498.544921875 c 5
 543.181640625 0 l 5
 406.77734375 0 l 5
 371.947265625 117.40625 l 5
 243.767578125 117.40625 l 5
 270.9453125 213.859375 l 5
 343.33203125 213.859375 l 5
 280.6171875 425.259765625 l 5
 156.39453125 0 l 5
 20 0 l 5
 176.939453125 498.544921875 l 5
 176.939453125 498.544921875 201.072265625 579.083984375 280.6171875 579.083984375 c 6
EndSplineSet
EndChar

StartChar: B
Encoding: 66 66 13
Width: 482
Flags: HW
HStem: 0 100.553<26.3968 125.822> 239.854 87.6465<26.3968 104.476> 435.716 132.942<-29.8642 103.314>
VStem: -162.824 132.936<0 435.645> 121.897 141.531<346.784 463.569> 147.897 122.955<123.505 217.543>
LayerCount: 2
Fore
SplineSet
30 568.658203125 m 1
 219.61328125 568.658203125 l 2
 390.202148438 568.658203125 451.251953125 494.653320312 451.251953125 418.099609375 c 0
 451.251953125 378.953125 442.975585938 321.551757812 386.5390625 289.537109375 c 1
 437.869140625 265.7890625 467.67578125 224.268554688 467.67578125 158 c 0
 467.67578125 39.9970703125 357.916015625 0 298.67578125 0 c 2
 219.220703125 0 l 1
 219.220703125 100.552734375 l 1
 239.220703125 100.552734375 l 2
 299.842773438 100.552734375 343.163085938 119.947265625 343.163085938 165 c 0
 343.163085938 223.904296875 273.864257812 235.853515625 219.220703125 235.853515625 c 1
 219.220703125 331.5 l 1
 273.853515625 331.5 314.720703125 346.10546875 314.720703125 386.779296875 c 0
 314.720703125 435.721679688 248.926757812 435.715820312 205.419921875 435.715820312 c 0
 196.448242188 435.715820312 162.935546875 435.64453125 162.935546875 435.64453125 c 1
 162.935546875 0 l 1
 30 0 l 1
 30 568.658203125 l 1
EndSplineSet
EndChar

StartChar: C
Encoding: 67 67 14
Width: 418
Flags: HW
HStem: 0 129.473<226.279 389.209> 435.722 132.937<232.216 389.238>
VStem: 14.9991 146.535<187.411 364.081>
LayerCount: 2
Fore
SplineSet
389.254882812 568.658203125 m 1
 389.23828125 435.721679688 l 1
 316.020507812 435.721679688 l 2
 195.73046875 435.721679688 161.53515625 346.251953125 161.53515625 275.66796875 c 0
 161.53515625 210.255859375 179.34375 129.340820312 325.569335938 129.47265625 c 0
 327.043945312 129.473632812 389.25390625 129.5 389.25390625 129.5 c 1
 389.26171875 0 l 1
 262.44921875 0 l 2
 102.421875 0 15 110.149414062 15 275.436523438 c 0
 15 407.739257812 66.11328125 568.658203125 303.641601562 568.658203125 c 2
 389.254882812 568.658203125 l 1
EndSplineSet
EndChar

StartChar: E
Encoding: 69 69 15
Width: 391
Flags: W
HStem: 0.222656 132.936<162.936 361.125> 214.531 132.938<162.936 316.568> 435.723 132.936<162.936 361.125>
VStem: 30 331.127<0.222656 133.158 435.723 568.658> 30 132.936<133.158 214.531 347.469 435.723>
LayerCount: 2
Fore
SplineSet
30 568.658203125 m 1xf0
 361.126953125 568.658203125 l 1xf0
 361.125 435.72265625 l 1
 162.935546875 435.72265625 l 1
 162.935546875 347.46875 l 1
 316.568359375 347.46875 l 1
 316.568359375 214.53125 l 1
 162.935546875 214.53125 l 1
 162.935546875 133.158203125 l 1xe8
 361.125 133.158203125 l 1
 361.126953125 0.22265625 l 1
 30 0.22265625 l 1
 30 568.658203125 l 1xf0
EndSplineSet
EndChar

StartChar: F
Encoding: 70 70 16
Width: 381
Flags: HW
HStem: 0.222656 21G<29.873 162.809> 214.531 132.938<162.809 316.441> 435.723 132.936<162.809 360.998>
VStem: 29.873 132.936<0.222656 214.531 347.469 435.723>
LayerCount: 2
Fore
SplineSet
29.873046875 568.658203125 m 1
 361 568.658203125 l 1
 360.998046875 435.72265625 l 1
 162.80859375 435.72265625 l 1
 162.80859375 347.46875 l 1
 316.44140625 347.46875 l 1
 316.44140625 214.53125 l 1
 162.80859375 214.53125 l 1
 162.80859375 0.22265625 l 1
 29.873046875 0.22265625 l 1
 29.873046875 568.658203125 l 1
EndSplineSet
EndChar

StartChar: G
Encoding: 71 71 17
Width: 569
Flags: HW
HStem: -30.6719 117.672<233.7 390.095> 215 119<277.236 391.236> 435.722 21G<464.736 464.736> 448.5 136<258.706 464.706>
VStem: 14.5645 140.453<167.223 348.331> 391.236 132.75<101 215>
LayerCount: 2
Fore
SplineSet
465.171875 568.658203125 m 5
 465.171875 435.721679688 l 5
 465.171875 435.721679688 436.431640625 444.5 359.171875 444.5 c 4
 267.985351562 444.5 153.453125 400.614257812 153.453125 263.53125 c 4
 153.453125 171.663085938 217.01953125 99 324.671875 99 c 4
 365.940429688 99 391.671875 103 391.671875 103 c 5
 391.671875 215 l 5
 277.671875 215 l 5
 277.671875 334 l 5
 524.171875 334 l 5
 524.421875 0 l 5
 524.421875 0 456.431640625 -20.671875 333.657226562 -20.671875 c 4
 107.349609375 -20.671875 15 97.5595703125 15 267.029296875 c 4
 15 474.846679688 149.342773438 580.5 351.171875 580.5 c 4
 413.370117188 580.5 465.171875 568.658203125 465.171875 568.658203125 c 5
 465.171875 568.658203125 l 5
EndSplineSet
EndChar

StartChar: H
Encoding: 72 72 18
Width: 479
Flags: W
HStem: 0.222656 21.2891G<30 162.936 315.645 448.58> 212.785 132.938<162.936 315.645> 548.947 19.7109G<30 162.936 315.645 448.58>
VStem: 30 132.936<0.222656 212.785 345.723 568.369> 315.645 132.936<0.511719 212.785 345.723 568.658>
LayerCount: 2
Fore
SplineSet
315.64453125 568.947265625 m 1
 448.580078125 568.658203125 l 1
 448.580078125 0.51171875 l 1
 315.64453125 0.51171875 l 1
 315.64453125 212.78515625 l 1
 162.935546875 212.78515625 l 1
 162.935546875 0.22265625 l 1
 30 0.22265625 l 1
 30 568.658203125 l 1
 162.935546875 568.369140625 l 1
 162.935546875 345.72265625 l 1
 315.64453125 345.72265625 l 1
 315.64453125 568.947265625 l 1
EndSplineSet
EndChar

StartChar: I
Encoding: 73 73 19
Width: 193
Flags: W
HStem: 0 21G<30 162.937> 548.658 20G<30 162.937>
VStem: 30 132.937<0 568.658>
LayerCount: 2
Fore
SplineSet
30 0 m 1
 30 568.658203125 l 1
 162.936523438 568.658203125 l 1
 162.936523438 0 l 1
 30 0 l 1
EndSplineSet
EndChar

StartChar: J
Encoding: 74 74 20
Width: 331
Flags: W
HStem: 0 122.129<30 120.21> 435.723 132.936<35.0781 168.246>
VStem: 168.232 132.719<165.58 435.723>
LayerCount: 2
Fore
SplineSet
35.078125 568.658203125 m 1
 123.775390625 568.612304688 212.25390625 568.640625 300.951171875 568.58984375 c 1
 300.951171875 243.72265625 l 2
 300.951171875 109.186523438 247.052734375 0 30 0 c 1
 30 122.12890625 l 1
 106.713867188 122.12890625 169.014648438 145.98046875 168.232421875 239.828125 c 2
 168.24609375 435.72265625 l 1
 35.078125 435.72265625 l 1
 35.078125 568.658203125 l 1
EndSplineSet
EndChar

StartChar: K
Encoding: 75 75 21
Width: 445
Flags: W
HStem: 0.222656 21G<30 162.936> 215.77 137.072<162.936 243.303> 548.658 20G<30 162.936>
VStem: 30 132.936<0.222656 215.77 352.842 568.369> 278.615 129.006<387.031 568.658> 285.717 129.006<0 181.391>
LayerCount: 2
Fore
SplineSet
407.662109375 568.833984375 m 1xf8
 407.662109375 568.833984375 407.62109375 473.38671875 407.62109375 421.5 c 0xf8
 407.62109375 371.9609375 378.072265625 318.485351562 324.529296875 286.353515625 c 1
 382.551757812 254.809570312 414.72265625 198.84375 414.72265625 147.158203125 c 0
 414.72265625 95.271484375 414.763671875 -0.17578125 414.763671875 -0.17578125 c 1
 285.716796875 0 l 1
 285.716796875 115.38671875 l 2xf4
 285.716796875 180.149414062 244.7109375 218.2109375 168.099609375 215.76953125 c 2
 162.935546875 215.76953125 l 1
 162.935546875 0.22265625 l 1
 30 0.22265625 l 1
 30 568.658203125 l 1
 162.935546875 568.369140625 l 1
 162.935546875 352.841796875 l 1
 238.294921875 351.102539062 278.615234375 389.05859375 278.615234375 453.271484375 c 2
 278.615234375 568.658203125 l 1
 407.662109375 568.833984375 l 1xf8
EndSplineSet
EndChar

StartChar: L
Encoding: 76 76 22
Width: 391
Flags: W
HStem: 0 132.936<162.938 361.006> 548.436 20G<30 162.938>
VStem: 30 132.938<132.936 568.146>
LayerCount: 2
Fore
SplineSet
30 568.435546875 m 1
 162.9375 568.146484375 l 1
 162.9375 132.935546875 l 1
 361.173828125 132.935546875 l 1
 361.005859375 0 l 1
 30 0 l 1
 30 568.435546875 l 1
EndSplineSet
EndChar

StartChar: M
Encoding: 77 77 23
Width: 751
Flags: HW
LayerCount: 2
Fore
SplineSet
230.185546875 568.669921875 m 0
 288.426757812 568.669921875 342.509765625 559.7578125 377.19921875 499.673828125 c 1
 411.888671875 556.221679688 463.475585938 572.31640625 528.787109375 572.31640625 c 0
 667.5546875 572.31640625 721.3984375 490.591796875 721.3984375 376.53515625 c 2
 721.3984375 0.22265625 l 1
 588.3515625 0 l 1
 587.9765625 350.26953125 l 2
 587.9765625 406.901367188 560.46484375 438.134765625 516.379882812 438.134765625 c 0
 470.745117188 438.134765625 441.72265625 407.532226562 441.72265625 349.298828125 c 2
 441.72265625 0 l 1
 308.67578125 0 l 1
 308.67578125 347.298828125 l 2
 308.67578125 418.997070312 260.087890625 435.721679688 205.134765625 435.721679688 c 2
 162.046875 435.721679688 l 1
 162.046875 0 l 1
 29 0.22265625 l 1
 29 568.658203125 l 1
 29 568.658203125 142.977539062 568.669921875 230.185546875 568.669921875 c 0
EndSplineSet
EndChar

StartChar: W
Encoding: 87 87 24
Width: 853
Flags: HW
HStem: 434.146 20G<416.837 438.711> 549.008 20G<12.1357 142.662 710.25 840.7>
LayerCount: 2
Fore
SplineSet
9 568.658203125 m 1
 145.486328125 568.658203125 l 1
 270.876953125 139.3984375 l 1
 359.26171875 400.619140625 l 2
 369.361328125 436.45703125 405.801757812 446.146484375 427.67578125 446.146484375 c 0
 449.548828125 446.146484375 483.88671875 438.100585938 494.896484375 400.578125 c 2
 579.83984375 139.3984375 l 1
 707.185546875 568.658203125 l 1
 843.677734375 568.658203125 l 1
 683.51953125 66.11328125 l 1
 683.51953125 66.11328125 659.384765625 -14.42578125 579.83984375 -14.42578125 c 0
 500.294921875 -14.42578125 476.16015625 66.11328125 476.16015625 66.11328125 c 1
 425.671875 226.5 l 1
 374.556640625 66.11328125 l 1
 374.556640625 66.11328125 350.421875 -14.42578125 270.876953125 -14.42578125 c 0
 191.33203125 -14.42578125 167.19921875 66.11328125 167.19921875 66.11328125 c 1
 9 568.658203125 l 1
EndSplineSet
EndChar

StartChar: X
Encoding: 88 88 25
Width: 524
Flags: HW
HStem: 0.511719 21G<9 166.629 357.035 514.664> 548.947 20G<9 166.624 357.04 514.664>
LayerCount: 2
Fore
SplineSet
154.6640625 568.947265625 m 1
 261.83203125 389.73046875 l 1
 369 568.947265625 l 1
 514.6640625 568.658203125 l 1
 334.708984375 284.65625 l 1
 514.6640625 0.51171875 l 1
 369 0.51171875 l 1
 261.83203125 179.642578125 l 1
 154.6640625 0.51171875 l 1
 9 0.51171875 l 1
 188.955078125 284.65625 l 1
 9 568.658203125 l 1
 154.6640625 568.947265625 l 1
EndSplineSet
EndChar

StartChar: Y
Encoding: 89 89 26
Width: 524
Flags: HW
HStem: 0 21G<194.955 328.709> 548.947 20G<9 166.624 357.04 514.664>
VStem: 194.955 133.754<0 276.656>
LayerCount: 2
Fore
SplineSet
154.6640625 568.947265625 m 1
 261.83203125 389.73046875 l 1
 369 568.947265625 l 1
 514.6640625 568.658203125 l 1
 328.708984375 276.65625 l 1
 328.708984375 0 l 1
 194.955078125 0 l 1
 194.955078125 276.65625 l 1
 9 568.658203125 l 1
 154.6640625 568.947265625 l 1
EndSplineSet
EndChar

StartChar: Z
Encoding: 90 90 27
Width: 548
Flags: HW
HStem: 0 132.936<248.816 529.498> 435.723 132.936<17.2344 298.469>
LayerCount: 2
Fore
SplineSet
17.234375 568.658203125 m 1
 530.310546875 568.658203125 l 1
 248.81640625 132.935546875 l 1
 529.498046875 132.935546875 l 1
 529.498046875 0 l 1
 17 0 l 1
 298.46875 435.72265625 l 1
 17.017578125 435.72265625 l 1
 17.234375 568.658203125 l 1
EndSplineSet
EndChar

StartChar: V
Encoding: 86 86 28
Width: 541
Flags: HW
HStem: 549.008 20G<11.0986 141.626 400.252 530.702>
LayerCount: 2
Fore
SplineSet
269.6171875 -10.42578125 m 5
 190.072265625 -10.42578125 165.939453125 70.11328125 165.939453125 70.11328125 c 5
 9 568.658203125 l 5
 145.39453125 568.658203125 l 5
 269.6171875 143.3984375 l 5
 395.77734375 568.658203125 l 5
 532.181640625 568.658203125 l 5
 373.296875 70.11328125 l 5
 373.296875 70.11328125 349.162109375 -10.42578125 269.6171875 -10.42578125 c 5
EndSplineSet
EndChar

StartChar: U
Encoding: 85 85 29
Width: 507
Flags: HW
HStem: -21.9766 138.56<198.719 310.594> 548.658 20G<30 167.004 339.605 476.586>
VStem: 30 137.376<149.857 568.423> 339.605 136.98<148.291 568.658>
LayerCount: 2
Fore
SplineSet
476.5859375 568.658203125 m 1
 476.5859375 227.720703125 l 6
 476.5859375 58.39453125 382.3046875 -14.9765625 252.043945312 -14.9765625 c 4
 121.783203125 -14.9765625 30 81.443359375 30 217.5234375 c 6
 30 568.422851562 l 1
 166.979492188 568.658203125 l 1
 167.375976562 256.018554688 l 6
 167.375976562 164.157226562 196.720703125 123.583007812 253.05078125 123.583007812 c 4
 311.381835938 123.583007812 339.60546875 160.676757812 339.60546875 257.048828125 c 6
 339.60546875 568.658203125 l 1
 476.5859375 568.658203125 l 1
EndSplineSet
EndChar

StartChar: T
Encoding: 84 84 30
Width: 451
Flags: HW
HStem: 0.222656 21G<157.57 290.506> 435.723 132.936<13.2168 157.57 290.506 438.115>
VStem: 157.57 132.936<0.222656 435.723>
LayerCount: 2
Fore
SplineSet
13.216796875 568.658203125 m 1
 438.115234375 568.658203125 l 1
 438.115234375 435.72265625 l 1
 290.505859375 435.72265625 l 1
 290.505859375 0.22265625 l 1
 157.5703125 0.22265625 l 1
 157.5703125 435.72265625 l 1
 13 435.72265625 l 1
 13.216796875 568.658203125 l 1
EndSplineSet
EndChar

StartChar: S
Encoding: 83 83 31
Width: 420
Flags: HW
HStem: 0 132.095<29.4114 228.309> 435.722 132.937<181.694 383.922>
VStem: 14.6427 152.589<348.418 417.809> 238.126 166.878<144.83 209.018>
LayerCount: 2
Fore
SplineSet
383.91796875 435.721679688 m 1
 252.880859375 435.721679688 l 2
 212.5546875 435.721679688 167.227539062 421.393554688 167.227539062 380.887695312 c 0
 167.227539062 336.998046875 221.310546875 339.108398438 278.65625 331.294921875 c 0
 360.080078125 320.200195312 405 253.442382812 405 165.220703125 c 0
 405 62.0166015625 336.41796875 0 211.05078125 0 c 2
 29.4072265625 0 l 1
 29.4072265625 132.094726562 l 1
 160.444335938 132.592773438 l 2
 177.854492188 132.592773438 238.122070312 134.141601562 238.122070312 176.943359375 c 0
 238.122070312 218.95703125 178.666015625 219.787109375 133.223632812 228.129882812 c 0
 83.2744140625 237.30078125 14.638671875 275.600585938 14.638671875 376.3828125 c 0
 14.638671875 484.223632812 49.3466796875 568.658203125 249.123046875 568.658203125 c 2
 383.91796875 568.658203125 l 1
 383.91796875 435.721679688 l 1
EndSplineSet
EndChar

StartChar: R
Encoding: 82 82 32
Width: 503
Flags: HW
HStem: -0.0117188 21G<30 162.936 297.554 456.848> 435.723 132.936<162.936 319.03>
VStem: 30 132.936<0 435.723> 349.719 138.535<292.179 407.576>
LayerCount: 2
Fore
SplineSet
30 568.658203125 m 1
 239.611328125 568.658203125 l 2
 409.030273438 568.658203125 488.25390625 489.962890625 488.25390625 349.435546875 c 0
 488.25390625 249.354492188 432.685546875 183.044921875 354.650390625 153.15625 c 1
 456.84765625 0 l 1
 311.18359375 -0.01171875 l 1
 219.21875 134.935546875 l 1
 219.21875 256.435546875 l 1
 287.259765625 256.435546875 349.71875 278.374023438 349.71875 353.66796875 c 0
 349.71875 419.615234375 299.024414062 435.72265625 218.234375 435.72265625 c 2
 162.935546875 435.72265625 l 1
 162.935546875 0 l 1
 30 -0.01171875 l 1
 30 568.658203125 l 1
EndSplineSet
EndChar

StartChar: Q
Encoding: 81 81 33
Width: 612
Flags: HW
HStem: 466 126.658<48.8279 209.012>
VStem: -174.08 124.445<192.282 366.908> 311.863 127.045<193.054 366.908>
LayerCount: 2
Fore
SplineSet
306.107421875 581.158203125 m 0
 466.8828125 581.158203125 597.21484375 448.25390625 597.21484375 284.30859375 c 0
 597.21484375 197.21484375 560.43359375 118.879882812 501.845703125 64.578125 c 1
 592.951171875 -75.220703125 l 1
 460.90234375 -75.220703125 l 1
 337.841796875 130.33984375 l 1
 410.465820312 145.75 462.405273438 209.513671875 462.49609375 283.37109375 c 0
 462.49609375 369.8984375 391.971679688 440.04296875 304.974609375 440.04296875 c 0
 217.977539062 440.04296875 147.453125 369.8984375 147.453125 283.37109375 c 0
 147.536132812 216.963867188 189.704101562 157.823242188 252.685546875 135.779296875 c 1
 340.265625 -10.513671875 l 1
 329.061523438 -11.8515625 317.6640625 -12.541015625 306.107421875 -12.541015625 c 0
 145.33203125 -12.541015625 15 120.36328125 15 284.30859375 c 0
 15 448.25390625 145.33203125 581.158203125 306.107421875 581.158203125 c 0
EndSplineSet
EndChar

StartChar: P
Encoding: 80 80 34
Width: 503
Flags: HW
HStem: -0.0107422 21G<30 162.937> 134.937 121.5<219.22 309.318> 435.722 132.937<162.937 319.032>
VStem: 30 132.937<0 435.722> 349.72 138.535<292.914 407.576>
LayerCount: 2
Fore
SplineSet
30 568.658203125 m 1
 239.61328125 568.658203125 l 2
 409.032226562 568.658203125 488.254882812 489.962890625 488.254882812 349.436523438 c 0
 488.254882812 208.909179688 378.711914062 134.936523438 251.219726562 134.936523438 c 2
 219.219726562 134.936523438 l 1
 219.219726562 256.436523438 l 1
 287.260742188 256.436523438 349.719726562 278.374023438 349.719726562 353.66796875 c 0
 349.719726562 419.616210938 299.024414062 435.721679688 218.234375 435.721679688 c 2
 162.936523438 435.721679688 l 1
 162.936523438 0 l 1
 30 -0.0107421875 l 1
 30 568.658203125 l 1
EndSplineSet
EndChar

StartChar: O
Encoding: 79 79 35
Width: 612
Flags: HW
HStem: -32.4199 124.42<220.604 383.113> 466 126.658<220.604 383.113>
VStem: -2.15918 124.445<192.227 366.893> 483.784 127.045<192.227 366.893>
LayerCount: 2
Fore
SplineSet
306.107421875 581.158203125 m 4
 466.8828125 581.158203125 597.21484375 448.25390625 597.21484375 284.30859375 c 4
 597.21484375 120.36328125 466.8828125 -12.541015625 306.107421875 -12.541015625 c 4
 145.33203125 -12.541015625 15 120.36328125 15 284.30859375 c 4
 15 448.25390625 145.33203125 581.158203125 306.107421875 581.158203125 c 4
304.974609375 440.04296875 m 4
 218.036132812 440.04296875 147.453125 369.83984375 147.453125 283.37109375 c 4
 147.453125 196.90234375 218.036132812 126.69921875 304.974609375 126.69921875 c 4
 391.913085938 126.69921875 462.49609375 196.90234375 462.49609375 283.37109375 c 4
 462.49609375 369.83984375 391.913085938 440.04296875 304.974609375 440.04296875 c 4
EndSplineSet
EndChar

StartChar: N
Encoding: 78 78 36
Width: 491
Flags: HW
LayerCount: 2
Fore
SplineSet
248.04296875 568.669921875 m 0
 408.291015625 568.669921875 461.72265625 467.248046875 461.72265625 357.653320312 c 2
 461.72265625 0 l 1
 328.67578125 0 l 1
 328.67578125 334.3984375 l 2
 328.67578125 413.188476562 284.01953125 435.721679688 219.384765625 435.721679688 c 2
 164.296875 435.721679688 l 1
 162.046875 0 l 1
 29 0.22265625 l 1
 29 568.658203125 l 1
 29 568.658203125 160.8359375 568.669921875 248.04296875 568.669921875 c 0
EndSplineSet
EndChar

StartChar: a
Encoding: 97 97 37
Width: 476
Flags: HW
HStem: 0 117.5<179.714 266.035> 321.5 114.222<175.407 322.318>
VStem: 14.9998 120.535<156.261 285.675> 322.318 129.986<0 321.5>
LayerCount: 2
Fore
SplineSet
452.3046875 435.721679688 m 1
 452.3046875 0 l 1
 322.318359375 0 l 1
 322.318359375 321.5 l 1
 267.020507812 321.5 l 2
 168.73046875 321.5 135.53515625 278.6796875 135.53515625 220.732421875 c 0
 135.53515625 144.0234375 197.994140625 117.5 266.03515625 117.5 c 1
 266.03515625 0 l 1
 234.03515625 0 l 2
 114.321289062 0 15 85.408203125 15 212.5 c 0
 15 339.591796875 84.1220703125 435.721679688 243.641601562 435.721679688 c 2
 452.3046875 435.721679688 l 1
EndSplineSet
EndChar

StartChar: b
Encoding: 98 98 38
Width: 482
Flags: HW
HStem: 0 114.222<159.986 306.898> 318.222 117.5<216.27 302.591> 607 20G<30 159.986>
VStem: 30 129.986<114.222 627> 346.77 120.535<150.046 279.461>
LayerCount: 2
Fore
SplineSet
30 0 m 1
 30 627 l 1
 159.986328125 627 l 1
 159.986328125 114.221679688 l 1
 215.284179688 114.221679688 l 2
 313.57421875 114.221679688 346.76953125 157.041992188 346.76953125 214.990234375 c 0
 346.76953125 291.698242188 284.310546875 318.221679688 216.26953125 318.221679688 c 1
 216.26953125 435.721679688 l 1
 248.26953125 435.721679688 l 2
 367.983398438 435.721679688 467.3046875 350.314453125 467.3046875 223.221679688 c 0
 467.3046875 96.1298828125 398.182617188 0 238.663085938 0 c 2
 30 0 l 1
EndSplineSet
EndChar

StartChar: c
Encoding: 99 99 39
Width: 366
Flags: HW
HStem: 0 117.5<179.714 322.305> 321.5 114.222<181.648 322.305>
VStem: 15 120.535<159.967 282.105>
LayerCount: 2
Fore
SplineSet
322.3046875 435.721679688 m 1
 322.318359375 321.5 l 1
 271.020507812 321.5 l 2
 172.73046875 321.5 135.53515625 278.6796875 135.53515625 220.732421875 c 0
 135.53515625 144.0234375 201.994140625 117.5 270.03515625 117.5 c 2
 322.3046875 117.11328125 l 1
 322.34765625 0 l 1
 234.03515625 0 l 2
 114.321289062 0 15 85.408203125 15 212.5 c 0
 15 339.591796875 84.1220703125 435.721679688 243.641601562 435.721679688 c 2
 322.3046875 435.721679688 l 1
EndSplineSet
EndChar

StartChar: d
Encoding: 100 100 40
Width: 481
Flags: HW
HStem: 0 114.222<175.407 322.318> 318.222 117.5<179.714 266.035> 607 20G<322.318 452.305>
VStem: 15 120.535<150.046 279.461> 322.318 129.986<114.222 627>
LayerCount: 2
Fore
SplineSet
452.3046875 0 m 1
 243.641601562 0 l 2
 84.1220703125 0 15 96.1298828125 15 223.221679688 c 0
 15 350.314453125 114.321289062 435.721679688 234.03515625 435.721679688 c 2
 266.03515625 435.721679688 l 1
 266.03515625 318.221679688 l 1
 197.994140625 318.221679688 135.53515625 291.698242188 135.53515625 214.990234375 c 0
 135.53515625 157.041992188 168.73046875 114.221679688 267.020507812 114.221679688 c 2
 322.318359375 114.221679688 l 1
 322.318359375 627 l 1
 452.3046875 627 l 1
 452.3046875 0 l 1
EndSplineSet
EndChar

StartChar: e
Encoding: 101 101 41
Width: 462
Flags: HW
HStem: -6.67188 111.672<178.982 362.812> 169.143 76.3574<201.476 324.841> 322.5 122.45<170.175 297.964>
VStem: 15 115.841<149.101 284.498>
LayerCount: 2
Fore
SplineSet
445.627929688 169.142578125 m 1
 387.79296875 169.142578125 201.340820312 169 201.340820312 169 c 1
 201.340820312 245.5 l 1
 324.840820312 245.5 l 1
 327.534179688 280.965820312 297.86328125 322.5 232.840820312 322.5 c 0
 192.032226562 322.5 130.840820312 298.615234375 130.840820312 213 c 0
 130.840820312 130.951171875 203.004882812 105 263.840820312 105 c 0
 327.44140625 105 362.840820312 111.616210938 362.840820312 111.616210938 c 1
 362.840820312 0 l 1
 362.840820312 0 318.125 -6.671875 265.866210938 -6.671875 c 0
 81.5634765625 -6.671875 15 106.850585938 15 213.983398438 c 0
 15 344.3984375 96.6962890625 444.950195312 230.793945312 444.950195312 c 0
 349.599609375 444.950195312 462.627929688 384.07421875 445.627929688 169.142578125 c 1
EndSplineSet
EndChar

StartChar: f
Encoding: 102 102 42
Width: 338
Flags: HW
HStem: 0 21G<68.1396 195.419> 240.5 111.222<9.70703 66.6484 195.478 286.111> 458.658 118<237.677 328>
VStem: 66.6484 128.771<0.0968328 240.5 351.722 417.867>
LayerCount: 2
Fore
SplineSet
286.111328125 351.721679688 m 1
 286.111328125 240.5 l 1
 195.418945312 240.5 l 1
 195.418945312 0 l 1
 68.1396484375 0 l 1
 68.1396484375 0 67.146484375 133.03515625 66.6484375 240.5 c 1
 9.70703125 240.5 l 1
 9.70703125 351.721679688 l 1
 66.73046875 351.721679688 l 1
 71.6865234375 473.947265625 129.517578125 576.658203125 328 576.658203125 c 1
 328 458.658203125 l 1
 256.29296875 458.658203125 197.715820312 436.76953125 195.478515625 351.721679688 c 1
 286.111328125 351.721679688 l 1
EndSplineSet
EndChar

StartChar: g
Encoding: 103 103 43
Width: 497
Flags: HW
HStem: -195.613 108.895<92.165 287.376> 0 117.5<179.716 266.037> 321.5 114.223<175.407 322.32>
VStem: 15 120.537<156.261 285.676> 322.32 129.986<-53.5424 321.5>
LayerCount: 2
Fore
SplineSet
243.642578125 435.72265625 m 2
 452.306640625 435.72265625 l 1
 452.306640625 0 l 2
 452.306640625 -62.177734375 421.361328125 -119.2109375 376.12109375 -152.96875 c 0
 312.321289062 -200.576171875 228.98046875 -195.61328125 190.419921875 -195.61328125 c 0
 145.276367188 -195.61328125 92.130859375 -185 92.130859375 -185 c 1
 92.130859375 -76.587890625 l 1
 92.130859375 -76.587890625 131.484375 -86.71875 186.884765625 -86.71875 c 0
 242.28515625 -86.71875 266.047851562 -79.1044921875 289.29296875 -64.091796875 c 0
 304.858398438 -54.0390625 322.3203125 -34.0908203125 322.3203125 0 c 2
 322.3203125 321.5 l 1
 267.021484375 321.5 l 2
 168.731445312 321.5 135.537109375 278.6796875 135.537109375 220.732421875 c 0
 135.537109375 144.024414062 197.99609375 117.5 266.037109375 117.5 c 1
 266.037109375 0 l 1
 234.037109375 0 l 2
 114.323242188 0 15 85.408203125 15 212.5 c 0
 15 339.591796875 84.123046875 435.72265625 243.642578125 435.72265625 c 2
EndSplineSet
EndChar

StartChar: h
Encoding: 104 104 44
Width: 489
Flags: W
HStem: 0 21G<30 158.99> 314.75 120.972<158.16 285.579> 607 20G<30 157.336>
VStem: 30 127.819<0.22168 314.75 435.722 627> 329.674 129.007<0 269.865>
LayerCount: 2
Fore
SplineSet
329.673828125 0 m 1
 329.673828125 188.25 l 2
 329.673828125 269.862304688 288.706054688 314.75 212.056640625 314.75 c 2
 158.159562058 314.75 l 1
 159.046875 0 l 1
 30 0.2216796875 l 1
 30 627 l 1
 157.279296875 627 l 1
 157.818530328 435.721679688 l 1
 263.056640625 435.721679688 l 2
 386.39453125 435.721679688 458.680664062 325.934570312 458.680664062 228.2890625 c 0
 458.680664062 162.903320312 458.720703125 -0.2216796875 458.720703125 -0.2216796875 c 1
 329.673828125 0 l 1
EndSplineSet
EndChar

StartChar: i
Encoding: 105 105 45
Width: 210
Flags: W
HStem: 0 21G<41.3096 170.356> 415.722 20G<41.3096 170.356> 496.043 149.776<51.9346 157.843>
VStem: 30 149.777<517.977 623.885> 41.3096 129.047<0.22168 435.722>
LayerCount: 2
Fore
SplineSet
170.356445312 435.721679688 m 5xe8
 170.356445312 0 l 5
 41.3095703125 0.2216796875 l 5
 41.3095703125 435.721679688 l 5
 170.356445312 435.721679688 l 5xe8
30 570.931640625 m 4xf0
 30 612.291015625 63.529296875 645.819335938 104.888671875 645.819335938 c 4
 146.248046875 645.819335938 179.77734375 612.291015625 179.77734375 570.931640625 c 4
 179.77734375 529.571289062 146.248046875 496.04296875 104.888671875 496.04296875 c 4
 63.529296875 496.04296875 30 529.571289062 30 570.931640625 c 4xf0
EndSplineSet
EndChar

StartChar: j
Encoding: 106 106 46
Width: 290
Flags: HW
HStem: -185 118<-10.05 76.587> 415.722 20G<122.531 249.81> 496.043 149.776<133.156 239.064>
VStem: 111.221 149.777<517.977 623.885> 122.531 129.047<-23.8813 435.518>
LayerCount: 2
Fore
SplineSet
111.221679688 570.931640625 m 0xf0
 111.221679688 612.291015625 144.750976562 645.819335938 186.110351562 645.819335938 c 0
 227.469726562 645.819335938 260.999023438 612.291015625 260.999023438 570.931640625 c 0
 260.999023438 529.571289062 227.469726562 496.04296875 186.110351562 496.04296875 c 0
 144.750976562 496.04296875 111.221679688 529.571289062 111.221679688 570.931640625 c 0xf0
249.810546875 435.721679688 m 1
 249.810546875 435.721679688 251.578125 154.967773438 251.578125 57.978515625 c 0
 251.578125 -72.009765625 198.12890625 -185 -10.0498046875 -185 c 1
 -10.0498046875 -67 l 1
 63.5283203125 -67 123.28125 -43.9541015625 122.53125 46.7216796875 c 2
 122.53125 435.721679688 l 1xe8
 249.810546875 435.721679688 l 1
EndSplineSet
EndChar

StartChar: k
Encoding: 107 107 47
Width: 451
Flags: W
HStem: 0 21G<30 158.99 291.774 420.821> 415.722 20G<262.46 412.944> 607 20G<30 157.336>
VStem: 30 128.633<0.22168 146.75 267.722 627> 291.774 129.047<0.22168 103.319>
LayerCount: 2
Fore
SplineSet
276.483398438 435.721679688 m 1
 412.944335938 435.721679688 l 1
 287.755723505 257.178723929 l 1
 372.590711795 227.056510502 420.796875 137.648522473 420.796875 57.91796875 c 2
 420.796875 57.91796875 420.821289062 0 420.821289062 0 c 1
 291.774414062 0.2216796875 l 1
 291.774414062 20.25 l 2
 291.774414062 101.862304688 250.806640625 146.75 174.157226562 146.75 c 2
 158.633171507 146.75 l 1
 159.046875 0 l 1
 30 0.2216796875 l 1
 30 627 l 1
 157.279296875 627 l 1
 158.292139777 267.721679688 l 1
 158.687169517 267.721679688 l 1
 276.483398438 435.721679688 l 1
EndSplineSet
EndChar

StartChar: l
Encoding: 108 108 48
Width: 189
Flags: W
HStem: 0 21G<30 158.99> 607 20G<30 157.336>
VStem: 30 129.047<0.22168 627>
LayerCount: 2
Fore
SplineSet
157.279296875 627 m 1
 159.046875 0 l 1
 30 0.2216796875 l 1
 30 627 l 1
 157.279296875 627 l 1
EndSplineSet
EndChar

StartChar: m
Encoding: 109 109 49
Width: 752
Flags: HW
HStem: 0 21G<30 159.084 311.676 440.723 593.314 722.398> 327.035 130.535<185.161 288.326 464.073 567.237>
VStem: 30 129.047<0.222656 301.055> 311.676 129.047<0 303.565> 593.352 129.047<0.222656 301.055>
CounterMasks: 1 38
LayerCount: 2
Fore
SplineSet
230.169921875 451.5703125 m 4
 288.411132812 451.5703125 338.556640625 429.721679688 375.18359375 394.57421875 c 5
 411.810546875 429.721679688 461.956054688 451.5703125 520.197265625 451.5703125 c 4
 642.9140625 451.5703125 721.3828125 360.734375 721.3828125 232.53515625 c 6
 721.3828125 0 l 5
 592.3359375 0 l 5
 591.9609375 196.26953125 l 6
 591.9609375 282.810546875 570.315429688 321.03515625 517.248046875 321.03515625 c 4
 462.294921875 321.03515625 439.70703125 286.088867188 439.70703125 195.298828125 c 6
 439.70703125 0 l 5
 310.66015625 0 l 5
 310.66015625 195.298828125 l 6
 310.66015625 286.088867188 288.072265625 321.03515625 233.119140625 321.03515625 c 4
 180.051757812 321.03515625 158.40625 282.810546875 158.40625 196.26953125 c 6
 158.03125 0 l 5
 28.984375 0 l 5
 28.984375 232.53515625 l 6
 28.984375 360.734375 107.453125 451.5703125 230.169921875 451.5703125 c 4
EndSplineSet
EndChar

StartChar: n
Encoding: 110 110 50
Width: 481
Flags: HW
HStem: 0 21G<30 159.084 321.675 450.722> 327.034 130.535<188.207 295.068>
VStem: 30 129.047<0.22168 295.687> 321.675 129.047<0 297.163>
LayerCount: 2
Fore
SplineSet
450.48828125 0 m 5
 321.44140625 0 l 5
 321.44140625 193.298828125 l 6
 321.44140625 284.088867188 294.852539062 319.034179688 239.899414062 319.034179688 c 4
 186.83203125 319.034179688 159.186523438 280.810546875 159.186523438 194.26953125 c 6
 158.813476562 0 l 5
 29.7666015625 0.2216796875 l 5
 29.7666015625 230.534179688 l 6
 29.7666015625 358.733398438 116.234375 449.569335938 238.951171875 449.569335938 c 4
 361.66796875 449.569335938 450.48828125 380.447265625 450.48828125 220.927734375 c 6
 450.48828125 0 l 5
EndSplineSet
EndChar

StartChar: o
Encoding: 111 111 51
Width: 476
Flags: HW
HStem: -22 131.127<-19.9676 107.115> 326.398 129.602<-19.9686 107.115>
VStem: -194.727 128.586<155.04 282.571> 152.263 125.01<155.04 282.571>
LayerCount: 2
Fore
SplineSet
238.1015625 444.936523438 m 0
 361.235351562 444.936523438 461.203125 343.697265625 461.203125 218.999023438 c 0
 461.203125 94.30078125 361.235351562 -6.9384765625 238.1015625 -6.9384765625 c 0
 114.96875 -6.9384765625 15 94.30078125 15 218.999023438 c 0
 15 343.697265625 114.96875 444.936523438 238.1015625 444.936523438 c 0
239.791015625 322.41796875 m 0
 182.815429688 322.41796875 136.55859375 276.400390625 136.55859375 219.71875 c 0
 136.559570312 163.0390625 182.81640625 117.022460938 239.791015625 117.021484375 c 0
 296.766601562 117.021484375 343.025390625 163.0390625 343.026367188 219.71875 c 0
 343.026367188 276.400390625 296.767578125 322.41796875 239.791015625 322.41796875 c 0
EndSplineSet
EndChar

StartChar: q
Encoding: 113 113 52
Width: 482
Flags: HW
HStem: 0 117.5<179.414 265.735> 321.5 114.222<175.107 322.018>
VStem: 14.7 120.535<156.261 285.675> 322.018 129.986<-185 321.5>
LayerCount: 2
Fore
SplineSet
452.004882812 435.721679688 m 1
 452.004882812 -185 l 1
 322.018554688 -185 l 1
 322.018554688 321.5 l 1
 266.720703125 321.5 l 2
 168.430664062 321.5 135.235351562 278.6796875 135.235351562 220.732421875 c 0
 135.235351562 144.0234375 197.694335938 117.5 265.735351562 117.5 c 1
 265.735351562 0 l 1
 233.735351562 0 l 2
 114.021484375 0 14.7001953125 85.408203125 14.7001953125 212.5 c 0
 14.7001953125 339.591796875 83.822265625 435.721679688 243.341796875 435.721679688 c 2
 452.004882812 435.721679688 l 1
EndSplineSet
EndChar

StartChar: r
Encoding: 114 114 53
Width: 419
Flags: HW
HStem: 0 457.643<29.5972 159.543> 323.678 133.965<162.233 298.486>
VStem: 29.5566 129.986<0 325.772>
LayerCount: 2
Fore
SplineSet
156.559570312 435.721679688 m 1
 158.327148438 0 l 1
 29.2802734375 0.2216796875 l 1
 29.2802734375 435.721679688 l 1
 156.559570312 435.721679688 l 1
140.5859375 435.72265625 m 1
 216.3359375 435.72265625 l 2
 342.805664062 435.72265625 403.9609375 338.248046875 403.9609375 270.2890625 c 0
 403.9609375 241.517578125 403.998046875 229.998046875 404 229.24609375 c 1
 274.955078125 229.24609375 l 1
 274.955078125 237.4765625 l 2
 274.955078125 291.088867188 240.13671875 312.75 183.3359375 312.75 c 2
 140.5859375 312.75 l 1
 140.5859375 435.72265625 l 1
EndSplineSet
EndChar

StartChar: s
Encoding: 115 115 54
Width: 344
Flags: HW
HStem: 0 111.222<41.3164 192.299> 324.5 111.222<158.791 312.952>
VStem: 30 123.048<260.799 317.918> 195.109 133.996<115.777 165.429>
LayerCount: 2
Fore
SplineSet
312.952148438 324.5 m 1
 212.547851562 324.5 l 2
 181.6484375 324.5 153.047851562 316.661132812 153.047851562 287.25 c 0
 153.047851562 254.703125 192.134765625 255.684570312 232.297851562 249.25 c 0
 285.236328125 240.768554688 329.10546875 193.28125 329.10546875 132.7265625 c 0
 329.10546875 41.005859375 275.0234375 0 168.236328125 0 c 2
 41.31640625 0 l 1
 41.31640625 111.221679688 l 1
 141.719726562 111.221679688 l 2
 155.059570312 111.221679688 195.109375 112.797851562 195.109375 140.176757812 c 0
 195.109375 171.640625 145.08203125 171.060546875 120.86328125 174.799804688 c 0
 91.6328125 179.3125 30 206.575195312 30 282.264648438 c 0
 30 368.688476562 64.8916015625 435.721679688 215.797851562 435.721679688 c 2
 312.952148438 435.721679688 l 1
 312.952148438 324.5 l 1
EndSplineSet
EndChar

StartChar: t
Encoding: 116 116 55
Width: 363
Flags: HW
HStem: 0 118<246.256 332.893> 324.5 111.222<14.6 71.4936 200.312 333.004> 548.658 20G<73.0326 200.312>
VStem: 71.265 129.047<161.12 324.5 435.722 568.614>
LayerCount: 2
Fore
SplineSet
333.00390625 435.721679688 m 1
 333.00390625 324.5 l 1
 200.311523438 324.5 l 1
 200.311523438 231.721679688 l 2
 199.561523438 141.045898438 259.314453125 118 332.892578125 118 c 1
 332.892578125 0 l 1
 124.713867188 0 71.2646484375 112.991210938 71.2646484375 242.979492188 c 0
 71.2646484375 264.838867188 71.3544921875 293.387695312 71.4931640625 324.5 c 1
 14.599609375 324.5 l 1
 14.599609375 435.721679688 l 1
 72.107421875 435.721679688 l 1
 72.5625 507.891601562 73.0322265625 568.658203125 73.0322265625 568.658203125 c 1
 200.311523438 568.658203125 l 1
 200.311523438 435.721679688 l 1
 333.00390625 435.721679688 l 1
EndSplineSet
EndChar

StartChar: u
Encoding: 117 117 56
Width: 481
Flags: HW
HStem: -21.8477 130.535<188.207 295.068> 415.722 20G<30 159.084 321.675 450.722>
VStem: 30 129.42<140.035 435.5> 321.675 129.047<138.559 435.722>
LayerCount: 2
Fore
SplineSet
451.48828125 435.721679688 m 5
 451.48828125 214.793945312 l 6
 451.48828125 55.2744140625 362.66796875 -13.84765625 239.951171875 -13.84765625 c 4
 117.234375 -13.84765625 30.7666015625 76.9892578125 30.7666015625 205.1875 c 6
 30.7666015625 435.5 l 5
 159.813476562 435.721679688 l 5
 160.186523438 241.453125 l 6
 160.186523438 154.911132812 187.83203125 116.6875 240.899414062 116.6875 c 4
 295.852539062 116.6875 322.44140625 151.633789062 322.44140625 242.423828125 c 6
 322.44140625 435.721679688 l 5
 451.48828125 435.721679688 l 5
EndSplineSet
EndChar

StartChar: v
Encoding: 118 118 57
Width: 461
Flags: HW
HStem: 415.722 20G<17.657 145.813 315.438 443.595>
LayerCount: 2
Fore
SplineSet
13 435.72265625 m 5
 147.150390625 435.72265625 l 5
 230.369140625 140.380859375 l 5
 313.587890625 435.72265625 l 5
 447.73828125 435.72265625 l 5
 332.24609375 68.369140625 l 5
 332.24609375 68.369140625 308.530273438 -10.76953125 230.369140625 -10.76953125 c 4
 152.208007812 -10.76953125 128.4921875 68.369140625 128.4921875 68.369140625 c 5
 13 435.72265625 l 5
EndSplineSet
EndChar

StartChar: w
Encoding: 119 119 58
Width: 711
Flags: HW
HStem: 416.066 19.6562G<17.6569 145.812 315.437 373.527 373.527 402.301 566.178 694.333>
LayerCount: 2
Fore
SplineSet
13 435.72265625 m 5
 147.18359375 435.72265625 l 5
 230.369140625 146.380859375 l 5
 313.5546875 435.72265625 l 5
 398.01953125 435.72265625 l 5
 481.107421875 146.724609375 l 5
 564.197265625 435.72265625 l 5
 698.37109375 435.72265625 l 5
 582.984375 68.712890625 l 5
 582.984375 68.712890625 559.268554688 -10.42578125 481.107421875 -10.42578125 c 4
 402.946289062 -10.42578125 381.232421875 68.712890625 381.232421875 68.712890625 c 5
 355.79296875 175.265625 l 5
 330.24609375 68.369140625 l 5
 330.24609375 68.369140625 308.530273438 -10.76953125 230.369140625 -10.76953125 c 4
 152.208007812 -10.76953125 128.4921875 68.369140625 128.4921875 68.369140625 c 5
 13 435.72265625 l 5
EndSplineSet
EndChar

StartChar: x
Encoding: 120 120 59
Width: 429
Flags: HW
HStem: 0 20.7773G<11.7263 154.737 287.953 406.249> 415.723 20G<11.8122 153.201 277.384 418.773>
LayerCount: 2
Fore
SplineSet
11.81640625 435.72265625 m 1
 141.080078125 435.72265625 l 1
 215.296875 313.30859375 l 1
 289.513671875 435.72265625 l 1
 418.77734375 435.72265625 l 1
 280.35546875 217.2578125 l 1
 419.00390625 -0.22265625 l 1
 287.95703125 0 l 1
 215.3203125 120.61328125 l 1
 142.69921875 0 l 1
 11.73046875 0 l 1
 150.25390625 217.283203125 l 1
 11.81640625 435.72265625 l 1
EndSplineSet
EndChar

StartChar: y
Encoding: 121 121 60
Width: 489
Flags: W
HStem: -195.613 108.895<98.5796 293.79> 0 120.972<203.142 328.734> 415.722 20G<329.755 458.721>
VStem: 30.04 129.007<165.858 435.722> 328.734 129.986<-53.5426 0 120.972 435.5>
LayerCount: 2
Fore
SplineSet
159.046875 435.721679688 m 1
 159.046875 247.471679688 l 2
 159.046875 165.860351562 200.014648438 120.971679688 276.6640625 120.971679688 c 2
 330.950664328 120.971679688 l 1
 329.673828125 435.721679688 l 1
 458.720703125 435.5 l 1
 458.720703125 0 l 2
 458.720703125 -62.177734375 427.775390625 -119.211914062 382.53515625 -152.969726562 c 0
 318.734375 -200.577148438 235.39453125 -195.61328125 196.833984375 -195.61328125 c 0
 151.690429688 -195.61328125 98.5458984375 -185 98.5458984375 -185 c 1
 98.5458984375 -76.5869140625 l 1
 98.5458984375 -76.5869140625 137.897460938 -86.71875 193.297851562 -86.71875 c 0
 248.698242188 -86.71875 272.461914062 -79.1044921875 295.70703125 -64.091796875 c 0
 311.272460938 -54.0390625 328.734375 -34.0908203125 328.734375 0 c 1
 225.6640625 0 l 2
 102.326171875 0 30.0400390625 109.788085938 30.0400390625 207.43359375 c 0
 30.0400390625 272.818359375 30 435.943359375 30 435.943359375 c 1
 159.046875 435.721679688 l 1
EndSplineSet
EndChar

StartChar: z
Encoding: 122 122 61
Width: 473
Flags: W
HStem: 0 111.223<233.203 411.199> 324.5 111.223<62.9121 240.018>
LayerCount: 2
Fore
SplineSet
62.912109375 435.72265625 m 1
 443.220703125 435.72265625 l 1
 233.203125 111.22265625 l 1
 411.19921875 111.22265625 l 1
 411.19921875 0 l 1
 30 0 l 1
 240.017578125 324.5 l 1
 62.912109375 324.5 l 1
 62.912109375 435.72265625 l 1
EndSplineSet
EndChar

StartChar: colon
Encoding: 58 58 63
Width: 210
Flags: W
HStem: -17.957 149.776<51.9346 157.843> 302.798 149.776<52.1675 158.076>
VStem: 30 149.777<3.97717 109.885 326.018 429.355>
LayerCount: 2
Fore
SplineSet
30.2333984375 377.686523438 m 0
 30.2333984375 419.045898438 63.76171875 452.57421875 105.12109375 452.57421875 c 0
 146.481445312 452.57421875 180.009765625 419.045898438 180.009765625 377.686523438 c 0
 180.009765625 336.326171875 146.481445312 302.797851562 105.12109375 302.797851562 c 0
 63.76171875 302.797851562 30.2333984375 336.326171875 30.2333984375 377.686523438 c 0
30 56.931640625 m 0
 30 98.291015625 63.529296875 131.819335938 104.888671875 131.819335938 c 0
 146.248046875 131.819335938 179.77734375 98.291015625 179.77734375 56.931640625 c 0
 179.77734375 15.5712890625 146.248046875 -17.95703125 104.888671875 -17.95703125 c 0
 63.529296875 -17.95703125 30 15.5712890625 30 56.931640625 c 0
EndSplineSet
EndChar

StartChar: semicolon
Encoding: 59 59 64
Width: 269
Flags: W
HStem: 302.798 149.776<111.113 217.021>
VStem: 89.1787 149.776<324.732 430.64>
LayerCount: 2
Fore
SplineSet
233.279296875 179.395507812 m 1
 159.046875 -65.408203125 l 1
 30 -65.283203125 l 1
 106 179.395507812 l 1
 233.279296875 179.395507812 l 1
89.1787109375 377.686523438 m 0
 89.1787109375 419.045898438 122.70703125 452.57421875 164.06640625 452.57421875 c 0
 205.426757812 452.57421875 238.955078125 419.045898438 238.955078125 377.686523438 c 0
 238.955078125 336.326171875 205.426757812 302.797851562 164.06640625 302.797851562 c 0
 122.70703125 302.797851562 89.1787109375 336.326171875 89.1787109375 377.686523438 c 0
EndSplineSet
EndChar

StartChar: equal
Encoding: 61 61 65
Width: 363
Flags: W
HStem: 74.8057 95.8125<30.1533 332.785> 240.806 95.8125<30.1533 332.785>
VStem: 30 302.785<76.1182 170.618 242.118 336.618>
LayerCount: 2
Fore
SplineSet
332.78515625 242.118164062 m 1
 30 240.805664062 l 1
 30.1533203125 336.618164062 l 1
 332.78515625 336.618164062 l 1
 332.78515625 242.118164062 l 1
332.78515625 76.1181640625 m 1
 30 74.8056640625 l 1
 30.1533203125 170.618164062 l 1
 332.78515625 170.618164062 l 1
 332.78515625 76.1181640625 l 1
EndSplineSet
EndChar

StartChar: grave
Encoding: 96 96 66
Width: 260
Flags: W
HStem: 435.722 191.278<102.343 159.047>
VStem: 30 199.622
LayerCount: 2
Fore
SplineSet
229.622070312 435.721679688 m 1
 102.342773438 435.721679688 l 1
 30 626.875 l 1
 159.046875 627 l 1
 229.622070312 435.721679688 l 1
EndSplineSet
EndChar

StartChar: quotedbl
Encoding: 34 34 67
Width: 441
Flags: W
HStem: 435.722 191.278<102.343 159.047 283.305 340.009>
LayerCount: 2
Fore
SplineSet
410.583984375 627 m 1
 340.008789062 435.721679688 l 1
 210.961914062 435.846679688 l 1
 283.3046875 627 l 1
 410.583984375 627 l 1
229.622070312 627 m 1
 159.046875 435.721679688 l 1
 30 435.846679688 l 1
 102.342773438 627 l 1
 229.622070312 627 l 1
EndSplineSet
EndChar

StartChar: quotesingle
Encoding: 39 39 68
Width: 260
Flags: W
HStem: 435.847 191.153<102.343 159.047>
VStem: 30 199.622
LayerCount: 2
Fore
SplineSet
229.622070312 627 m 1
 159.046875 435.721679688 l 1
 30 435.846679688 l 1
 102.342773438 627 l 1
 229.622070312 627 l 1
EndSplineSet
EndChar

StartChar: plus
Encoding: 43 43 69
Width: 409
Flags: W
HStem: 183.287 95.332<30.1777 158.15 253.48 379.455>
VStem: 158.98 94.5<57.666 183.287 278.619 406.943>
LayerCount: 2
Fore
SplineSet
157.66796875 407.12109375 m 1
 253.48046875 406.943359375 l 1
 253.48046875 278.619140625 l 1
 379.455078125 278.619140625 l 1
 379.455078125 184.1171875 l 1
 253.48046875 183.64453125 l 1
 253.48046875 57.666015625 l 1
 158.98046875 57.666015625 l 1
 158.5078125 183.287109375 l 1
 30 182.8046875 l 1
 30.177734375 278.619140625 l 1
 158.150390625 278.619140625 l 1
 157.66796875 407.12109375 l 1
EndSplineSet
EndChar

StartChar: comma
Encoding: 44 44 70
Width: 263
Flags: W
HStem: -65.2832 244.679<106 159.047>
VStem: 30 203.279
LayerCount: 2
Fore
SplineSet
233.279296875 179.395507812 m 1
 159.046875 -65.408203125 l 1
 30 -65.283203125 l 1
 106 179.395507812 l 1
 233.279296875 179.395507812 l 1
EndSplineSet
EndChar

StartChar: hyphen
Encoding: 45 45 71
Width: 363
Flags: W
HStem: 182.806 95.8125<30.1533 332.785>
VStem: 30 302.785<184.118 278.618>
LayerCount: 2
Fore
SplineSet
332.78515625 184.118164062 m 1
 30 182.805664062 l 1
 30.1533203125 278.618164062 l 1
 332.78515625 278.618164062 l 1
 332.78515625 184.118164062 l 1
EndSplineSet
EndChar

StartChar: period
Encoding: 46 46 72
Width: 210
Flags: HW
HStem: -17.957 149.776<51.9346 157.843>
VStem: 30 149.777<3.97717 109.885>
LayerCount: 2
Fore
SplineSet
30 56.931640625 m 0
 30 98.291015625 63.529296875 131.819335938 104.888671875 131.819335938 c 0
 146.248046875 131.819335938 179.77734375 98.291015625 179.77734375 56.931640625 c 0
 179.77734375 15.5712890625 146.248046875 -17.95703125 104.888671875 -17.95703125 c 0
 63.529296875 -17.95703125 30 15.5712890625 30 56.931640625 c 0
EndSplineSet
EndChar

StartChar: slash
Encoding: 47 47 73
Width: 383
Flags: W
HStem: 607 20G<220.278 353.279>
VStem: 30 323.279
LayerCount: 2
Fore
SplineSet
353.279296875 627 m 1
 159.046875 -58.341796875 l 1
 30 -58.099609375 l 1
 226 627 l 1
 353.279296875 627 l 1
EndSplineSet
EndChar

StartChar: backslash
Encoding: 92 92 74
Width: 383
Flags: W
HStem: 607 20G<30 163.001>
VStem: 30 323.279
LayerCount: 2
Fore
SplineSet
30 627 m 1
 157.279296875 627 l 1
 353.279296875 -58.099609375 l 1
 224.232421875 -58.341796875 l 1
 30 627 l 1
EndSplineSet
EndChar

StartChar: underscore
Encoding: 95 95 75
Width: 363
Flags: W
HStem: -95.8125 95.8125<30.1533 332.785>
VStem: 30 302.785<-94.5 0>
LayerCount: 2
Fore
SplineSet
332.78515625 -94.5 m 1
 30 -95.8125 l 1
 30.1533203125 0 l 1
 332.78515625 0 l 1
 332.78515625 -94.5 l 1
EndSplineSet
EndChar

StartChar: exclam
Encoding: 33 33 76
Width: 210
Flags: W
HStem: -18.5977 149.776<51.9346 157.843> 607.222 20G<41.3096 170.275>
VStem: 30 149.777<3.33643 109.245> 41.3096 127.279<191.5 627>
LayerCount: 2
Fore
SplineSet
30 56.2900390625 m 0xe0
 30 97.650390625 63.529296875 131.178710938 104.888671875 131.178710938 c 0
 146.248046875 131.178710938 179.77734375 97.650390625 179.77734375 56.2900390625 c 0
 179.77734375 14.9306640625 146.248046875 -18.59765625 104.888671875 -18.59765625 c 0
 63.529296875 -18.59765625 30 14.9306640625 30 56.2900390625 c 0xe0
168.588867188 191.5 m 1xd0
 41.3095703125 191.5 l 1
 41.3095703125 627 l 1
 170.356445312 627.221679688 l 1
 168.588867188 191.5 l 1xd0
EndSplineSet
EndChar

StartChar: notequal
Encoding: 8800 8800 77
Width: 363
Flags: W
HStem: 0 21G<83.1553 165.276> 75.46 95.1582<30.1543 104.649 207.962 332.786> 241.335 95.2832<30.1543 152.201 255.008 332.786> 415.722 20G<202.092 283.095>
VStem: 30 302.786<76.1182 170.618 242.118 336.618>
LayerCount: 2
Fore
SplineSet
255.0078125 336.618164062 m 1
 332.786132812 336.618164062 l 1
 332.786132812 242.118164062 l 1
 228.09765625 241.6640625 l 1
 207.961914062 170.618164062 l 1
 332.786132812 170.618164062 l 1
 332.786132812 76.1181640625 l 1
 180.993164062 75.4599609375 l 1
 159.607421875 0 l 1
 83.1552734375 0 l 1
 104.649414062 75.12890625 l 1
 30 74.8056640625 l 1
 30.154296875 170.618164062 l 1
 131.96875 170.618164062 l 1
 152.201171875 241.334960938 l 1
 30 240.805664062 l 1
 30.154296875 336.618164062 l 1
 179.4609375 336.618164062 l 1
 207.814453125 435.721679688 l 1
 283.094726562 435.721679688 l 1
 255.0078125 336.618164062 l 1
EndSplineSet
EndChar

StartChar: numbersign
Encoding: 35 35 78
Width: 687
Flags: W
HStem: 0 21G<158.938 263.734 424.994 528.444> 133.173 104.84<30.3184 158.938 345.552 424.495 528.444 657.382> 389.37 103.938<30 158.938 262.889 423.909 528.444 657.064> 607.383 20G<158.938 262.389 423.649 528.444>
VStem: 158.938 103.95<0.320312 133.467 238.013 389.37 493.308 627.383> 424.495 103.949<0 134.075 238.013 389.37 493.917 627.064>
LayerCount: 2
Fore
SplineSet
528.444335938 493.916992188 m 1
 657.383789062 494.211914062 l 1
 657.064453125 389.370117188 l 1
 528.444335938 389.370117188 l 1
 528.444335938 238.012695312 l 1
 657.381835938 238.012695312 l 1
 657.381835938 134.607421875 l 1
 528.444335938 134.3125 l 1
 528.444335938 0 l 1
 425.040039062 0 l 1
 424.733398438 134.075195312 l 1
 345.551757812 133.89453125 l 1
 345.551757812 238.012695312 l 1
 424.495117188 238.012695312 l 1
 424.1484375 389.370117188 l 1
 262.888671875 389.370117188 l 1
 263.780273438 0.0009765625 l 1
 158.938476562 0.3203125 l 1
 158.938476562 133.466796875 l 1
 30.0009765625 133.172851562 l 1
 30.318359375 238.012695312 l 1
 158.938476562 238.012695312 l 1
 158.938476562 389.370117188 l 1
 30 389.370117188 l 1
 30 492.775390625 l 1
 158.938476562 493.0703125 l 1
 158.938476562 627.3828125 l 1
 262.34375 627.3828125 l 1
 262.650390625 493.307617188 l 1
 423.909179688 493.677734375 l 1
 423.603515625 627.383789062 l 1
 528.444335938 627.064453125 l 1
 528.444335938 493.916992188 l 1
EndSplineSet
EndChar

StartChar: dollar
Encoding: 36 36 79
Width: 450
Flags: W
HStem: 0 132.094<44.7686 173.276> 435.722 132.937<277.207 399.279> 607 20G<173.276 276.862>
VStem: 173.276 103.931<-58.7441 0 568.658 627>
LayerCount: 2
Fore
SplineSet
399.279296875 435.721679688 m 1
 268.2421875 435.721679688 l 2
 227.916015625 435.721679688 182.58984375 421.393554688 182.58984375 380.887695312 c 0
 182.58984375 336.998046875 236.672851562 339.108398438 294.017578125 331.294921875 c 0
 375.44140625 320.200195312 420.361328125 253.442382812 420.361328125 165.220703125 c 0
 420.361328125 77.03515625 370.287109375 18.921875 277.499023438 3.8759765625 c 1
 278.118164062 -58.8173828125 l 1
 173.276367188 -58.744140625 l 1
 173.276367188 0 l 1
 44.7685546875 0 l 1
 44.7685546875 132.09375 l 1
 175.805664062 132.592773438 l 2
 193.215820312 132.592773438 253.483398438 134.140625 253.483398438 176.943359375 c 0
 253.483398438 218.95703125 194.02734375 219.787109375 148.584960938 228.129882812 c 0
 98.63671875 237.299804688 30 275.599609375 30 376.381835938 c 0
 30 465.155273438 53.5205078125 538.068359375 173.276367188 561.076171875 c 1
 173.276367188 627 l 1
 276.681640625 627 l 1
 277.20703125 568.658203125 l 1
 399.279296875 568.658203125 l 1
 399.279296875 435.721679688 l 1
EndSplineSet
EndChar

StartChar: percent
Encoding: 37 37 80
Width: 697
Flags: W
HStem: -28 70.7764<495.638 586.346> -0.557617 21G<123.961 262.906> 160.048 69.9521<495.638 586.346> 397.963 70.7764<113.236 203.944> 586.011 69.9521<113.236 203.944> 606.396 20G<435.522 573.078>
VStem: 30 69.4043<482.381 571.956> 217.287 67.4736<482.381 571.956> 412.402 69.4033<56.4186 145.993> 599.689 67.4727<56.4186 145.993>
LayerCount: 2
Fore
SplineSet
540.747070312 160.047851562 m 0xb3c0
 508.215820312 160.047851562 481.805664062 133.7734375 481.805664062 101.411132812 c 0
 481.805664062 69.0498046875 508.216796875 42.7763671875 540.747070312 42.7763671875 c 0
 573.278320312 42.7763671875 599.688476562 69.0498046875 599.689453125 101.411132812 c 0
 599.689453125 133.7734375 573.278320312 160.047851562 540.747070312 160.047851562 c 0xb3c0
539.782226562 230 m 0
 610.084960938 230 667.162109375 172.197265625 667.162109375 101 c 0
 667.162109375 29.802734375 610.084960938 -28 539.782226562 -28 c 0
 469.479492188 -28 412.40234375 29.802734375 412.40234375 101 c 0
 412.40234375 172.197265625 469.479492188 230 539.782226562 230 c 0
158.345703125 586.010742188 m 0x3bc0
 125.814453125 586.010742188 99.404296875 559.735351562 99.404296875 527.374023438 c 0
 99.404296875 495.012695312 125.815429688 468.739257812 158.345703125 468.739257812 c 0
 190.875976562 468.739257812 217.287109375 495.012695312 217.287109375 527.374023438 c 0
 217.287109375 559.736328125 190.875976562 586.010742188 158.345703125 586.010742188 c 0x3bc0
157.379882812 655.962890625 m 0
 227.684570312 655.962890625 284.760742188 598.16015625 284.760742188 526.962890625 c 0
 284.760742188 455.765625 227.68359375 397.962890625 157.379882812 397.962890625 c 0
 87.0771484375 397.962890625 30 455.765625 30 526.962890625 c 0
 30 598.16015625 87.0771484375 655.962890625 157.379882812 655.962890625 c 0
573.078125 626.396484375 m 1x77c0
 252.685546875 -0.5576171875 l 1
 123.9609375 0 l 1
 445.797851562 626.396484375 l 1
 573.078125 626.396484375 l 1x77c0
EndSplineSet
EndChar

StartChar: less
Encoding: 60 60 81
Width: 390
Flags: W
HStem: 0 21G<195.888 359.931> 415.723 20G<195.878 359.929>
VStem: 30 329.929
LayerCount: 2
Fore
SplineSet
212.650390625 435.72265625 m 1
 359.928710938 435.72265625 l 1
 179.045898438 217.861328125 l 1
 359.930664062 0 l 1
 212.650390625 0 l 1
 30 217.927734375 l 1
 212.650390625 435.72265625 l 1
EndSplineSet
EndChar

StartChar: greater
Encoding: 62 62 82
Width: 390
Flags: W
HStem: 0 21G<30 194.044> 415.723 20G<30.001 194.053>
VStem: 30 329.932
LayerCount: 2
Fore
SplineSet
177.280273438 435.72265625 m 1
 359.931640625 217.927734375 l 1
 177.28125 0 l 1
 30 0 l 1
 210.883789062 217.861328125 l 1
 30.0009765625 435.72265625 l 1
 177.280273438 435.72265625 l 1
EndSplineSet
EndChar

StartChar: at
Encoding: 64 64 83
Width: 870
Flags: W
HStem: -185 124.748<344.689 839.932> 0 117.5<381.349 467.67> 321.5 114.223<377.042 523.953> 494.064 132.936<345.634 709.953>
VStem: 30 128.283<96.2724 332.42> 216.635 120.535<156.261 285.676> 523.953 129.986<129.5 321.5> 709.953 129.5<129.5 494.064>
LayerCount: 2
Fore
SplineSet
520.1015625 627 m 2
 762.953125 627 l 1
 839.453125 627 l 1
 839.453125 0 l 1
 523.953125 0 l 1
 523.953125 321.5 l 1
 468.654296875 321.5 l 2
 370.364257812 321.5 337.169921875 278.6796875 337.169921875 220.732421875 c 0
 337.169921875 144.024414062 399.62890625 117.5 467.669921875 117.5 c 1
 467.669921875 0 l 1
 435.669921875 0 l 2
 315.956054688 0 216.634765625 85.408203125 216.634765625 212.5 c 0
 216.634765625 339.591796875 285.7578125 435.72265625 445.27734375 435.72265625 c 2
 653.939453125 435.72265625 l 1
 653.939453125 129.5 l 1
 709.953125 129.5 l 1
 709.953125 494.064453125 l 1
 501.310546875 494.064453125 l 2
 217.602539062 494.064453125 158.487304688 344.977539062 158.283203125 217.896484375 c 0
 157.869140625 -40.5 369.231445312 -60.283203125 533.20703125 -60.251953125 c 0
 536.30859375 -60.2509765625 836.895507812 -60.748046875 839.931640625 -60.748046875 c 1
 839.931640625 -185.5 l 1
 486.921875 -185 l 2
 295.975585938 -184.729492188 30 -155.481445312 30 218.31640625 c 0
 30 566.658203125 322.446289062 627 520.1015625 627 c 2
EndSplineSet
EndChar

StartChar: exclamdown
Encoding: 161 161 84
Width: 210
Flags: W
HStem: 310.821 149.776<51.9346 157.843>
VStem: 30 149.777<332.755 438.664> 41.3096 129.047<-185 250.5>
LayerCount: 2
Fore
SplineSet
30 385.709960938 m 0xc0
 30 427.069335938 63.529296875 460.59765625 104.888671875 460.59765625 c 0
 146.248046875 460.59765625 179.77734375 427.069335938 179.77734375 385.709960938 c 0
 179.77734375 344.349609375 146.248046875 310.821289062 104.888671875 310.821289062 c 0
 63.529296875 310.821289062 30 344.349609375 30 385.709960938 c 0xc0
168.588867188 250.5 m 1
 170.356445312 -185.221679688 l 1
 41.3095703125 -185 l 1
 41.3095703125 250.5 l 1xa0
 168.588867188 250.5 l 1
EndSplineSet
EndChar

StartChar: questiondown
Encoding: 191 191 85
Width: 377
Flags: W
HStem: -210.598 92.0098<151.001 235.878> 312.638 149.776<137.579 243.487>
VStem: 30 109.248<-107.409 -8.46278> 115.645 149.777<334.572 440.48> 132.264 114.777<146.508 254.316> 248.475 98.9512<-106.777 -21.8856>
LayerCount: 2
Fore
SplineSet
193.888671875 -210.59765625 m 0xe4
 90.203125 -210.59765625 30 -145.436523438 30 -61.15234375 c 0xe4
 30 -18.3359375 46.8779296875 11.087890625 49.74609375 15.74609375 c 2
 132.263671875 146.5078125 l 1
 133.8203125 254.31640625 l 1
 247.041015625 254.31640625 l 1
 247.041015625 126.47265625 l 1xc8
 171.470703125 8.072265625 l 2
 158.58203125 -12.1220703125 139.248046875 -41.5048828125 139.248046875 -63.14453125 c 0
 139.248046875 -94.546875 161.563476562 -118.587890625 190.27734375 -118.587890625 c 0
 223.840820312 -118.587890625 248.474609375 -93.1494140625 248.474609375 -66.0234375 c 0
 248.474609375 -29.3876953125 213.841796875 -12.98828125 213.841796875 -12.98828125 c 1
 262.681640625 60.716796875 l 1
 262.681640625 60.716796875 347.42578125 25.5859375 347.42578125 -68.6884765625 c 0
 347.42578125 -166.41015625 264.89453125 -210.59765625 193.888671875 -210.59765625 c 0xe4
265.421875 387.525390625 m 0xd0
 265.421875 346.166015625 231.892578125 312.637695312 190.533203125 312.637695312 c 0
 149.173828125 312.637695312 115.64453125 346.166015625 115.64453125 387.525390625 c 0
 115.64453125 428.885742188 149.173828125 462.4140625 190.533203125 462.4140625 c 0
 231.892578125 462.4140625 265.421875 428.885742188 265.421875 387.525390625 c 0xd0
EndSplineSet
EndChar

StartChar: question
Encoding: 63 63 86
Width: 377
Flags: W
HStem: -18.5977 149.776<133.938 239.847> 562.404 92.0098<141.548 226.425>
VStem: 30 98.9512<465.701 550.593> 112.004 149.777<3.33643 109.245> 130.385 113.221<189.5 297.309> 238.178 109.248<452.279 551.226>
LayerCount: 2
Fore
SplineSet
183.537109375 654.4140625 m 0xe4
 287.22265625 654.4140625 347.42578125 589.252929688 347.42578125 504.96875 c 0xe4
 347.42578125 462.15234375 330.547851562 432.728515625 327.6796875 428.0703125 c 2
 245.162109375 297.30859375 l 1
 243.60546875 189.5 l 1
 130.384765625 189.5 l 1
 130.384765625 317.34375 l 1xc8
 205.955078125 435.744140625 l 2
 218.84375 455.938476562 238.177734375 485.321289062 238.177734375 506.9609375 c 0
 238.177734375 538.362304688 215.862304688 562.404296875 187.1484375 562.404296875 c 0
 153.584960938 562.404296875 128.951171875 536.96484375 128.951171875 509.83984375 c 0
 128.951171875 473.203125 163.583984375 456.8046875 163.583984375 456.8046875 c 1
 114.744140625 383.099609375 l 1
 114.744140625 383.099609375 30 418.229492188 30 512.50390625 c 0
 30 610.2265625 112.53125 654.4140625 183.537109375 654.4140625 c 0xe4
112.00390625 56.2900390625 m 0xd0
 112.00390625 97.650390625 145.533203125 131.178710938 186.892578125 131.178710938 c 0
 228.251953125 131.178710938 261.78125 97.650390625 261.78125 56.2900390625 c 0
 261.78125 14.9306640625 228.251953125 -18.59765625 186.892578125 -18.59765625 c 0
 145.533203125 -18.59765625 112.00390625 14.9306640625 112.00390625 56.2900390625 c 0xd0
EndSplineSet
EndChar

StartChar: asciicircum
Encoding: 94 94 87
Width: 425
Flags: W
HStem: 435.722 214.084
LayerCount: 2
Fore
SplineSet
211.9453125 649.805664062 m 0
 281.443359375 649.805664062 318.380859375 610.147460938 336.553710938 568.475585938 c 0
 385.172851562 456.9921875 393.395507812 438.27734375 394.5390625 435.721679688 c 1
 261.814453125 435.721679688 l 1
 211.9453125 547.209960938 l 1
 162.608398438 435.721679688 l 1
 30.1982421875 435.721679688 l 1
 31.4462890625 438.27734375 39.814453125 456.9921875 87.83984375 568.475585938 c 0
 105.825195312 610.228515625 142.447265625 649.805664062 211.9453125 649.805664062 c 0
30.1982421875 435.721679688 m 1
 30.12109375 435.721679688 l 1
 30.12109375 435.721679688 29.802734375 434.913085938 30.1982421875 435.721679688 c 1
394.5390625 435.721679688 m 1
 394.901367188 434.913085938 394.5546875 435.721679688 394.5546875 435.721679688 c 1
 394.5390625 435.721679688 l 1
EndSplineSet
EndChar

StartChar: acircumflex
Encoding: 226 226 88
Width: 497
Flags: HW
HStem: 0 117.5<179.714 266.035> 321.5 114.222<175.407 322.318>
VStem: 15 120.535<156.261 285.675> 322.318 129.986<0 321.5>
LayerCount: 2
Fore
SplineSet
270.856445312 661.362304688 m 0
 321.282226562 661.362304688 348.08203125 632.587890625 361.267578125 602.352539062 c 2
 361.267578125 602.352539062 403.350585938 506.03125 403.350585938 506.03125 c 1
 307.040039062 506.03125 l 1
 270.856445312 586.922851562 l 1
 235.059570312 506.03125 l 1
 138.987304688 506.03125 l 1
 139.893554688 507.885742188 145.96484375 521.463867188 180.810546875 602.352539062 c 0
 193.860351562 632.646484375 220.431640625 661.362304688 270.856445312 661.362304688 c 0
452.3046875 435.721679688 m 1
 452.3046875 0 l 1
 322.318359375 0 l 1
 322.318359375 321.5 l 1
 267.020507812 321.5 l 2
 168.73046875 321.5 135.53515625 278.6796875 135.53515625 220.732421875 c 0
 135.53515625 144.0234375 197.994140625 117.5 266.03515625 117.5 c 1
 266.03515625 0 l 1
 234.03515625 0 l 2
 114.321289062 0 15 85.408203125 15 212.5 c 0
 15 339.591796875 84.1220703125 435.721679688 243.641601562 435.721679688 c 2
 452.3046875 435.721679688 l 1
138.987304688 506.03125 m 5
 138.931640625 506.03125 l 1
 138.987304688 506.03125 l 5
EndSplineSet
EndChar

StartChar: Acircumflex
Encoding: 194 194 89
Width: 563
Flags: HW
HStem: -0.349609 21G<21.5859 152.112 410.739 541.188> 131.406 96.4531<264.753 343.14> 573.084 20G<240.652 320.197> 627 21G<147.722 252.644 306.828 412.085>
LayerCount: 2
Fore
SplineSet
281.270507812 782.331054688 m 1
 331.696289062 782.331054688 358.47564163 753.547713281 371.681640625 723.321289062 c 4
 413.764648438 627 413.764648438 627 413.764648438 627 c 1
 317.454101562 627 l 1
 281.270507812 707.891601562 l 1
 245.473632812 627 l 1
 149.345703125 627 l 1
 149.345703125 627 149.345703125 627 191.224609375 723.321289062 c 4
 204.376674842 753.570978299 230.845703125 782.331054688 281.270507812 782.331054688 c 1
280.6171875 579.083984375 m 0
 360.161132812 579.083984375 384.296875 498.544921875 384.296875 498.544921875 c 1
 543.181640625 0 l 1
 406.77734375 0 l 1
 371.947265625 117.40625 l 1
 243.767578125 117.40625 l 1
 270.9453125 213.859375 l 1
 343.33203125 213.859375 l 1
 280.6171875 425.259765625 l 1
 156.39453125 0 l 1
 20 0 l 1
 176.939453125 498.544921875 l 1
 176.939453125 498.544921875 201.072265625 579.083984375 280.6171875 579.083984375 c 0
EndSplineSet
EndChar

StartChar: Ecircumflex
Encoding: 202 202 90
Width: 391
Flags: HW
HStem: 0.22168 132.936<162.936 361.125> 214.53 132.938<162.936 316.568> 435.722 132.936<162.936 361.125> 627 21G<62.9307 167.854 222.037 327.294>
VStem: 30 331.127<0.22168 133.157 435.722 568.657> 30 132.936<133.157 214.53 347.468 435.722>
LayerCount: 2
Fore
SplineSet
30 568.657226562 m 1xf8
 361.126953125 568.657226562 l 1xf8
 361.125 435.721679688 l 1
 162.935546875 435.721679688 l 1
 162.935546875 347.467773438 l 1
 316.568359375 347.467773438 l 1
 316.568359375 214.530273438 l 1
 162.935546875 214.530273438 l 1
 162.935546875 133.157226562 l 1xf4
 361.125 133.157226562 l 1
 361.126953125 0.2216796875 l 1
 30 0.2216796875 l 1
 30 568.657226562 l 1xf8
194.799804688 782.331054688 m 0
 245.225585938 782.331054688 272.025390625 753.556640625 285.2109375 723.321289062 c 2
 285.2109375 723.321289062 327.293945312 627 327.293945312 627 c 1
 230.983398438 627 l 1
 194.799804688 707.891601562 l 1
 159.002929688 627 l 1
 62.9306640625 627 l 5
 63.8369140625 628.854492188 69.9091796875 642.43359375 104.75390625 723.321289062 c 0
 117.803710938 753.615234375 144.375 782.331054688 194.799804688 782.331054688 c 0
62.9306640625 627 m 1
 62.875 627 l 1
 62.9306640625 627 l 1
EndSplineSet
EndChar

StartChar: ecircumflex
Encoding: 234 234 91
Width: 462
Flags: HW
HStem: -6.67188 111.672<178.982 362.812> 169.143 76.3574<201.476 324.841> 322.5 122.45<170.175 297.964>
VStem: 15 115.841<149.101 284.498>
LayerCount: 2
Fore
SplineSet
233.685546875 662.189453125 m 0
 284.111328125 662.189453125 310.911132812 633.415039062 324.096679688 603.1796875 c 2
 324.096679688 603.1796875 366.180664062 506.858398438 366.180664062 506.858398438 c 1
 269.869140625 506.858398438 l 1
 233.685546875 587.75 l 1
 197.888671875 506.858398438 l 1
 101.81640625 506.858398438 l 5
 102.72265625 508.712890625 108.794921875 522.291992188 143.639648438 603.1796875 c 0
 156.689453125 633.473632812 183.260742188 662.189453125 233.685546875 662.189453125 c 0
445.627929688 169.142578125 m 1
 387.79296875 169.142578125 201.340820312 169 201.340820312 169 c 1
 201.340820312 245.5 l 1
 324.840820312 245.5 l 1
 327.534179688 280.965820312 297.86328125 322.5 232.840820312 322.5 c 0
 192.032226562 322.5 130.840820312 298.615234375 130.840820312 213 c 0
 130.840820312 130.951171875 203.004882812 105 263.840820312 105 c 0
 327.44140625 105 362.840820312 111.616210938 362.840820312 111.616210938 c 1
 362.840820312 0 l 1
 362.840820312 0 318.125 -6.671875 265.866210938 -6.671875 c 0
 81.5634765625 -6.671875 15 106.850585938 15 213.983398438 c 0
 15 344.3984375 96.6962890625 444.950195312 230.793945312 444.950195312 c 0
 349.599609375 444.950195312 462.627929688 384.07421875 445.627929688 169.142578125 c 1
101.81640625 506.858398438 m 1
 101.760742188 506.858398438 l 1
 101.81640625 506.858398438 l 1
EndSplineSet
EndChar

StartChar: Icircumflex
Encoding: 206 206 92
Width: 285
Flags: HW
HStem: 0 21G<77.6291 210.565> 548.658 20G<77.6291 210.565> 627 21G<10.636 115.558 169.742 274.999>
VStem: 77.6291 132.937<0 568.658>
LayerCount: 2
Fore
SplineSet
77.6298828125 0 m 1
 77.6298828125 568.658203125 l 1
 210.56640625 568.658203125 l 1
 210.56640625 0 l 1
 77.6298828125 0 l 1
142.505859375 782.331054688 m 0
 192.931640625 782.331054688 219.731445312 753.556640625 232.916992188 723.321289062 c 2
 232.916992188 723.321289062 275 627 275 627 c 1
 178.689453125 627 l 1
 142.505859375 707.891601562 l 1
 106.708984375 627 l 1
 10.63671875 627 l 1
 11.54296875 628.854492188 17.615234375 642.43359375 52.4599609375 723.321289062 c 0
 65.509765625 753.615234375 92.0810546875 782.331054688 142.505859375 782.331054688 c 0
10.63671875 627 m 1
 10.5810546875 627 l 1
 10.5810546875 627 10.3505859375 626.413085938 10.63671875 627 c 1
EndSplineSet
EndChar

StartChar: Ocircumflex
Encoding: 212 212 93
Width: 612
Flags: HW
LayerCount: 2
Fore
SplineSet
306.107421875 581.158203125 m 0
 466.8828125 581.158203125 597.21484375 448.25390625 597.21484375 284.30859375 c 0
 597.21484375 120.36328125 466.8828125 -12.541015625 306.107421875 -12.541015625 c 0
 145.33203125 -12.541015625 15 120.36328125 15 284.30859375 c 0
 15 448.25390625 145.33203125 581.158203125 306.107421875 581.158203125 c 0
304.974609375 440.04296875 m 0
 218.036132812 440.04296875 147.453125 369.83984375 147.453125 283.37109375 c 0
 147.453125 196.90234375 218.036132812 126.69921875 304.974609375 126.69921875 c 0
 391.913085938 126.69921875 462.49609375 196.90234375 462.49609375 283.37109375 c 0
 462.49609375 369.83984375 391.913085938 440.04296875 304.974609375 440.04296875 c 0
306.107421875 782.331054688 m 0
 356.532226562 782.331054688 383.33203125 753.556640625 396.518554688 723.321289062 c 0
 442.955078125 616.841796875 438.6015625 627 438.6015625 627 c 1
 342.291015625 627 l 1
 306.107421875 707.891601562 l 1
 270.310546875 627 l 1
 174.182617188 627 l 1
 174.182617188 627 170.19140625 616.841796875 216.060546875 723.321289062 c 0
 229.111328125 753.615234375 255.682617188 782.331054688 306.107421875 782.331054688 c 0
EndSplineSet
EndChar

StartChar: Ucircumflex
Encoding: 219 219 94
Width: 507
Flags: HW
HStem: -21.9766 138.56<-81.5779 30.2971> 548.658 20G<-250.298 -113.293 59.3071 196.288> 627 21G<-159.485 -54.5619 -0.377852 104.879>
VStem: -250.298 137.377<149.857 568.423> 59.3071 136.98<148.291 568.658>
LayerCount: 2
Fore
SplineSet
252.682617188 782.331054688 m 1
 303.108398438 782.331054688 329.908203125 753.556640625 343.09375 723.321289062 c 0
 389.530273438 616.841796875 385.176757812 627 385.176757812 627 c 1
 288.866210938 627 l 1
 252.682617188 707.891601562 l 1
 216.885742188 627 l 1
 120.7578125 627 l 1
 120.7578125 627 116.767578125 616.841796875 162.63671875 723.321289062 c 0
 175.686523438 753.615234375 202.2578125 782.331054688 252.682617188 782.331054688 c 1
476.5859375 568.658203125 m 1
 476.5859375 228.720703125 l 2
 476.5859375 59.39453125 382.305664062 -13.9765625 252.044921875 -13.9765625 c 0
 121.783203125 -13.9765625 30 82.443359375 30 218.5234375 c 2
 30 568.422851562 l 1
 166.98046875 568.658203125 l 1
 167.376953125 257.018554688 l 2
 167.376953125 165.15625 196.721679688 124.583007812 253.051757812 124.583007812 c 0
 311.3828125 124.583007812 339.60546875 161.676757812 339.60546875 258.048828125 c 2
 339.60546875 568.658203125 l 1
 476.5859375 568.658203125 l 1
EndSplineSet
EndChar

StartChar: oacute
Encoding: 243 243 95
Width: 476
Flags: HW
HStem: -20.2783 131.127<-61.5252 65.5578> 328.12 129.602<-61.5262 65.5578>
VStem: -236.284 128.586<156.762 284.292> 110.706 125.01<156.762 284.292>
LayerCount: 2
Fore
SplineSet
171.361328125 506.03125 m 1
 261.936523438 669.99609375 l 1
 390.983398438 669.879882812 l 1
 298.640625 506.03125 l 1
 171.361328125 506.03125 l 1
238.1015625 444.638671875 m 1
 361.235351562 444.638671875 461.203125 343.399414062 461.203125 218.701171875 c 0
 461.203125 94.0029296875 361.235351562 -7.236328125 238.1015625 -7.236328125 c 0
 114.96875 -7.236328125 15 94.0029296875 15 218.701171875 c 0
 15 343.399414062 114.96875 444.638671875 238.1015625 444.638671875 c 1
239.791015625 322.120117188 m 1
 182.815429688 322.120117188 136.55859375 276.102539062 136.55859375 219.421875 c 0
 136.559570312 162.741210938 182.81640625 116.724609375 239.791015625 116.723632812 c 0
 296.766601562 116.723632812 343.025390625 162.741210938 343.026367188 219.420898438 c 0
 343.026367188 276.102539062 296.767578125 322.120117188 239.791015625 322.120117188 c 1
EndSplineSet
EndChar

StartChar: icircumflex
Encoding: 238 238 96
Width: 264
Flags: HW
HStem: -0.22168 21G<69.7578 198.723> 415.5 20G<69.7578 197.118>
VStem: 69.7578 129.047<0 435.5>
LayerCount: 2
Fore
SplineSet
197.037109375 435.5 m 1
 198.8046875 -0.2216796875 l 1
 69.7578125 0 l 1
 69.7578125 435.5 l 1
 197.037109375 435.5 l 1
131.924804688 661.362304688 m 0
 182.350585938 661.362304688 209.150390625 632.587890625 222.3359375 602.352539062 c 2
 222.3359375 602.352539062 264.418945312 506.03125 264.418945312 506.03125 c 1
 168.108398438 506.03125 l 1
 131.924804688 586.922851562 l 1
 96.1279296875 506.03125 l 1
 0 506.03125 l 5
 0.90625 507.885742188 7.0341796875 521.463867188 41.87890625 602.352539062 c 0
 54.9287109375 632.646484375 81.5 661.362304688 131.924804688 661.362304688 c 0
0.0556640625 506.03125 m 1
 0 506.03125 l 1
 0 506.03125 0 506.03125 0.0556640625 506.03125 c 1
EndSplineSet
EndChar

StartChar: ucircumflex
Encoding: 251 251 97
Width: 481
Flags: HW
HStem: -21.8477 130.535<-77.4317 29.4303> 415.722 20G<-235.639 -106.555 56.0373 185.084>
VStem: -235.639 129.421<140.035 435.5> 56.0373 129.047<138.559 435.722>
LayerCount: 2
Fore
SplineSet
239.823242188 661.362304688 m 0
 290.249023438 661.362304688 317.048828125 632.587890625 330.234375 602.352539062 c 0
 376.670898438 495.874023438 372.317382812 506.03125 372.317382812 506.03125 c 1
 276.006835938 506.03125 l 1
 239.823242188 586.922851562 l 1
 204.026367188 506.03125 l 1
 107.8984375 506.03125 l 1
 107.8984375 506.03125 103.908203125 495.874023438 149.77734375 602.352539062 c 0
 162.827148438 632.646484375 189.3984375 661.362304688 239.823242188 661.362304688 c 0
450.72265625 435.721679688 m 1
 450.72265625 214.793945312 l 2
 450.72265625 55.2744140625 361.901367188 -13.84765625 239.184570312 -13.84765625 c 0
 116.467773438 -13.84765625 30 76.9892578125 30 205.1875 c 2
 30 435.5 l 1
 159.046875 435.721679688 l 1
 159.420898438 241.453125 l 2
 159.420898438 154.911132812 187.06640625 116.6875 240.133789062 116.6875 c 0
 295.086914062 116.6875 321.67578125 151.633789062 321.67578125 242.423828125 c 2
 321.67578125 435.721679688 l 1
 450.72265625 435.721679688 l 1
EndSplineSet
EndChar

StartChar: asciitilde
Encoding: 126 126 98
Width: 363
Flags: W
HStem: 166.813 95.8047<168.433 322.516> 198.797 95.8213<41.0099 199.571>
VStem: 30 302.785
LayerCount: 2
Fore
SplineSet
332.78515625 196.805664062 m 1xa0
 332.78515625 196.805664062 303.209960938 166.813476562 267.509765625 166.813476562 c 0xa0
 182.759765625 166.813476562 184.290039062 198.796875 102.381835938 198.796875 c 0
 65.212890625 198.796875 30 168.805664062 30 168.805664062 c 1
 30.1533203125 264.618164062 l 1
 30.1533203125 264.618164062 63.70703125 294.618164062 102.259765625 294.618164062 c 0x60
 185.045898438 294.618164062 183.16796875 262.618164062 265.622070312 262.618164062 c 0
 300.806640625 262.618164062 332.78515625 292.618164062 332.78515625 292.618164062 c 1
 332.78515625 196.805664062 l 1xa0
EndSplineSet
EndChar

StartChar: Agrave
Encoding: 192 192 99
Width: 563
Flags: HW
HStem: -0.349609 21G<21.7354 152.261 410.888 541.337> 131.406 96.4531<264.902 343.289> 573.084 20G<240.801 320.346> 627 21G<212.308 350.859>
LayerCount: 2
Fore
SplineSet
348.5390625 627 m 5
 221.259765625 627 l 5
 128.916992188 790.84765625 l 5
 257.963867188 790.963867188 l 5
 348.5390625 627 l 5
280.637695312 579.115234375 m 4
 360.157226562 579.115234375 384.317382812 498.556640625 384.317382812 498.556640625 c 5
 543.196289062 0 l 5
 406.796875 0 l 5
 371.916992188 117.439453125 l 5
 243.7578125 117.439453125 l 5
 270.958007812 213.91796875 l 5
 343.357421875 213.91796875 l 5
 280.637695312 425.27734375 l 5
 156.399414062 0 l 5
 20 0 l 5
 176.958984375 498.556640625 l 5
 176.958984375 498.556640625 201.038085938 579.115234375 280.637695312 579.115234375 c 4
EndSplineSet
EndChar

StartChar: Aacute
Encoding: 193 193 100
Width: 563
Flags: HW
HStem: -0.349609 21G<23.6152 154.141 412.768 543.217> 131.406 96.4531<266.782 345.169> 573.084 20G<242.681 322.226> 627 21G<213.117 351.668>
LayerCount: 2
Fore
SplineSet
205.796875 627 m 5
 296.372070312 790.963867188 l 5
 425.418945312 790.84765625 l 5
 333.076171875 627 l 5
 205.796875 627 l 5
280.6171875 579.083984375 m 4
 360.161132812 579.083984375 384.296875 498.544921875 384.296875 498.544921875 c 5
 543.181640625 0 l 5
 406.77734375 0 l 5
 371.947265625 117.40625 l 5
 243.767578125 117.40625 l 5
 270.9453125 213.859375 l 5
 343.33203125 213.859375 l 5
 280.6171875 425.259765625 l 5
 156.39453125 0 l 5
 20 0 l 5
 176.939453125 498.544921875 l 5
 176.939453125 498.544921875 201.072265625 579.083984375 280.6171875 579.083984375 c 4
EndSplineSet
EndChar

StartChar: Atilde
Encoding: 195 195 101
Width: 563
Flags: HW
HStem: -0.349609 21G<21.9639 152.49 411.117 541.566> 131.406 96.4531<265.131 343.518> 573.084 20G<241.03 320.575> 619.008 95.8057<273.924 412.795> 650.991 95.8223<153.384 295.328>
LayerCount: 2
Fore
SplineSet
422.1484375 651 m 5
 422.1484375 651.000976562 l 5
 422.1484375 651.000976562 391.307617188 619.0078125 357.775390625 619.0078125 c 4
 275.670898438 619.0078125 279.73046875 650.991210938 206.794921875 650.991210938 c 4
 171.8828125 650.991210938 137.747070312 619 137.747070312 619 c 5
 137.891601562 714.813476562 l 5
 137.891601562 714.813476562 172.469726562 746.813476562 208.680664062 746.813476562 c 4
 286.439453125 746.813476562 286.0546875 714.813476562 360.001953125 714.813476562 c 4
 393.05078125 714.813476562 422.1484375 746.813476562 422.1484375 746.813476562 c 5
 422.1484375 651 l 5
280.637695312 579.115234375 m 6
 360.157226562 579.115234375 384.317382812 498.556640625 384.317382812 498.556640625 c 5
 543.196289062 0 l 5
 406.796875 0 l 5
 371.916992188 117.439453125 l 5
 243.7578125 117.439453125 l 5
 270.958007812 213.91796875 l 5
 343.357421875 213.91796875 l 5
 280.637695312 425.27734375 l 5
 156.3984375 0 l 5
 20 0 l 5
 176.958984375 498.556640625 l 5
 176.958984375 498.556640625 201.038085938 579.115234375 280.637695312 579.115234375 c 6
EndSplineSet
EndChar

StartChar: Adieresis
Encoding: 196 196 102
Width: 563
Flags: HW
HStem: -0.349609 21G<21.8936 152.42 411.047 541.496> 131.406 96.4531<265.061 343.448> 573.084 20G<240.96 320.505> 617.964 123.612<96.9947 190.465 361.719 455.188>
VStem: 81.9239 123.612<633.036 726.504> 346.647 123.612<632.843 726.312>
LayerCount: 2
Fore
SplineSet
148.409179688 741.576171875 m 4
 182.543945312 741.576171875 210.215820312 713.904296875 210.215820312 679.76953125 c 4
 210.215820312 645.635742188 182.543945312 617.963867188 148.409179688 617.963867188 c 4
 114.274414062 617.963867188 86.603515625 645.635742188 86.603515625 679.76953125 c 4
 86.603515625 713.904296875 114.274414062 741.576171875 148.409179688 741.576171875 c 4
413.1328125 741.383789062 m 4
 447.267578125 741.383789062 474.938476562 713.712890625 474.938476562 679.578125 c 4
 474.938476562 645.443359375 447.267578125 617.771484375 413.1328125 617.771484375 c 4
 378.998046875 617.771484375 351.326171875 645.443359375 351.326171875 679.578125 c 4
 351.326171875 713.712890625 378.998046875 741.383789062 413.1328125 741.383789062 c 4
280.637695312 579.115234375 m 4
 360.157226562 579.115234375 384.31640625 498.556640625 384.31640625 498.556640625 c 5
 543.1953125 0 l 5
 406.796875 0 l 5
 371.916992188 117.439453125 l 5
 243.7578125 117.439453125 l 5
 270.958007812 213.91796875 l 5
 343.357421875 213.91796875 l 5
 280.637695312 425.27734375 l 5
 156.3984375 0 l 5
 20 0 l 5
 176.958007812 498.556640625 l 5
 176.958007812 498.556640625 201.038085938 579.115234375 280.637695312 579.115234375 c 4
EndSplineSet
EndChar

StartChar: Aring
Encoding: 197 197 103
Width: 563
Flags: HW
HStem: -0.349609 21G<22.0684 152.594 411.221 541.67> 131.406 96.4531<265.235 343.622> 573.084 20G<241.134 320.679> 615.229 56.3125<245.243 319.931> 757.534 55.6807<245.242 319.931>
VStem: 183.915 55.2598<677.461 751.298> 325.637 53.7783<677.461 751.299>
LayerCount: 2
Fore
SplineSet
281.344726562 813.21484375 m 4
 335.331054688 813.21484375 379.095703125 768.893554688 379.095703125 714.221679688 c 4
 379.095703125 659.548828125 335.331054688 615.228515625 281.344726562 615.228515625 c 4
 227.359375 615.228515625 183.594726562 659.548828125 183.594726562 714.221679688 c 4
 183.594726562 768.893554688 227.359375 813.21484375 281.344726562 813.21484375 c 4
282.084960938 757.534179688 m 4
 257.10546875 757.534179688 238.854492188 739.387695312 238.854492188 714.537109375 c 4
 238.85546875 689.686523438 257.10546875 671.541015625 282.084960938 671.541015625 c 4
 307.065429688 671.541015625 325.31640625 689.686523438 325.317382812 714.537109375 c 4
 325.317382812 739.388671875 307.06640625 757.534179688 282.084960938 757.534179688 c 4
280.638671875 579.115234375 m 4
 360.157226562 579.115234375 384.317382812 498.556640625 384.317382812 498.556640625 c 5
 543.196289062 0 l 5
 406.796875 0 l 5
 371.91796875 117.439453125 l 5
 243.758789062 117.439453125 l 5
 270.958007812 213.91796875 l 5
 343.357421875 213.91796875 l 5
 280.637695312 425.27734375 l 5
 156.399414062 0 l 5
 20 0 l 5
 176.958984375 498.556640625 l 5
 176.958984375 498.556640625 201.0390625 579.115234375 280.638671875 579.115234375 c 4
EndSplineSet
EndChar

StartChar: agrave
Encoding: 224 224 104
Width: 497
Flags: HW
HStem: 0 117.5<179.714 266.035> 321.5 114.222<175.407 322.318>
VStem: 15 120.535<156.261 285.675> 322.318 129.986<0 321.5>
LayerCount: 2
Fore
SplineSet
363.694335938 506.03125 m 1
 236.415039062 506.03125 l 1
 144.072265625 669.879882812 l 1
 273.119140625 669.99609375 l 1
 363.694335938 506.03125 l 1
452.3046875 435.721679688 m 1
 452.3046875 0 l 1
 322.318359375 0 l 1
 322.318359375 321.5 l 1
 267.020507812 321.5 l 2
 168.73046875 321.5 135.53515625 278.6796875 135.53515625 220.732421875 c 0
 135.53515625 144.0234375 197.994140625 117.5 266.03515625 117.5 c 1
 266.03515625 0 l 1
 234.03515625 0 l 2
 114.321289062 0 15 85.408203125 15 212.5 c 0
 15 339.591796875 84.1220703125 435.721679688 243.641601562 435.721679688 c 2
 452.3046875 435.721679688 l 1
EndSplineSet
EndChar

StartChar: aacute
Encoding: 225 225 105
Width: 497
Flags: HW
HStem: 0 117.5<179.714 266.035> 321.5 114.222<175.407 322.318>
VStem: 15 120.535<156.261 285.675> 322.318 129.986<0 321.5>
LayerCount: 2
Fore
SplineSet
202.072265625 506.03125 m 1
 292.647460938 669.99609375 l 1
 421.694335938 669.879882812 l 1
 329.350585938 506.03125 l 1
 202.072265625 506.03125 l 1
452.3046875 435.721679688 m 1
 452.3046875 0 l 1
 322.318359375 0 l 1
 322.318359375 321.5 l 1
 267.020507812 321.5 l 2
 168.73046875 321.5 135.53515625 278.6796875 135.53515625 220.732421875 c 0
 135.53515625 144.0234375 197.994140625 117.5 266.03515625 117.5 c 1
 266.03515625 0 l 1
 234.03515625 0 l 2
 114.321289062 0 15 85.408203125 15 212.5 c 0
 15 339.591796875 84.1220703125 435.721679688 243.641601562 435.721679688 c 2
 452.3046875 435.721679688 l 1
EndSplineSet
EndChar

StartChar: atilde
Encoding: 227 227 106
Width: 497
Flags: HW
HStem: 0 117.5<179.714 266.035> 321.5 114.222<175.407 322.318> 531.194 95.8057<247.949 386.82> 563.178 95.8223<127.409 269.353>
VStem: 15 120.535<156.261 285.675> 322.318 129.986<0 321.5>
LayerCount: 2
Fore
SplineSet
398.494140625 563.186523438 m 1xdc
 398.494140625 563.186523438 367.653320312 531.194335938 334.12109375 531.194335938 c 0xec
 252.016601562 531.194335938 256.075195312 563.177734375 183.140625 563.177734375 c 0xdc
 148.228515625 563.177734375 114.092773438 531.186523438 114.092773438 531.186523438 c 1
 114.237304688 627 l 1xec
 114.237304688 627 148.814453125 659 185.025390625 659 c 0xdc
 262.78515625 659 262.399414062 627 336.34765625 627 c 0xec
 369.396484375 627 398.494140625 659 398.494140625 659 c 1
 398.494140625 563.186523438 l 1xdc
452.3046875 435.721679688 m 1
 452.3046875 0 l 1
 322.318359375 0 l 1
 322.318359375 321.5 l 1
 267.020507812 321.5 l 2
 168.73046875 321.5 135.53515625 278.6796875 135.53515625 220.732421875 c 0
 135.53515625 144.0234375 197.994140625 117.5 266.03515625 117.5 c 1
 266.03515625 0 l 1
 234.03515625 0 l 2
 114.321289062 0 15 85.408203125 15 212.5 c 0
 15 339.591796875 84.1220703125 435.721679688 243.641601562 435.721679688 c 2
 452.3046875 435.721679688 l 1
EndSplineSet
EndChar

StartChar: adieresis
Encoding: 228 228 107
Width: 497
Flags: HW
HStem: 0 117.5<179.714 266.035> 321.5 114.222<175.407 322.318> 529.575 123.612<75.6577 169.127 340.381 433.85>
VStem: 15 120.535<156.261 285.675> 60.5859 123.613<544.647 638.116> 325.31 123.612<0 321.5 544.455 637.924>
LayerCount: 2
Fore
SplineSet
387.115234375 652.99609375 m 0xe4
 421.25 652.99609375 448.921875 625.32421875 448.921875 591.189453125 c 0
 448.921875 557.0546875 421.25 529.3828125 387.115234375 529.3828125 c 0
 352.98046875 529.3828125 325.309570312 557.0546875 325.309570312 591.189453125 c 0
 325.309570312 625.32421875 352.98046875 652.99609375 387.115234375 652.99609375 c 0xe4
122.392578125 653.1875 m 0
 156.52734375 653.1875 184.19921875 625.516601562 184.19921875 591.381835938 c 0
 184.19921875 557.247070312 156.52734375 529.575195312 122.392578125 529.575195312 c 0
 88.2578125 529.575195312 60.5859375 557.247070312 60.5859375 591.381835938 c 0xec
 60.5859375 625.516601562 88.2578125 653.1875 122.392578125 653.1875 c 0
452.3046875 435.721679688 m 1
 452.3046875 0 l 1
 322.318359375 0 l 1
 322.318359375 321.5 l 1
 267.020507812 321.5 l 2
 168.73046875 321.5 135.53515625 278.6796875 135.53515625 220.732421875 c 0
 135.53515625 144.0234375 197.994140625 117.5 266.03515625 117.5 c 1
 266.03515625 0 l 1
 234.03515625 0 l 2
 114.321289062 0 15 85.408203125 15 212.5 c 0xf4
 15 339.591796875 84.1220703125 435.721679688 243.641601562 435.721679688 c 2
 452.3046875 435.721679688 l 1
EndSplineSet
EndChar

StartChar: aring
Encoding: 229 229 108
Width: 497
Flags: HW
HStem: 0 117.5<179.714 266.035> 321.5 114.222<175.407 322.318> 501.18 56.3125<227.059 301.748> 643.485 55.6807<227.059 301.748>
VStem: 15 120.535<156.261 285.675> 165.731 55.2598<563.412 637.25> 307.454 53.7783<563.412 637.25> 322.318 129.986<0 321.5>
LayerCount: 2
Fore
SplineSet
264.221679688 643.485351562 m 0xfe
 239.2421875 643.485351562 220.991210938 625.338867188 220.991210938 600.48828125 c 0
 220.9921875 575.637695312 239.2421875 557.4921875 264.221679688 557.4921875 c 0
 289.202148438 557.4921875 307.453125 575.637695312 307.454101562 600.48828125 c 0
 307.454101562 625.33984375 289.203125 643.485351562 264.221679688 643.485351562 c 0xfe
263.481445312 699.166015625 m 0
 317.467773438 699.166015625 361.232421875 654.844726562 361.232421875 600.172851562 c 0
 361.232421875 545.500976562 317.467773438 501.1796875 263.481445312 501.1796875 c 0
 209.49609375 501.1796875 165.731445312 545.500976562 165.731445312 600.172851562 c 0
 165.731445312 654.844726562 209.49609375 699.166015625 263.481445312 699.166015625 c 0
452.3046875 435.721679688 m 1xfd
 452.3046875 0 l 1
 322.318359375 0 l 1
 322.318359375 321.5 l 1
 267.020507812 321.5 l 2
 168.73046875 321.5 135.53515625 278.6796875 135.53515625 220.732421875 c 0
 135.53515625 144.0234375 197.994140625 117.5 266.03515625 117.5 c 1
 266.03515625 0 l 1
 234.03515625 0 l 2
 114.321289062 0 15 85.408203125 15 212.5 c 0
 15 339.591796875 84.1220703125 435.721679688 243.641601562 435.721679688 c 2
 452.3046875 435.721679688 l 1xfd
EndSplineSet
EndChar

StartChar: uni018F
Encoding: 399 399 109
Width: 492
Flags: W
HStem: -27.4502 122.45<179.368 307.156> 172 76.3574<152.49 275.855> 312.5 111.672<114.519 298.349>
VStem: 346.49 115.841<133.002 268.399>
LayerCount: 2
Fore
SplineSet
31.703125 248.357421875 m 1
 89.5380859375 248.357421875 275.990234375 248.5 275.990234375 248.5 c 1
 275.990234375 172 l 1
 152.490234375 172 l 1
 149.796875 136.534179688 179.467773438 95 244.490234375 95 c 0
 285.298828125 95 346.490234375 118.884765625 346.490234375 204.5 c 0
 346.490234375 286.548828125 274.326171875 312.5 213.490234375 312.5 c 0
 149.889648438 312.5 114.490234375 305.883789062 114.490234375 305.883789062 c 1
 114.490234375 417.5 l 1
 114.490234375 417.5 159.206054688 424.171875 211.46484375 424.171875 c 0
 395.767578125 424.171875 462.331054688 310.649414062 462.331054688 203.516601562 c 0
 462.331054688 73.1015625 380.634765625 -27.4501953125 246.537109375 -27.4501953125 c 0
 127.731445312 -27.4501953125 14.703125 33.42578125 31.703125 248.357421875 c 1
EndSplineSet
EndChar

StartChar: asterisk
Encoding: 42 42 110
Width: 369
Flags: W
HStem: 265.873 302.785
VStem: 137.023 94.5<493.011 568.658>
LayerCount: 2
Fore
SplineSet
232.8359375 265.873046875 m 1
 137.0234375 266.025390625 l 1
 141.0234375 341.560546875 l 1
 77.7734375 300.080078125 l 1
 30 383.134765625 l 1
 97.8671875 417.69921875 l 1
 30 452.609375 l 1
 77.25 534.44921875 l 1
 141.0234375 493.010742188 l 1
 137.0234375 568.658203125 l 1
 231.5234375 568.658203125 l 1
 227.822265625 492.727539062 l 1
 292.0859375 534.44921875 l 1
 339.3359375 452.609375 l 1
 271.46875 417.69921875 l 1
 339.3359375 383.134765625 l 1
 291.564453125 300.080078125 l 1
 228.5390625 341.427734375 l 1
 232.8359375 265.873046875 l 1
EndSplineSet
EndChar

StartChar: Egrave
Encoding: 200 200 111
Width: 391
Flags: W
HStem: 0 132.936<162.936 361.125> 214.309 132.938<162.936 316.568> 435.5 132.936<162.936 361.125> 627 21G<148.197 286.748>
VStem: 30 331.127<0 132.936 435.5 568.436> 30 132.936<132.936 214.309 347.246 435.5>
LayerCount: 2
Fore
SplineSet
286.748046875 627 m 1xf0
 159.46875 627 l 1
 67.125 790.84765625 l 1
 196.171875 790.963867188 l 1
 286.748046875 627 l 1xf0
30 568.435546875 m 1xf8
 361.126953125 568.435546875 l 1xf8
 361.125 435.5 l 1
 162.935546875 435.5 l 1
 162.935546875 347.24609375 l 1
 316.568359375 347.24609375 l 1
 316.568359375 214.30859375 l 1
 162.935546875 214.30859375 l 1
 162.935546875 132.935546875 l 1xf4
 361.125 132.935546875 l 1
 361.126953125 0 l 1
 30 0 l 1
 30 568.435546875 l 1xf8
EndSplineSet
EndChar

StartChar: Eacute
Encoding: 201 201 112
Width: 391
Flags: W
HStem: 0 132.936<162.936 361.125> 214.309 132.938<162.936 316.568> 435.5 132.936<162.936 361.125> 627 21G<137.469 276.02>
VStem: 30 331.127<0 132.936 435.5 568.436> 30 132.936<132.936 214.309 347.246 435.5>
LayerCount: 2
Fore
SplineSet
30 568.435546875 m 1xf8
 361.126953125 568.435546875 l 1xf8
 361.125 435.5 l 1
 162.935546875 435.5 l 1
 162.935546875 347.24609375 l 1
 316.568359375 347.24609375 l 1
 316.568359375 214.30859375 l 1
 162.935546875 214.30859375 l 1
 162.935546875 132.935546875 l 1xf4
 361.125 132.935546875 l 1
 361.126953125 0 l 1
 30 0 l 1
 30 568.435546875 l 1xf8
137.46875 627 m 1
 228.043945312 790.963867188 l 1
 357.090820312 790.84765625 l 1
 264.748046875 627 l 1
 137.46875 627 l 1
EndSplineSet
EndChar

StartChar: Edieresis
Encoding: 203 203 113
Width: 448
Flags: W
HStem: 0.22168 132.936<189.868 388.058> 214.53 132.938<189.868 343.501> 435.722 132.936<189.868 388.058> 617.964 123.612<45.0713 138.541 309.794 403.264>
VStem: 30 123.612<633.036 726.504> 56.9326 331.127<0.22168 133.157 435.722 568.657> 56.9326 132.936<133.157 214.53 347.468 435.722> 294.723 123.612<632.843 726.312>
LayerCount: 2
Fore
SplineSet
56.9326171875 568.657226562 m 1xf4
 388.059570312 568.657226562 l 1xf4
 388.057617188 435.721679688 l 1
 189.868164062 435.721679688 l 1
 189.868164062 347.467773438 l 1
 343.500976562 347.467773438 l 1
 343.500976562 214.530273438 l 1
 189.868164062 214.530273438 l 1
 189.868164062 133.157226562 l 1xf2
 388.057617188 133.157226562 l 1
 388.059570312 0.2216796875 l 1
 56.9326171875 0.2216796875 l 1
 56.9326171875 568.657226562 l 1xf4
356.529296875 741.383789062 m 0
 390.6640625 741.383789062 418.334960938 713.712890625 418.334960938 679.578125 c 0
 418.334960938 645.443359375 390.6640625 617.771484375 356.529296875 617.771484375 c 0
 322.39453125 617.771484375 294.72265625 645.443359375 294.72265625 679.578125 c 0xf1
 294.72265625 713.712890625 322.39453125 741.383789062 356.529296875 741.383789062 c 0
91.8056640625 741.576171875 m 0
 125.940429688 741.576171875 153.612304688 713.904296875 153.612304688 679.76953125 c 0
 153.612304688 645.635742188 125.940429688 617.963867188 91.8056640625 617.963867188 c 0
 57.6708984375 617.963867188 30 645.635742188 30 679.76953125 c 0xf8
 30 713.904296875 57.6708984375 741.576171875 91.8056640625 741.576171875 c 0
EndSplineSet
EndChar

StartChar: egrave
Encoding: 232 232 114
Width: 462
Flags: HW
HStem: -6.67188 111.672<178.982 362.813> 169.143 76.3574<201.477 324.842> 322.5 122.45<170.176 297.964>
VStem: 15 115.842<149.101 284.498>
LayerCount: 2
Fore
SplineSet
445.627929688 169.142578125 m 1
 387.793945312 169.142578125 201.341796875 169 201.341796875 169 c 1
 201.341796875 245.5 l 1
 324.841796875 245.5 l 1
 327.53515625 280.965820312 297.864257812 322.5 232.841796875 322.5 c 0
 192.033203125 322.5 130.841796875 298.615234375 130.841796875 213 c 0
 130.841796875 130.951171875 203.005859375 105 263.841796875 105 c 0
 327.442382812 105 362.841796875 111.616210938 362.841796875 111.616210938 c 1
 362.841796875 0 l 1
 362.841796875 0 318.125976562 -6.671875 265.866210938 -6.671875 c 0
 81.5634765625 -6.671875 15 106.850585938 15 213.983398438 c 0
 15 344.3984375 96.697265625 444.950195312 230.793945312 444.950195312 c 0
 349.600585938 444.950195312 462.627929688 384.07421875 445.627929688 169.142578125 c 1
307.62109375 506.03125 m 1
 180.341796875 506.03125 l 1
 87.9990234375 669.879882812 l 1
 217.045898438 669.99609375 l 1
 307.62109375 506.03125 l 1
EndSplineSet
EndChar

StartChar: eacute
Encoding: 233 233 115
Width: 462
Flags: HW
HStem: -6.67188 111.672<178.982 362.813> 169.143 76.3574<201.477 324.842> 322.5 122.45<170.176 297.964>
VStem: 15 115.842<149.101 284.498>
LayerCount: 2
Fore
SplineSet
445.627929688 169.142578125 m 1
 387.793945312 169.142578125 201.341796875 169 201.341796875 169 c 1
 201.341796875 245.5 l 1
 324.841796875 245.5 l 1
 327.53515625 280.965820312 297.864257812 322.5 232.841796875 322.5 c 0
 192.033203125 322.5 130.841796875 298.615234375 130.841796875 213 c 0
 130.841796875 130.951171875 203.005859375 105 263.841796875 105 c 0
 327.442382812 105 362.841796875 111.616210938 362.841796875 111.616210938 c 1
 362.841796875 0 l 1
 362.841796875 0 318.125976562 -6.671875 265.866210938 -6.671875 c 0
 81.5634765625 -6.671875 15 106.850585938 15 213.983398438 c 0
 15 344.3984375 96.697265625 444.950195312 230.793945312 444.950195312 c 0
 349.600585938 444.950195312 462.627929688 384.07421875 445.627929688 169.142578125 c 1
173.999023438 506.03125 m 1
 264.57421875 669.99609375 l 1
 393.62109375 669.879882812 l 1
 301.27734375 506.03125 l 1
 173.999023438 506.03125 l 1
EndSplineSet
EndChar

StartChar: edieresis
Encoding: 235 235 116
Width: 462
Flags: HW
HStem: -6.67188 111.672<178.981 362.812> 169.143 76.3574<201.476 324.841> 322.5 122.45<170.175 297.964> 529.575 123.612<58.351 151.821 323.074 416.543>
VStem: 15 115.841<149.101 284.498> 43.2793 123.613<544.647 638.116> 308.003 123.612<544.455 637.924>
LayerCount: 2
Fore
SplineSet
445.627929688 169.142578125 m 1xfa
 387.79296875 169.142578125 201.340820312 169 201.340820312 169 c 1
 201.340820312 245.5 l 1
 324.840820312 245.5 l 1
 327.534179688 280.965820312 297.86328125 322.5 232.840820312 322.5 c 0
 192.032226562 322.5 130.840820312 298.615234375 130.840820312 213 c 0
 130.840820312 130.951171875 203.004882812 105 263.840820312 105 c 0
 327.44140625 105 362.840820312 111.616210938 362.840820312 111.616210938 c 1
 362.840820312 0 l 1
 362.840820312 0 318.125 -6.671875 265.865234375 -6.671875 c 0
 81.5625 -6.671875 15 106.850585938 15 213.983398438 c 0
 15 344.3984375 96.6962890625 444.950195312 230.793945312 444.950195312 c 0
 349.599609375 444.950195312 462.627929688 384.07421875 445.627929688 169.142578125 c 1xfa
369.80859375 652.99609375 m 0
 403.943359375 652.99609375 431.615234375 625.32421875 431.615234375 591.189453125 c 0
 431.615234375 557.0546875 403.943359375 529.3828125 369.80859375 529.3828125 c 0
 335.673828125 529.3828125 308.002929688 557.0546875 308.002929688 591.189453125 c 0
 308.002929688 625.32421875 335.673828125 652.99609375 369.80859375 652.99609375 c 0
105.0859375 653.1875 m 0
 139.220703125 653.1875 166.892578125 625.516601562 166.892578125 591.381835938 c 0
 166.892578125 557.247070312 139.220703125 529.575195312 105.0859375 529.575195312 c 0
 70.951171875 529.575195312 43.279296875 557.247070312 43.279296875 591.381835938 c 0xf6
 43.279296875 625.516601562 70.951171875 653.1875 105.0859375 653.1875 c 0
EndSplineSet
EndChar

StartChar: bracketleft
Encoding: 91 91 117
Width: 307
Flags: W
HStem: -132.936 132.936<162.936 277.125> 435.723 132.936<162.936 277.125>
VStem: 30 247.127<-132.936 0 435.723 568.658> 30 132.936<0 435.723>
LayerCount: 2
Fore
SplineSet
30 568.658203125 m 1xe0
 277.126953125 568.658203125 l 1xe0
 277.125 435.72265625 l 1
 162.935546875 435.72265625 l 1
 162.935546875 0 l 1xd0
 277.125 0 l 1
 277.126953125 -132.935546875 l 1
 30 -132.935546875 l 1
 30 568.658203125 l 1xe0
EndSplineSet
EndChar

StartChar: bracketright
Encoding: 93 93 118
Width: 307
Flags: W
HStem: -132.936 132.936<30.002 144.191> 435.723 132.936<30.002 144.191>
VStem: 30 247.127<-132.936 0 435.723 568.658> 144.191 132.936<0 435.723>
LayerCount: 2
Fore
SplineSet
277.126953125 568.658203125 m 1xe0
 277.126953125 -132.935546875 l 1
 30 -132.935546875 l 1xe0
 30.001953125 0 l 1
 144.19140625 0 l 1
 144.19140625 435.72265625 l 1xd0
 30.001953125 435.72265625 l 1
 30 568.658203125 l 1
 277.126953125 568.658203125 l 1xe0
EndSplineSet
EndChar

StartChar: parenleft
Encoding: 40 40 119
Width: 307
Flags: W
HStem: -138.936 132.936<194.204 277.125> 441.723 132.936<186.479 277.125>
VStem: 30 132.936<24.2942 416.541>
LayerCount: 2
Fore
SplineSet
236.64453125 574.658203125 m 2
 277.126953125 574.658203125 l 1
 277.125 441.72265625 l 1
 248.505859375 441.72265625 l 2
 176.7265625 441.72265625 162.935546875 404.771484375 162.935546875 303.744140625 c 2
 162.935546875 131.978515625 l 2
 162.935546875 30.951171875 182.959960938 -6 248.505859375 -6 c 2
 277.125 -6 l 1
 277.126953125 -138.935546875 l 1
 236.64453125 -138.935546875 l 2
 41.5791015625 -138.935546875 30 -19.1064453125 30 92.00390625 c 2
 30 343.71875 l 2
 30 454.829101562 41.5791015625 574.658203125 236.64453125 574.658203125 c 2
EndSplineSet
EndChar

StartChar: parenright
Encoding: 41 41 120
Width: 307
Flags: W
HStem: -138.936 132.936<30.002 112.923> 441.723 132.936<30.002 120.648>
VStem: 144.191 132.936<24.2942 416.541>
LayerCount: 2
Fore
SplineSet
70.482421875 574.658203125 m 2
 265.547851562 574.658203125 277.126953125 454.829101562 277.126953125 343.71875 c 2
 277.126953125 92.00390625 l 2
 277.126953125 -19.1064453125 265.547851562 -138.935546875 70.482421875 -138.935546875 c 2
 30 -138.935546875 l 1
 30.001953125 -6 l 1
 58.62109375 -6 l 2
 124.166992188 -6 144.19140625 30.951171875 144.19140625 131.978515625 c 2
 144.19140625 303.744140625 l 2
 144.19140625 404.771484375 130.400390625 441.72265625 58.62109375 441.72265625 c 2
 30.001953125 441.72265625 l 1
 30 574.658203125 l 1
 70.482421875 574.658203125 l 2
EndSplineSet
EndChar

StartChar: braceleft
Encoding: 123 123 121
Width: 406
Flags: W
HStem: -138.936 132.936<293.268 376.189> 441.723 132.936<285.543 376.189>
VStem: 129.064 132.936<24.2942 157.352 281.488 416.541>
LayerCount: 2
Fore
SplineSet
335.708984375 574.658203125 m 2
 376.19140625 574.658203125 l 1
 376.189453125 441.72265625 l 1
 347.5703125 441.72265625 l 2
 275.791015625 441.72265625 262 404.771484375 262 303.744140625 c 0
 262 271.544921875 234.875976562 240.671875 206 224 c 1
 235.916015625 206.727539062 262 163.798828125 262 131.978515625 c 0
 262 30.951171875 282.024414062 -6 347.5703125 -6 c 2
 376.189453125 -6 l 1
 376.19140625 -138.935546875 l 1
 335.708984375 -138.935546875 l 2
 140.643554688 -138.935546875 129.064453125 -19.1064453125 129.064453125 92.00390625 c 0
 129.064453125 154.654296875 66.578125 212.19921875 30 222 c 1
 65.6240234375 231.545898438 129.064453125 282.139648438 129.064453125 343.71875 c 0
 129.064453125 454.829101562 140.643554688 574.658203125 335.708984375 574.658203125 c 2
EndSplineSet
EndChar

StartChar: braceright
Encoding: 125 125 122
Width: 406
Flags: W
HStem: -138.936 132.936<30.002 112.923> 441.723 132.936<30.002 120.648>
VStem: 144.191 132.936<24.2942 157.352 281.488 416.541>
LayerCount: 2
Fore
SplineSet
70.482421875 574.658203125 m 2
 265.547851562 574.658203125 277.126953125 454.829101562 277.126953125 343.71875 c 0
 277.126953125 282.139648438 340.567382812 231.545898438 376.19140625 222 c 1
 339.61328125 212.19921875 277.126953125 154.654296875 277.126953125 92.00390625 c 0
 277.126953125 -19.1064453125 265.547851562 -138.935546875 70.482421875 -138.935546875 c 2
 30 -138.935546875 l 1
 30.001953125 -6 l 1
 58.62109375 -6 l 2
 124.166992188 -6 144.19140625 30.951171875 144.19140625 131.978515625 c 0
 144.19140625 163.798828125 170.275390625 206.727539062 200.19140625 224 c 1
 171.315429688 240.671875 144.19140625 271.544921875 144.19140625 303.744140625 c 0
 144.19140625 404.771484375 130.400390625 441.72265625 58.62109375 441.72265625 c 2
 30.001953125 441.72265625 l 1
 30 574.658203125 l 1
 70.482421875 574.658203125 l 2
EndSplineSet
EndChar

StartChar: bar
Encoding: 124 124 123
Width: 189
Flags: W
HStem: 607 20G<30 157.323>
VStem: 30 129.047<-184.713 627>
LayerCount: 2
Fore
SplineSet
157.279296875 627 m 1
 159.046875 -185 l 1
 30 -184.712890625 l 1
 30 627 l 1
 157.279296875 627 l 1
EndSplineSet
EndChar

StartChar: ocircumflex
Encoding: 244 244 124
Width: 476
Flags: HW
HStem: -20.2783 131.127<-61.5252 65.5578> 328.12 129.602<-61.5262 65.5578>
VStem: -236.284 128.586<156.762 284.292> 110.706 125.01<156.762 284.292>
LayerCount: 2
Fore
SplineSet
239.177734375 661.362304688 m 0
 289.603515625 661.362304688 316.403320312 632.587890625 329.588867188 602.352539062 c 0
 376.025390625 495.874023438 371.671875 506.03125 371.671875 506.03125 c 1
 275.361328125 506.03125 l 1
 239.177734375 586.922851562 l 1
 203.380859375 506.03125 l 1
 107.252929688 506.03125 l 1
 107.252929688 506.03125 103.262695312 495.874023438 149.131835938 602.352539062 c 0
 162.181640625 632.646484375 188.752929688 661.362304688 239.177734375 661.362304688 c 0
238.1015625 444.638671875 m 1
 361.235351562 444.638671875 461.203125 343.399414062 461.203125 218.701171875 c 0
 461.203125 94.0029296875 361.235351562 -7.236328125 238.1015625 -7.236328125 c 0
 114.96875 -7.236328125 15 94.0029296875 15 218.701171875 c 0
 15 343.399414062 114.96875 444.638671875 238.1015625 444.638671875 c 1
239.791015625 322.120117188 m 1
 182.815429688 322.120117188 136.55859375 276.102539062 136.55859375 219.421875 c 0
 136.559570312 162.741210938 182.81640625 116.724609375 239.791015625 116.723632812 c 0
 296.766601562 116.723632812 343.025390625 162.741210938 343.026367188 219.420898438 c 0
 343.026367188 276.102539062 296.767578125 322.120117188 239.791015625 322.120117188 c 1
EndSplineSet
EndChar

StartChar: otilde
Encoding: 245 245 125
Width: 476
Flags: HW
HStem: -20.2783 131.127<-61.5252 65.5578> 328.12 129.602<-61.5262 65.5578> 530.665 95.8057<-6.1542 132.717> 562.649 95.8213<-126.694 15.2498>
VStem: -236.284 128.586<156.762 284.292> 110.706 125.01<156.762 284.292>
LayerCount: 2
Fore
SplineSet
382.678710938 562.658203125 m 1
 382.678710938 562.658203125 351.837890625 530.665039062 318.305664062 530.665039062 c 0
 236.201171875 530.665039062 240.260742188 562.649414062 167.325195312 562.649414062 c 0
 132.4140625 562.649414062 98.27734375 530.658203125 98.27734375 530.658203125 c 1
 98.421875 626.470703125 l 1
 98.421875 626.470703125 133 658.470703125 169.2109375 658.470703125 c 0
 246.970703125 658.470703125 246.584960938 626.470703125 320.532226562 626.470703125 c 0
 353.581054688 626.470703125 382.678710938 658.470703125 382.678710938 658.470703125 c 1
 382.678710938 562.658203125 l 1
238.1015625 444.638671875 m 1
 361.235351562 444.638671875 461.203125 343.399414062 461.203125 218.701171875 c 0
 461.203125 94.0029296875 361.235351562 -7.236328125 238.1015625 -7.236328125 c 0
 114.96875 -7.236328125 15 94.0029296875 15 218.701171875 c 0
 15 343.399414062 114.96875 444.638671875 238.1015625 444.638671875 c 1
239.791015625 322.120117188 m 1
 182.815429688 322.120117188 136.55859375 276.102539062 136.55859375 219.421875 c 0
 136.559570312 162.741210938 182.81640625 116.724609375 239.791015625 116.723632812 c 0
 296.766601562 116.723632812 343.025390625 162.741210938 343.026367188 219.420898438 c 0
 343.026367188 276.102539062 296.767578125 322.120117188 239.791015625 322.120117188 c 1
EndSplineSet
EndChar

StartChar: odieresis
Encoding: 246 246 126
Width: 476
Flags: HW
HStem: -19.998 131.119<-46.2477 80.8793> 328.399 129.599<-46.2477 80.8793> 529.575 123.612<-163.708 -70.2378 101.015 194.485>
VStem: -220.969 128.559<157.009 284.577> -178.779 123.613<544.647 638.116> 85.9443 123.612<544.455 637.924> 125.988 125.039<157.009 284.577>
LayerCount: 2
Fore
SplineSet
106.029296875 653.1875 m 0
 140.1640625 653.1875 167.8359375 625.516601562 167.8359375 591.381835938 c 0
 167.8359375 557.247070312 140.1640625 529.575195312 106.029296875 529.575195312 c 0
 71.89453125 529.575195312 44.22265625 557.247070312 44.22265625 591.381835938 c 0
 44.22265625 625.516601562 71.89453125 653.1875 106.029296875 653.1875 c 0
370.751953125 652.99609375 m 0
 404.88671875 652.99609375 432.55859375 625.32421875 432.55859375 591.189453125 c 0
 432.55859375 557.0546875 404.88671875 529.3828125 370.751953125 529.3828125 c 0
 336.6171875 529.3828125 308.946289062 557.0546875 308.946289062 591.189453125 c 0
 308.946289062 625.32421875 336.6171875 652.99609375 370.751953125 652.99609375 c 0
238.1015625 444.916992188 m 0
 361.234375 444.916992188 461.203125 343.677734375 461.203125 218.979492188 c 0
 461.203125 94.28125 361.234375 -6.9580078125 238.1015625 -6.9580078125 c 0
 114.96875 -6.9580078125 15 94.28125 15 218.979492188 c 0
 15 343.677734375 114.96875 444.916992188 238.1015625 444.916992188 c 0
239.791015625 322.399414062 m 0
 182.815429688 322.3984375 136.55859375 276.380859375 136.55859375 219.700195312 c 0
 136.559570312 163.01953125 182.81640625 117.002929688 239.791015625 117.002929688 c 0
 296.766601562 117.002929688 343.025390625 163.01953125 343.025390625 219.700195312 c 0
 343.025390625 276.380859375 296.767578125 322.399414062 239.791015625 322.399414062 c 0
EndSplineSet
EndChar

StartChar: ograve
Encoding: 242 242 127
Width: 476
Flags: HW
HStem: -20.2783 131.127<-61.5252 65.5578> 328.12 129.602<-61.5262 65.5578>
VStem: -236.284 128.586<156.762 284.292> 110.706 125.01<156.762 284.292>
LayerCount: 2
Fore
SplineSet
318.983398438 506.03125 m 1
 191.704101562 506.03125 l 1
 99.361328125 669.879882812 l 1
 228.408203125 669.99609375 l 1
 318.983398438 506.03125 l 1
238.1015625 444.638671875 m 1
 361.235351562 444.638671875 461.203125 343.399414062 461.203125 218.701171875 c 0
 461.203125 94.0029296875 361.235351562 -7.236328125 238.1015625 -7.236328125 c 0
 114.96875 -7.236328125 15 94.0029296875 15 218.701171875 c 0
 15 343.399414062 114.96875 444.638671875 238.1015625 444.638671875 c 1
239.791015625 322.120117188 m 1
 182.815429688 322.120117188 136.55859375 276.102539062 136.55859375 219.421875 c 0
 136.559570312 162.741210938 182.81640625 116.724609375 239.791015625 116.723632812 c 0
 296.766601562 116.723632812 343.025390625 162.741210938 343.026367188 219.420898438 c 0
 343.026367188 276.102539062 296.767578125 322.120117188 239.791015625 322.120117188 c 1
EndSplineSet
EndChar

StartChar: Ntilde
Encoding: 209 209 128
Width: 491
Flags: HW
LayerCount: 2
Fore
SplineSet
366.841796875 651 m 1
 366.841796875 651.000976562 l 1
 366.841796875 651.000976562 336.000976562 619.0078125 302.46875 619.0078125 c 0
 220.364257812 619.0078125 224.423828125 650.991210938 151.48828125 650.991210938 c 0
 116.576171875 650.991210938 82.4404296875 619 82.4404296875 619 c 1
 82.5849609375 714.8125 l 1
 82.5849609375 714.8125 117.162109375 746.8125 153.374023438 746.8125 c 0
 231.1328125 746.8125 230.748046875 714.8125 304.6953125 714.8125 c 0
 337.744140625 714.8125 366.841796875 746.8125 366.841796875 746.8125 c 1
 366.841796875 651 l 1
248.04296875 568.669921875 m 0
 408.291015625 568.669921875 461.72265625 467.248046875 461.72265625 357.653320312 c 2
 461.72265625 0 l 1
 328.67578125 0 l 1
 328.67578125 334.3984375 l 2
 328.67578125 413.188476562 284.01953125 435.721679688 219.384765625 435.721679688 c 2
 164.296875 435.721679688 l 1
 162.046875 0 l 1
 29 0.22265625 l 1
 29 568.658203125 l 1
 29 568.658203125 160.8359375 568.669921875 248.04296875 568.669921875 c 0
EndSplineSet
EndChar

StartChar: ntilde
Encoding: 241 241 129
Width: 480
Flags: HW
HStem: 0 21G<-218.639 -89.5547 73.0373 202.084> 327.034 130.535<-60.4317 46.4303> 531.194 95.8057<-13.7227 125.148> 563.178 95.8223<-134.263 7.68133>
VStem: -218.639 129.047<0.22168 295.687> 73.0373 129.047<0 297.163>
LayerCount: 2
Fore
SplineSet
384.4609375 563.186523438 m 1
 384.4609375 563.1875 l 1
 384.4609375 563.1875 353.620117188 531.194335938 320.087890625 531.194335938 c 0
 237.983398438 531.194335938 242.041992188 563.177734375 169.107421875 563.177734375 c 0
 134.1953125 563.177734375 100.059570312 531.186523438 100.059570312 531.186523438 c 1
 100.204101562 627 l 1
 100.204101562 627 134.78125 659 170.9921875 659 c 0
 248.751953125 659 248.366210938 627 322.314453125 627 c 0
 355.36328125 627 384.4609375 659 384.4609375 659 c 1
 384.4609375 563.186523438 l 1
449.72265625 0 m 1
 320.67578125 0 l 1
 320.67578125 193.298828125 l 2
 320.67578125 284.088867188 294.086914062 319.034179688 239.133789062 319.034179688 c 0
 186.06640625 319.034179688 158.420898438 280.810546875 158.420898438 194.26953125 c 2
 158.046875 0 l 1
 29 0.2216796875 l 1
 29 230.534179688 l 2
 29 358.733398438 115.467773438 449.569335938 238.184570312 449.569335938 c 0
 360.90234375 449.569335938 449.72265625 380.447265625 449.72265625 220.927734375 c 2
 449.72265625 0 l 1
EndSplineSet
EndChar

StartChar: ampersand
Encoding: 38 38 130
Width: 602
Flags: HW
HStem: 0 21G<396.616 575.326>
VStem: 121.548 280.965<526.762 636.137>
LayerCount: 2
Fore
SplineSet
216.5703125 634.530273438 m 0
 320.64453125 634.530273438 367.41796875 560.158203125 367.41796875 506.432617188 c 0
 367.41796875 453.325195312 352.607421875 427.314453125 322.990234375 392.235351562 c 2
 208.1640625 256.234375 l 2
 169.866210938 210.874023438 126.400390625 160.791015625 171.30859375 121.3203125 c 0
 191.028320312 103.98828125 238.904296875 104.783203125 268.397460938 139.4375 c 2
 425.89453125 324.5 l 1
 577 324.5 l 1
 440.466796875 157.830078125 l 1
 577 0 l 1
 415 0 l 1
 361.869140625 63.591796875 l 1
 313.774414062 14.4990234375 279.9140625 -13.03125 205.921875 -13.03125 c 0
 120.603515625 -13.03125 25.771484375 39.94921875 25.771484375 149.58203125 c 0
 25.771484375 208.77734375 58.837890625 246.49609375 119.224609375 322.6171875 c 2
 236.326171875 464.524414062 l 2
 248.571289062 478.220703125 267.590820312 504.858398438 244.569335938 523.704101562 c 0
 226.1171875 538.809570312 204.611328125 532.546875 187.623046875 512.002929688 c 2
 119.22265625 430.418945312 l 1
 107.779296875 435.721679688 76.453125 470.303710938 76.453125 510.432617188 c 0
 76.453125 581.092773438 132.3515625 634.530273438 216.5703125 634.530273438 c 0
EndSplineSet
EndChar

StartChar: Igrave
Encoding: 204 204 131
Width: 228
Flags: HW
HStem: 0 21G<65.343 198.279> 548.658 20G<65.343 198.279> 627 21G<56.071 194.622>
VStem: 65.343 132.937<0 568.658>
LayerCount: 2
Fore
SplineSet
194.622070312 627 m 1
 67.3427734375 627 l 1
 -25 790.84765625 l 1
 104.046875 790.963867188 l 1
 194.622070312 627 l 1
65.3427734375 0 m 1
 65.3427734375 568.658203125 l 1
 198.279296875 568.658203125 l 1
 198.279296875 0 l 1
 65.3427734375 0 l 1
EndSplineSet
EndChar

StartChar: Iacute
Encoding: 205 205 132
Width: 228
Flags: HW
HStem: 0 21G<29.721 162.658> 548.658 20G<29.721 162.658> 627 21G<33.3782 171.929>
VStem: 29.721 132.937<0 568.658>
LayerCount: 2
Fore
SplineSet
33.3779296875 627 m 1
 123.953125 790.963867188 l 1
 253 790.84765625 l 1
 160.657226562 627 l 1
 33.3779296875 627 l 1
29.720703125 0 m 1
 29.720703125 568.658203125 l 1
 162.657226562 568.658203125 l 1
 162.657226562 0 l 1
 29.720703125 0 l 1
EndSplineSet
EndChar

StartChar: Idieresis
Encoding: 207 207 133
Width: 374
Flags: HW
HStem: 0 21G<120.19 253.126> 548.658 20G<120.19 253.126> 617.964 123.612<7.73579 101.205 272.458 365.928>
VStem: -7.33547 123.612<633.036 726.504> 120.19 132.936<0 568.658> 257.387 123.612<632.843 726.312>
LayerCount: 2
Fore
SplineSet
120.19140625 0 m 1
 120.19140625 568.658203125 l 1
 253.126953125 568.658203125 l 1
 253.126953125 0 l 1
 120.19140625 0 l 1
319.194335938 741.383789062 m 0
 353.329101562 741.383789062 381 713.712890625 381 679.578125 c 0
 381 645.443359375 353.329101562 617.771484375 319.194335938 617.771484375 c 0
 285.059570312 617.771484375 257.387695312 645.443359375 257.387695312 679.578125 c 0
 257.387695312 713.712890625 285.059570312 741.383789062 319.194335938 741.383789062 c 0
54.470703125 741.576171875 m 0
 88.60546875 741.576171875 116.27734375 713.904296875 116.27734375 679.76953125 c 0
 116.27734375 645.635742188 88.60546875 617.963867188 54.470703125 617.963867188 c 0
 20.3359375 617.963867188 -7.3349609375 645.635742188 -7.3349609375 679.76953125 c 0
 -7.3349609375 713.904296875 20.3359375 741.576171875 54.470703125 741.576171875 c 0
EndSplineSet
EndChar

StartChar: Ograve
Encoding: 210 210 134
Width: 612
Flags: HW
LayerCount: 2
Fore
SplineSet
306.107421875 581.158203125 m 0
 466.8828125 581.158203125 597.21484375 448.25390625 597.21484375 284.30859375 c 0
 597.21484375 120.36328125 466.8828125 -12.541015625 306.107421875 -12.541015625 c 0
 145.33203125 -12.541015625 15 120.36328125 15 284.30859375 c 0
 15 448.25390625 145.33203125 581.158203125 306.107421875 581.158203125 c 0
304.974609375 440.04296875 m 0
 218.036132812 440.04296875 147.453125 369.83984375 147.453125 283.37109375 c 0
 147.453125 196.90234375 218.036132812 126.69921875 304.974609375 126.69921875 c 0
 391.913085938 126.69921875 462.49609375 196.90234375 462.49609375 283.37109375 c 0
 462.49609375 369.83984375 391.913085938 440.04296875 304.974609375 440.04296875 c 0
383.073242188 627 m 1
 255.793945312 627 l 1
 163.451171875 790.84765625 l 1
 292.498046875 790.963867188 l 1
 383.073242188 627 l 1
EndSplineSet
EndChar

StartChar: Oacute
Encoding: 211 211 135
Width: 612
Flags: HW
LayerCount: 2
Fore
SplineSet
306.107421875 581.158203125 m 0
 466.8828125 581.158203125 597.21484375 448.25390625 597.21484375 284.30859375 c 0
 597.21484375 120.36328125 466.8828125 -12.541015625 306.107421875 -12.541015625 c 0
 145.33203125 -12.541015625 15 120.36328125 15 284.30859375 c 0
 15 448.25390625 145.33203125 581.158203125 306.107421875 581.158203125 c 0
304.974609375 440.04296875 m 0
 218.036132812 440.04296875 147.453125 369.83984375 147.453125 283.37109375 c 0
 147.453125 196.90234375 218.036132812 126.69921875 304.974609375 126.69921875 c 0
 391.913085938 126.69921875 462.49609375 196.90234375 462.49609375 283.37109375 c 0
 462.49609375 369.83984375 391.913085938 440.04296875 304.974609375 440.04296875 c 0
249.451171875 627 m 1
 340.026367188 790.963867188 l 1
 469.073242188 790.84765625 l 1
 376.73046875 627 l 1
 249.451171875 627 l 1
EndSplineSet
EndChar

StartChar: Otilde
Encoding: 213 213 136
Width: 612
Flags: HW
LayerCount: 2
Fore
SplineSet
306.107421875 581.158203125 m 0
 466.8828125 581.158203125 597.21484375 448.25390625 597.21484375 284.30859375 c 0
 597.21484375 120.36328125 466.8828125 -12.541015625 306.107421875 -12.541015625 c 0
 145.33203125 -12.541015625 15 120.36328125 15 284.30859375 c 0
 15 448.25390625 145.33203125 581.158203125 306.107421875 581.158203125 c 0
304.974609375 440.04296875 m 0
 218.036132812 440.04296875 147.453125 369.83984375 147.453125 283.37109375 c 0
 147.453125 196.90234375 218.036132812 126.69921875 304.974609375 126.69921875 c 0
 391.913085938 126.69921875 462.49609375 196.90234375 462.49609375 283.37109375 c 0
 462.49609375 369.83984375 391.913085938 440.04296875 304.974609375 440.04296875 c 0
454.89453125 650.0625 m 1
 454.89453125 650.063476562 l 1
 454.89453125 650.063476562 424.053710938 618.0703125 390.521484375 618.0703125 c 0
 308.416992188 618.0703125 312.475585938 650.053710938 239.541015625 650.053710938 c 0
 204.62890625 650.053710938 170.493164062 618.0625 170.493164062 618.0625 c 1
 170.637695312 713.875 l 1
 170.637695312 713.875 205.21484375 745.875 241.42578125 745.875 c 0
 319.185546875 745.875 318.799804688 713.875 392.748046875 713.875 c 0
 425.796875 713.875 454.89453125 745.875 454.89453125 745.875 c 1
 454.89453125 650.0625 l 1
EndSplineSet
EndChar

StartChar: Odieresis
Encoding: 214 214 137
Width: 612
Flags: HW
LayerCount: 2
Fore
SplineSet
306.107421875 581.158203125 m 0
 466.8828125 581.158203125 597.21484375 448.25390625 597.21484375 284.30859375 c 0
 597.21484375 120.36328125 466.8828125 -12.541015625 306.107421875 -12.541015625 c 0
 145.33203125 -12.541015625 15 120.36328125 15 284.30859375 c 0
 15 448.25390625 145.33203125 581.158203125 306.107421875 581.158203125 c 0
304.974609375 440.04296875 m 0
 218.036132812 440.04296875 147.453125 369.83984375 147.453125 283.37109375 c 0
 147.453125 196.90234375 218.036132812 126.69921875 304.974609375 126.69921875 c 0
 391.913085938 126.69921875 462.49609375 196.90234375 462.49609375 283.37109375 c 0
 462.49609375 369.83984375 391.913085938 440.04296875 304.974609375 440.04296875 c 0
172.91796875 741.65625 m 0
 207.052734375 741.65625 234.724609375 713.984375 234.724609375 679.849609375 c 0
 234.724609375 645.71484375 207.052734375 618.04296875 172.91796875 618.04296875 c 0
 138.783203125 618.04296875 111.111328125 645.71484375 111.111328125 679.849609375 c 0
 111.111328125 713.984375 138.783203125 741.65625 172.91796875 741.65625 c 0
437.640625 741.463867188 m 0
 471.775390625 741.463867188 499.447265625 713.791992188 499.447265625 679.657226562 c 0
 499.447265625 645.522460938 471.775390625 617.8515625 437.640625 617.8515625 c 0
 403.505859375 617.8515625 375.834960938 645.522460938 375.834960938 679.657226562 c 0
 375.834960938 713.791992188 403.505859375 741.463867188 437.640625 741.463867188 c 0
EndSplineSet
EndChar

StartChar: Ugrave
Encoding: 217 217 138
Width: 507
Flags: HW
HStem: -21.9766 138.56<-81.5779 30.2971> 548.658 20G<-250.298 -113.293 59.3071 196.288> 627 21G<-82.3359 56.2161>
VStem: -250.298 137.377<149.857 568.423> 59.3071 136.98<148.291 568.658>
LayerCount: 2
Fore
SplineSet
336.513671875 627 m 1
 209.234375 627 l 1
 116.890625 790.84765625 l 1
 245.9375 790.963867188 l 1
 336.513671875 627 l 1
476.5859375 568.658203125 m 1
 476.5859375 228.720703125 l 2
 476.5859375 59.39453125 382.305664062 -13.9765625 252.044921875 -13.9765625 c 0
 121.783203125 -13.9765625 30 82.443359375 30 218.5234375 c 2
 30 568.422851562 l 1
 166.98046875 568.658203125 l 1
 167.376953125 257.018554688 l 2
 167.376953125 165.15625 196.721679688 124.583007812 253.051757812 124.583007812 c 0
 311.3828125 124.583007812 339.60546875 161.676757812 339.60546875 258.048828125 c 2
 339.60546875 568.658203125 l 1
 476.5859375 568.658203125 l 1
EndSplineSet
EndChar

StartChar: Uacute
Encoding: 218 218 139
Width: 507
Flags: HW
HStem: -21.9766 138.56<-81.5779 30.2971> 548.658 20G<-250.298 -113.293 59.3071 196.288> 627 21G<-112.728 25.8231>
VStem: -250.298 137.377<149.857 568.423> 59.3071 136.98<148.291 568.658>
LayerCount: 2
Fore
SplineSet
167.5703125 627 m 1
 258.145507812 790.963867188 l 1
 387.192382812 790.84765625 l 1
 294.849609375 627 l 1
 167.5703125 627 l 1
476.5859375 568.658203125 m 1
 476.5859375 228.720703125 l 2
 476.5859375 59.39453125 382.305664062 -13.9765625 252.044921875 -13.9765625 c 0
 121.783203125 -13.9765625 30 82.443359375 30 218.5234375 c 2
 30 568.422851562 l 1
 166.98046875 568.658203125 l 1
 167.376953125 257.018554688 l 2
 167.376953125 165.15625 196.721679688 124.583007812 253.051757812 124.583007812 c 0
 311.3828125 124.583007812 339.606445312 161.676757812 339.606445312 258.048828125 c 2
 339.606445312 568.658203125 l 1
 476.5859375 568.658203125 l 1
EndSplineSet
EndChar

StartChar: Udieresis
Encoding: 220 220 140
Width: 507
Flags: HW
HStem: -21.9766 138.56<-77.0613 34.8137> 548.658 20G<-245.78 -108.776 63.8247 200.805> 617.964 123.612<-201.483 -108.014 63.2397 156.709>
VStem: -245.78 137.376<149.857 568.423> -216.555 123.612<633.036 726.504> 48.1677 123.612<632.843 726.312> 63.8247 136.98<148.291 568.658>
LayerCount: 2
Fore
SplineSet
121.03125 741.576171875 m 0
 155.166015625 741.576171875 182.837890625 713.904296875 182.837890625 679.76953125 c 0
 182.837890625 645.635742188 155.166015625 617.963867188 121.03125 617.963867188 c 0
 86.896484375 617.963867188 59.2255859375 645.635742188 59.2255859375 679.76953125 c 0
 59.2255859375 713.904296875 86.896484375 741.576171875 121.03125 741.576171875 c 0
385.754882812 741.383789062 m 0
 419.889648438 741.383789062 447.560546875 713.712890625 447.560546875 679.578125 c 0
 447.560546875 645.443359375 419.889648438 617.771484375 385.754882812 617.771484375 c 0
 351.620117188 617.771484375 323.948242188 645.443359375 323.948242188 679.578125 c 0
 323.948242188 713.712890625 351.620117188 741.383789062 385.754882812 741.383789062 c 0
476.584960938 568.658203125 m 1
 476.5859375 228.720703125 l 2
 476.5859375 59.39453125 382.3046875 -13.9765625 252.043945312 -13.9765625 c 0
 121.783203125 -13.9765625 30 82.443359375 30 218.5234375 c 2
 30 568.422851562 l 1
 166.979492188 568.658203125 l 1
 167.375976562 257.018554688 l 2
 167.375976562 165.15625 196.720703125 124.583007812 253.05078125 124.583007812 c 0
 311.381835938 124.583007812 339.60546875 161.676757812 339.60546875 258.048828125 c 2
 339.60546875 568.658203125 l 1
 476.584960938 568.658203125 l 1
EndSplineSet
EndChar

StartChar: igrave
Encoding: 236 236 141
Width: 230
Flags: HW
HStem: -0.22168 21G<55.992 184.958> 415.5 20G<55.992 183.353>
VStem: 55.992 129.047<0 435.5>
LayerCount: 2
Fore
SplineSet
199.622070312 506.03125 m 1
 72.3427734375 506.03125 l 1
 -20 669.879882812 l 1
 109.046875 669.99609375 l 1
 199.622070312 506.03125 l 1
183.271484375 435.5 m 1
 185.0390625 -0.2216796875 l 1
 55.9921875 0 l 1
 55.9921875 435.5 l 1
 183.271484375 435.5 l 1
EndSplineSet
EndChar

StartChar: iacute
Encoding: 237 237 142
Width: 228
Flags: HW
HStem: -0.22168 21G<40.3701 169.336> 415.5 20G<40.3701 167.731>
VStem: 40.3701 129.047<0 435.5>
LayerCount: 2
Fore
SplineSet
30.3779296875 506.03125 m 1
 120.953125 669.99609375 l 1
 250 669.879882812 l 1
 157.65625 506.03125 l 1
 30.3779296875 506.03125 l 1
167.649414062 435.5 m 1
 169.416992188 -0.2216796875 l 1
 40.3701171875 0 l 1
 40.3701171875 435.5 l 1
 167.649414062 435.5 l 1
EndSplineSet
EndChar

StartChar: idieresis
Encoding: 239 239 143
Width: 361
Flags: HW
HStem: 0.0722656 21G<117.095 246.141> 415.794 20G<117.095 246.125> 529.575 123.612<2.73479 96.2051 267.458 360.927>
VStem: -12.3369 123.613<544.647 638.116> 117.095 129.047<0.293945 435.794> 252.387 123.612<544.455 637.924>
LayerCount: 2
Fore
SplineSet
246.125 435.793945312 m 1
 246.142578125 0.072265625 l 1
 117.095703125 0.2939453125 l 1
 117.095703125 435.793945312 l 1
 246.125 435.793945312 l 1
314.193359375 652.99609375 m 0
 348.328125 652.99609375 376 625.32421875 376 591.189453125 c 0
 376 557.0546875 348.328125 529.3828125 314.193359375 529.3828125 c 0
 280.05859375 529.3828125 252.387695312 557.0546875 252.387695312 591.189453125 c 0
 252.387695312 625.32421875 280.05859375 652.99609375 314.193359375 652.99609375 c 0
49.470703125 653.1875 m 0
 83.60546875 653.1875 111.27734375 625.516601562 111.27734375 591.381835938 c 0
 111.27734375 557.247070312 83.60546875 529.575195312 49.470703125 529.575195312 c 0
 15.3359375 529.575195312 -12.3359375 557.247070312 -12.3359375 591.381835938 c 0
 -12.3359375 625.516601562 15.3359375 653.1875 49.470703125 653.1875 c 0
EndSplineSet
EndChar

StartChar: ugrave
Encoding: 249 249 144
Width: 481
Flags: HW
HStem: -21.8477 130.535<-77.4317 29.4303> 415.722 20G<-235.639 -106.555 56.0373 185.084>
VStem: -235.639 129.421<140.035 435.5> 56.0373 129.047<138.559 435.722>
LayerCount: 2
Fore
SplineSet
335.6484375 506.03125 m 1
 208.369140625 506.03125 l 1
 116.026367188 669.879882812 l 1
 245.073242188 669.99609375 l 1
 335.6484375 506.03125 l 1
450.72265625 435.721679688 m 1
 450.72265625 214.793945312 l 2
 450.72265625 55.2744140625 361.901367188 -13.84765625 239.184570312 -13.84765625 c 0
 116.467773438 -13.84765625 30 76.9892578125 30 205.1875 c 2
 30 435.5 l 1
 159.046875 435.721679688 l 1
 159.420898438 241.453125 l 2
 159.420898438 154.911132812 187.06640625 116.6875 240.133789062 116.6875 c 0
 295.086914062 116.6875 321.67578125 151.633789062 321.67578125 242.423828125 c 2
 321.67578125 435.721679688 l 1
 450.72265625 435.721679688 l 1
EndSplineSet
EndChar

StartChar: uacute
Encoding: 250 250 145
Width: 481
Flags: HW
HStem: -21.8477 130.535<-77.4317 29.4303> 415.722 20G<-235.639 -106.555 56.0373 185.084>
VStem: -235.639 129.421<140.035 435.5> 56.0373 129.047<138.559 435.722>
LayerCount: 2
Fore
SplineSet
154.026367188 506.03125 m 1
 244.6015625 669.99609375 l 1
 373.6484375 669.879882812 l 1
 281.305664062 506.03125 l 1
 154.026367188 506.03125 l 1
450.72265625 435.721679688 m 1
 450.72265625 214.793945312 l 2
 450.72265625 55.2744140625 361.901367188 -13.84765625 239.184570312 -13.84765625 c 0
 116.467773438 -13.84765625 30 76.9892578125 30 205.1875 c 2
 30 435.5 l 1
 159.046875 435.721679688 l 1
 159.420898438 241.453125 l 2
 159.420898438 154.911132812 187.06640625 116.6875 240.133789062 116.6875 c 0
 295.086914062 116.6875 321.67578125 151.633789062 321.67578125 242.423828125 c 2
 321.67578125 435.721679688 l 1
 450.72265625 435.721679688 l 1
EndSplineSet
EndChar

StartChar: udieresis
Encoding: 252 252 146
Width: 481
Flags: HW
HStem: -21.8477 130.535<-60.75 46.111> 415.722 20G<-218.957 -89.873 72.718 201.765> 529.575 123.612<-187.651 -94.181 77.072 170.542>
VStem: -218.957 129.42<140.035 435.5> -202.723 123.613<544.647 638.116> 62.001 123.612<544.455 637.924> 72.718 129.047<138.559 435.722>
LayerCount: 2
Fore
SplineSet
108.041015625 653.1875 m 0
 142.17578125 653.1875 169.84765625 625.516601562 169.84765625 591.381835938 c 0
 169.84765625 557.247070312 142.17578125 529.575195312 108.041015625 529.575195312 c 0
 73.90625 529.575195312 46.234375 557.247070312 46.234375 591.381835938 c 0
 46.234375 625.516601562 73.90625 653.1875 108.041015625 653.1875 c 0
372.763671875 652.99609375 m 0
 406.8984375 652.99609375 434.5703125 625.32421875 434.5703125 591.189453125 c 0
 434.5703125 557.0546875 406.8984375 529.3828125 372.763671875 529.3828125 c 0
 338.62890625 529.3828125 310.958007812 557.0546875 310.958007812 591.189453125 c 0
 310.958007812 625.32421875 338.62890625 652.99609375 372.763671875 652.99609375 c 0
450.721679688 435.721679688 m 1
 450.721679688 214.793945312 l 2
 450.721679688 55.2744140625 361.901367188 -13.84765625 239.184570312 -13.84765625 c 0
 116.467773438 -13.84765625 30 76.9892578125 30 205.1875 c 2
 30 435.5 l 1
 159.046875 435.721679688 l 1
 159.419921875 241.453125 l 2
 159.419921875 154.911132812 187.065429688 116.6875 240.1328125 116.6875 c 0
 295.0859375 116.6875 321.674804688 151.633789062 321.674804688 242.423828125 c 2
 321.674804688 435.721679688 l 1
 450.721679688 435.721679688 l 1
EndSplineSet
EndChar

StartChar: yacute
Encoding: 253 253 147
Width: 489
Flags: W
HStem: -195.613 108.895<98.5796 293.79> 0 120.972<203.142 328.734> 415.722 20G<329.755 458.721>
VStem: 30.04 129.007<165.858 435.722> 328.734 129.986<-53.5426 0 120.972 435.5>
LayerCount: 2
Fore
SplineSet
159.046875 435.721679688 m 1
 159.046875 247.471679688 l 2
 159.046875 165.860351562 200.014648438 120.971679688 276.6640625 120.971679688 c 2
 330.950195312 120.971679688 l 1
 329.673828125 435.721679688 l 1
 458.720703125 435.5 l 1
 458.720703125 0 l 2
 458.720703125 -62.177734375 427.775390625 -119.211914062 382.53515625 -152.969726562 c 0
 318.735351562 -200.577148438 235.39453125 -195.61328125 196.833984375 -195.61328125 c 0
 151.690429688 -195.61328125 98.5458984375 -185 98.5458984375 -185 c 1
 98.5458984375 -76.5869140625 l 1
 98.5458984375 -76.5869140625 137.8984375 -86.71875 193.297851562 -86.71875 c 0
 248.698242188 -86.71875 272.461914062 -79.1044921875 295.70703125 -64.091796875 c 0
 311.272460938 -54.0390625 328.734375 -34.0908203125 328.734375 0 c 1
 225.6640625 0 l 2
 102.326171875 0 30.0400390625 109.788085938 30.0400390625 207.43359375 c 0
 30.0400390625 272.818359375 30 435.943359375 30 435.943359375 c 1
 159.046875 435.721679688 l 1
180.791015625 506.03125 m 1
 271.366210938 669.99609375 l 1
 400.413085938 669.879882812 l 1
 308.069335938 506.03125 l 1
 180.791015625 506.03125 l 1
EndSplineSet
EndChar

StartChar: Yacute
Encoding: 221 221 148
Width: 566
Flags: W
HStem: 0 21G<215.955 349.709> 548.947 20G<30 187.624 378.04 535.664> 627 21G<214.688 353.24>
VStem: 215.955 133.754<0 276.656>
LayerCount: 2
Fore
SplineSet
214.688476562 627 m 1
 305.263671875 790.963867188 l 1
 434.311523438 790.84765625 l 1
 341.967773438 627 l 1
 214.688476562 627 l 1
175.6640625 568.947265625 m 1
 282.83203125 389.73046875 l 1
 390 568.947265625 l 1
 535.6640625 568.658203125 l 1
 349.708984375 276.65625 l 1
 349.708984375 0 l 1
 215.955078125 0 l 1
 215.955078125 276.65625 l 1
 30 568.658203125 l 1
 175.6640625 568.947265625 l 1
EndSplineSet
EndChar

StartChar: ccedilla
Encoding: 231 231 149
Width: 367
Flags: HW
HStem: -185 54.3613<172.852 254.508> -76.4248 54.4346<230.483 255.543> 0 117.5<238.803 322.305> 321.5 114.222<181.648 322.305>
VStem: 15 120.535<158.411 282.105> 256.484 64.5273<-125.876 -80.6075>
LayerCount: 2
Fore
SplineSet
322.3046875 435.721679688 m 1
 322.318359375 321.5 l 1
 271.020507812 321.5 l 2
 172.73046875 321.5 135.53515625 278.6796875 135.53515625 220.732421875 c 0
 135.53515625 144.0234375 201.994140625 117.5 270.03515625 117.5 c 2
 322.3046875 117.11328125 l 1
 322.34765625 0 l 1
 238.802734375 0 l 1
 230.483398438 -21.990234375 l 1
 248.477539062 -21.990234375 266.946289062 -24.650390625 280.478515625 -31.9443359375 c 0
 302.037109375 -43.564453125 320.51171875 -68.060546875 321.01171875 -100.927734375 c 0
 321.80078125 -152.823242188 281.1484375 -185 232.362304688 -185 c 2
 172.8515625 -185 l 1
 172.8515625 -130.638671875 l 1
 213.247070312 -130.388671875 l 2
 228.763671875 -130.388671875 256.484375 -126.314453125 256.484375 -105.067382812 c 0
 256.484375 -88.0283203125 244.6875 -76.4248046875 207.659179688 -76.4248046875 c 0
 198.637695312 -76.4248046875 162.86328125 -76.3564453125 162.86328125 -76.3564453125 c 1
 188.920898438 4.1650390625 l 1
 90.36328125 22.7138671875 15 101.79296875 15 212.5 c 0
 15 339.591796875 84.1220703125 435.721679688 243.641601562 435.721679688 c 2
 322.3046875 435.721679688 l 1
EndSplineSet
EndChar

StartChar: Ccedilla
Encoding: 199 199 150
Width: 434
Flags: HW
HStem: -185 54.3613<194.628 276.285> -76.4248 54.4346<252.261 277.32> 0 129.473<260.58 384.209> 435.722 132.937<227.216 384.238>
VStem: 10 146.535<188.534 364.081> 278.262 64.5273<-125.876 -80.6075>
LayerCount: 2
Fore
SplineSet
384.254882812 568.658203125 m 1
 384.23828125 435.721679688 l 1
 311.020507812 435.721679688 l 2
 190.73046875 435.721679688 156.53515625 346.251953125 156.53515625 275.66796875 c 0
 156.53515625 210.255859375 174.34375 129.340820312 320.569335938 129.47265625 c 0
 322.043945312 129.473632812 384.25390625 129.5 384.25390625 129.5 c 1
 384.26171875 0 l 1
 260.580078125 0 l 1
 252.260742188 -21.990234375 l 1
 270.254882812 -21.990234375 288.72265625 -24.650390625 302.254882812 -31.9443359375 c 0
 323.813476562 -43.564453125 342.2890625 -68.060546875 342.7890625 -100.927734375 c 0
 343.578125 -152.823242188 302.92578125 -185 254.139648438 -185 c 2
 194.627929688 -185 l 1
 194.627929688 -130.638671875 l 1
 235.024414062 -130.388671875 l 2
 250.541015625 -130.388671875 278.26171875 -126.314453125 278.26171875 -105.067382812 c 0
 278.26171875 -88.0283203125 266.46484375 -76.4248046875 229.436523438 -76.4248046875 c 0
 220.415039062 -76.4248046875 184.639648438 -76.3564453125 184.639648438 -76.3564453125 c 1
 210.458007812 3.42578125 l 1
 80.3876953125 23.2060546875 10 127.124023438 10 275.435546875 c 0
 10 407.739257812 61.11328125 568.658203125 298.641601562 568.658203125 c 2
 384.254882812 568.658203125 l 1
EndSplineSet
EndChar

StartChar: guillemotleft
Encoding: 171 171 151
Width: 469
Flags: HW
LayerCount: 2
Fore
SplineSet
156.984375 375.2890625 m 1
 257.627929688 375.2890625 l 1
 192.274414062 296.575195312 l 1
 126.920898438 217.861328125 l 1
 192.274414062 139.147460938 l 1
 257.627929688 60.43359375 l 1
 156.984375 60.43359375 l 1
 25 217.909179688 l 1
 156.984375 375.2890625 l 1
343.286132812 375.2890625 m 1
 443.9296875 375.2890625 l 1
 378.576171875 296.575195312 l 1
 313.22265625 217.861328125 l 1
 378.576171875 139.147460938 l 1
 443.9296875 60.43359375 l 1
 343.286132812 60.43359375 l 1
 211.301757812 217.909179688 l 1
 343.286132812 375.2890625 l 1
EndSplineSet
EndChar

StartChar: guillemotright
Encoding: 187 187 152
Width: 469
Flags: HW
LayerCount: 2
Fore
SplineSet
311.9453125 375.2890625 m 1
 443.9296875 217.909179688 l 1
 311.9453125 60.43359375 l 1
 211.301757812 60.43359375 l 1
 276.655273438 139.147460938 l 1
 342.008789062 217.861328125 l 1
 276.655273438 296.575195312 l 1
 211.301757812 375.2890625 l 1
 311.9453125 375.2890625 l 1
125.643554688 375.2890625 m 1
 257.627929688 217.909179688 l 1
 125.643554688 60.43359375 l 1
 25 60.43359375 l 1
 90.353515625 139.147460938 l 1
 155.70703125 217.861328125 l 1
 90.353515625 296.575195312 l 1
 25 375.2890625 l 1
 125.643554688 375.2890625 l 1
EndSplineSet
EndChar

StartChar: Eth
Encoding: 208 208 153
Width: 580
Flags: HW
LayerCount: 2
Fore
SplineSet
69.17578125 568.658203125 m 1
 69.17578125 568.658203125 61.2119140625 569.9296875 276.7890625 568.658203125 c 0
 492.366210938 567.38671875 565.431640625 407.739257812 565.431640625 275.435546875 c 0
 565.431640625 110.149414062 478.423828125 0 318.396484375 0 c 2
 258.396484375 0 l 1
 258.396484375 129.5 l 1
 394.55078125 127.953125 418.896484375 191.302734375 418.896484375 277.66796875 c 0
 418.896484375 329.251953125 378.701171875 435.721679688 264.411132812 435.721679688 c 2
 202.112304688 435.721679688 l 1
 202.112304688 0 l 1
 69.1767578125 0 l 1
 69.17578125 568.658203125 l 1
326.404296875 325.495117188 m 1
 326.404296875 214.272460938 l 1
 8 214.272460938 l 1
 8 325.495117188 l 1
 326.404296875 325.495117188 l 1
EndSplineSet
EndChar

StartChar: Dcroat
Encoding: 272 272 154
Width: 580
Flags: HW
LayerCount: 2
Fore
SplineSet
74.17578125 568.658203125 m 1
 74.17578125 568.658203125 66.2119140625 569.9296875 281.7890625 568.658203125 c 0
 497.366210938 567.38671875 570.431640625 407.739257812 570.431640625 275.435546875 c 0
 570.431640625 110.149414062 483.423828125 0 323.396484375 0 c 2
 263.396484375 0 l 1
 263.396484375 129.5 l 1
 399.55078125 127.953125 423.896484375 191.302734375 423.896484375 277.66796875 c 0
 423.896484375 329.251953125 383.701171875 435.721679688 269.411132812 435.721679688 c 2
 207.112304688 435.721679688 l 1
 207.112304688 0 l 1
 74.1767578125 0 l 1
 74.17578125 568.658203125 l 1
331.404296875 325.495117188 m 1
 331.404296875 214.272460938 l 1
 13 214.272460938 l 1
 13 325.495117188 l 1
 331.404296875 325.495117188 l 1
EndSplineSet
EndChar

StartChar: Abreve
Encoding: 258 258 155
Width: 583
Flags: HW
LayerCount: 2
Fore
SplineSet
290.6171875 579.083984375 m 0
 370.161132812 579.083984375 394.296875 498.544921875 394.296875 498.544921875 c 1
 553.181640625 0 l 1
 416.77734375 0 l 1
 381.947265625 117.40625 l 1
 253.767578125 117.40625 l 1
 280.9453125 213.859375 l 1
 353.33203125 213.859375 l 1
 290.6171875 425.259765625 l 1
 166.39453125 0 l 1
 30 0 l 1
 186.939453125 498.544921875 l 1
 186.939453125 498.544921875 211.072265625 579.083984375 290.6171875 579.083984375 c 0
433.100585938 767.741210938 m 1
 433.100585938 739.987304688 l 2
 433.100585938 653.908203125 372.756835938 618.609375 289.384765625 618.609375 c 0
 206.01171875 618.609375 147.266601562 665.625976562 147.266601562 734.802734375 c 2
 147.266601562 767.622070312 l 1
 235.287109375 767.741210938 l 1
 235.540039062 756.372070312 l 2
 235.540039062 717.715820312 258.642578125 697.973632812 290.913085938 697.973632812 c 0
 324.455078125 697.973632812 345.080078125 717.111328125 345.080078125 754.895507812 c 2
 345.080078125 767.741210938 l 1
 433.100585938 767.741210938 l 1
EndSplineSet
EndChar

StartChar: abreve
Encoding: 259 259 156
Width: 497
Flags: HW
LayerCount: 2
Fore
SplineSet
467.3046875 435.721679688 m 1
 467.3046875 0 l 1
 337.318359375 0 l 1
 337.318359375 321.5 l 1
 282.020507812 321.5 l 2
 183.73046875 321.5 150.53515625 278.6796875 150.53515625 220.732421875 c 0
 150.53515625 144.0234375 212.994140625 117.5 281.03515625 117.5 c 1
 281.03515625 0 l 1
 249.03515625 0 l 2
 129.321289062 0 30 85.408203125 30 212.5 c 0
 30 339.591796875 99.1220703125 435.721679688 258.641601562 435.721679688 c 2
 467.3046875 435.721679688 l 1
436.694335938 652.940429688 m 1
 436.694335938 625.185546875 l 2
 436.694335938 539.106445312 376.350585938 503.807617188 292.978515625 503.807617188 c 0
 209.60546875 503.807617188 150.860351562 550.82421875 150.860351562 620.001953125 c 2
 150.860351562 652.8203125 l 1
 238.880859375 652.940429688 l 1
 239.134765625 641.5703125 l 2
 239.134765625 602.915039062 262.236328125 583.172851562 294.506835938 583.172851562 c 0
 328.048828125 583.172851562 348.673828125 602.309570312 348.673828125 640.094726562 c 2
 348.673828125 652.940429688 l 1
 436.694335938 652.940429688 l 1
EndSplineSet
EndChar

StartChar: uni1EA0
Encoding: 7840 7840 157
Width: 583
Flags: HW
LayerCount: 2
Fore
SplineSet
290.6171875 579.083984375 m 0
 370.162109375 579.083984375 394.296875 498.544921875 394.296875 498.544921875 c 1
 553.181640625 0 l 1
 416.77734375 0 l 1
 381.947265625 117.40625 l 1
 253.767578125 117.40625 l 1
 280.9453125 213.859375 l 1
 353.33203125 213.859375 l 1
 290.6171875 425.259765625 l 1
 166.39453125 0 l 1
 30 0 l 1
 186.939453125 498.544921875 l 1
 186.939453125 498.544921875 211.072265625 579.083984375 290.6171875 579.083984375 c 0
240.650390625 -95.984375 m 0
 240.650390625 -66.73046875 264.364257812 -43.0166015625 293.618164062 -43.0166015625 c 0
 322.87109375 -43.0166015625 346.5859375 -66.73046875 346.5859375 -95.984375 c 0
 346.5859375 -125.237304688 322.87109375 -148.952148438 293.618164062 -148.952148438 c 0
 264.364257812 -148.952148438 240.650390625 -125.237304688 240.650390625 -95.984375 c 0
EndSplineSet
EndChar

StartChar: uni1EA1
Encoding: 7841 7841 158
Width: 497
Flags: HW
LayerCount: 2
Fore
SplineSet
202.91796875 -95.984375 m 0
 202.91796875 -66.73046875 226.631835938 -43.0166015625 255.885742188 -43.0166015625 c 0
 285.138671875 -43.0166015625 308.853515625 -66.73046875 308.853515625 -95.984375 c 0
 308.853515625 -125.237304688 285.138671875 -148.952148438 255.885742188 -148.952148438 c 0
 226.631835938 -148.952148438 202.91796875 -125.237304688 202.91796875 -95.984375 c 0
452.305664062 435.627929688 m 1
 452.305664062 -0.09375 l 1
 322.319335938 -0.09375 l 1
 322.319335938 321.40625 l 1
 267.020507812 321.40625 l 2
 168.73046875 321.40625 135.53515625 278.5859375 135.53515625 220.638671875 c 0
 135.53515625 143.9296875 197.994140625 117.40625 266.03515625 117.40625 c 1
 266.03515625 -0.09375 l 1
 234.03515625 -0.09375 l 2
 114.321289062 -0.09375 15 85.314453125 15 212.40625 c 0
 15 339.498046875 84.1220703125 435.627929688 243.641601562 435.627929688 c 2
 452.305664062 435.627929688 l 1
EndSplineSet
EndChar

StartChar: uni1EA2
Encoding: 7842 7842 159
Width: 583
Flags: HW
LayerCount: 2
Fore
SplineSet
290.6171875 579.083984375 m 0
 370.162109375 579.083984375 394.296875 498.544921875 394.296875 498.544921875 c 1
 553.181640625 0 l 1
 416.77734375 0 l 1
 381.947265625 117.40625 l 1
 253.767578125 117.40625 l 1
 280.9453125 213.859375 l 1
 353.33203125 213.859375 l 1
 290.6171875 425.259765625 l 1
 166.39453125 0 l 1
 30 0 l 1
 186.939453125 498.544921875 l 1
 186.939453125 498.544921875 211.072265625 579.083984375 290.6171875 579.083984375 c 0
292.459960938 848 m 0
 356.454101562 848 391.14453125 802.801757812 391.14453125 750.086914062 c 0
 391.14453125 723.307617188 379.177734375 701.83203125 377.407226562 698.91796875 c 2
 331.893554688 627 l 1
 252.936523438 627 l 1
 303.829101562 705.680664062 l 2
 310.955078125 716.698242188 325.91015625 737.989257812 325.91015625 751.333984375 c 0
 325.91015625 772.9375 310.786132812 786.009765625 291.125976562 786.009765625 c 0
 270.411132812 786.009765625 255.20703125 771.805664062 255.20703125 750.913085938 c 0
 255.20703125 724.856445312 277.678710938 717.7421875 277.678710938 717.7421875 c 1
 247.534179688 671.643554688 l 1
 247.534179688 671.643554688 195.23046875 693.616210938 195.23046875 752.579101562 c 0
 195.23046875 811.734375 242.046875 848 292.459960938 848 c 0
EndSplineSet
EndChar

StartChar: uni1EA3
Encoding: 7843 7843 160
Width: 497
Flags: HW
LayerCount: 2
Fore
SplineSet
452.305664062 435.627929688 m 1
 452.305664062 -0.09375 l 1
 322.319335938 -0.09375 l 1
 322.319335938 321.40625 l 1
 267.020507812 321.40625 l 2
 168.73046875 321.40625 135.53515625 278.5859375 135.53515625 220.638671875 c 0
 135.53515625 143.9296875 197.994140625 117.40625 266.03515625 117.40625 c 1
 266.03515625 -0.09375 l 1
 234.03515625 -0.09375 l 2
 114.321289062 -0.09375 15 85.314453125 15 212.40625 c 0
 15 339.498046875 84.1220703125 435.627929688 243.641601562 435.627929688 c 2
 452.305664062 435.627929688 l 1
274.342773438 727.2578125 m 0
 338.336914062 727.2578125 373.02734375 682.059570312 373.02734375 629.344726562 c 0
 373.02734375 602.565429688 361.060546875 581.088867188 359.290039062 578.17578125 c 2
 313.776367188 506.2578125 l 1
 234.819335938 506.2578125 l 1
 285.711914062 584.938476562 l 2
 292.837890625 595.956054688 307.79296875 617.247070312 307.79296875 630.590820312 c 0
 307.79296875 652.194335938 292.668945312 665.266601562 273.008789062 665.266601562 c 0
 252.293945312 665.266601562 237.08984375 651.0625 237.08984375 630.169921875 c 0
 237.08984375 604.114257812 259.561523438 597 259.561523438 597 c 1
 229.416015625 550.901367188 l 1
 229.416015625 550.901367188 177.11328125 572.873046875 177.11328125 631.836914062 c 0
 177.11328125 690.9921875 223.9296875 727.2578125 274.342773438 727.2578125 c 0
EndSplineSet
EndChar

StartChar: uni1EA4
Encoding: 7844 7844 161
Width: 676
Flags: HW
LayerCount: 2
Fore
SplineSet
425.90234375 722 m 1
 516.477539062 885.963867188 l 1
 645.524414062 885.84765625 l 1
 553.181640625 722 l 1
 425.90234375 722 l 1
290.6171875 579.083984375 m 0
 370.161132812 579.083984375 394.296875 498.544921875 394.296875 498.544921875 c 1
 553.181640625 0 l 1
 416.77734375 0 l 1
 381.947265625 117.40625 l 1
 253.767578125 117.40625 l 1
 280.9453125 213.859375 l 1
 353.33203125 213.859375 l 1
 290.6171875 425.259765625 l 1
 166.39453125 0 l 1
 30 0 l 1
 186.939453125 498.544921875 l 1
 186.939453125 498.544921875 211.072265625 579.083984375 290.6171875 579.083984375 c 0
288.892578125 782.331054688 m 0
 339.317382812 782.331054688 366.09765625 753.547851562 379.303710938 723.321289062 c 0
 421.38671875 627 421.38671875 627 421.38671875 627 c 1
 325.076171875 627 l 1
 288.892578125 707.891601562 l 1
 253.095703125 627 l 1
 156.967773438 627 l 1
 198.845703125 723.321289062 l 2
 211.998046875 753.5703125 238.467773438 782.331054688 288.892578125 782.331054688 c 0
EndSplineSet
EndChar

StartChar: uni1EA5
Encoding: 7845 7845 162
Width: 547
Flags: HW
LayerCount: 2
Fore
SplineSet
452.3046875 435.721679688 m 1
 452.3046875 0 l 1
 322.318359375 0 l 1
 322.318359375 321.5 l 1
 267.020507812 321.5 l 2
 168.73046875 321.5 135.53515625 278.6796875 135.53515625 220.732421875 c 0
 135.53515625 144.0234375 197.994140625 117.5 266.03515625 117.5 c 1
 266.03515625 0 l 1
 234.03515625 0 l 2
 114.321289062 0 15 85.408203125 15 212.5 c 0
 15 339.591796875 84.1220703125 435.721679688 243.641601562 435.721679688 c 2
 452.3046875 435.721679688 l 1
270.856445312 661.362304688 m 0
 321.282226562 661.362304688 348.061523438 632.579101562 361.267578125 602.352539062 c 0
 403.350585938 506.03125 403.350585938 506.03125 403.350585938 506.03125 c 1
 307.040039062 506.03125 l 1
 270.856445312 586.922851562 l 1
 235.059570312 506.03125 l 1
 138.931640625 506.03125 l 1
 138.931640625 506.03125 138.931640625 506.03125 180.810546875 602.352539062 c 0
 193.961914062 632.602539062 220.431640625 661.362304688 270.856445312 661.362304688 c 0
401.9453125 598.658203125 m 1
 492.520507812 762.622070312 l 1
 621.567382812 762.505859375 l 1
 529.224609375 598.658203125 l 1
 401.9453125 598.658203125 l 1
EndSplineSet
EndChar

StartChar: uni1EA6
Encoding: 7846 7846 163
Width: 583
Flags: HW
LayerCount: 2
Fore
SplineSet
290.6171875 579.083984375 m 0
 370.161132812 579.083984375 394.296875 498.544921875 394.296875 498.544921875 c 1
 553.181640625 0 l 1
 416.77734375 0 l 1
 381.947265625 117.40625 l 1
 253.767578125 117.40625 l 1
 280.9453125 213.859375 l 1
 353.33203125 213.859375 l 1
 290.6171875 425.259765625 l 1
 166.39453125 0 l 1
 30 0 l 1
 186.939453125 498.544921875 l 1
 186.939453125 498.544921875 211.072265625 579.083984375 290.6171875 579.083984375 c 0
288.892578125 782.331054688 m 0
 339.317382812 782.331054688 366.118164062 753.556640625 379.303710938 723.321289062 c 0
 425.740234375 616.841796875 421.38671875 627 421.38671875 627 c 1
 325.076171875 627 l 1
 288.892578125 707.891601562 l 1
 253.095703125 627 l 1
 156.967773438 627 l 1
 156.967773438 627 156.967773438 627 198.845703125 723.321289062 c 0
 211.998046875 753.5703125 238.467773438 782.331054688 288.892578125 782.331054688 c 0
553.181640625 722 m 1
 425.90234375 722 l 1
 333.55859375 885.84765625 l 1
 462.606445312 885.963867188 l 1
 553.181640625 722 l 1
EndSplineSet
EndChar

StartChar: uni1EA8
Encoding: 7848 7848 164
Width: 594
Flags: HW
LayerCount: 2
Fore
SplineSet
290.6171875 579.083984375 m 0
 370.161132812 579.083984375 394.296875 498.544921875 394.296875 498.544921875 c 1
 553.181640625 0 l 1
 416.77734375 0 l 1
 381.947265625 117.40625 l 1
 253.767578125 117.40625 l 1
 280.9453125 213.859375 l 1
 353.33203125 213.859375 l 1
 290.6171875 425.259765625 l 1
 166.39453125 0 l 1
 30 0 l 1
 186.939453125 498.544921875 l 1
 186.939453125 498.544921875 211.072265625 579.083984375 290.6171875 579.083984375 c 0
288.892578125 782.331054688 m 0
 339.317382812 782.331054688 366.09765625 753.547851562 379.303710938 723.321289062 c 0
 421.38671875 627 421.38671875 627 421.38671875 627 c 1
 325.076171875 627 l 1
 288.892578125 707.891601562 l 1
 253.095703125 627 l 1
 156.967773438 627 l 1
 156.967773438 627 156.967773438 627 198.845703125 723.321289062 c 0
 211.998046875 753.5703125 238.467773438 782.331054688 288.892578125 782.331054688 c 0
465.424804688 943 m 0
 529.418945312 943 564.110351562 897.801757812 564.110351562 845.086914062 c 0
 564.110351562 818.307617188 552.142578125 796.83203125 550.372070312 793.91796875 c 2
 504.858398438 722 l 1
 425.90234375 722 l 1
 476.793945312 800.680664062 l 2
 483.920898438 811.698242188 498.875 832.989257812 498.875 846.333984375 c 0
 498.875 867.9375 483.751953125 881.009765625 464.091796875 881.009765625 c 0
 443.375976562 881.009765625 428.172851562 866.805664062 428.172851562 845.913085938 c 0
 428.172851562 819.856445312 450.643554688 812.7421875 450.643554688 812.7421875 c 1
 420.499023438 766.643554688 l 1
 420.499023438 766.643554688 368.1953125 788.616210938 368.1953125 847.579101562 c 0
 368.1953125 906.734375 415.01171875 943 465.424804688 943 c 0
EndSplineSet
EndChar

StartChar: uni1EA7
Encoding: 7847 7847 165
Width: 538
Flags: HW
LayerCount: 2
Fore
SplineSet
452.3046875 435.721679688 m 1
 452.3046875 0 l 1
 322.318359375 0 l 1
 322.318359375 321.5 l 1
 267.020507812 321.5 l 2
 168.73046875 321.5 135.53515625 278.6796875 135.53515625 220.732421875 c 0
 135.53515625 144.0234375 197.994140625 117.5 266.03515625 117.5 c 1
 266.03515625 0 l 1
 234.03515625 0 l 2
 114.321289062 0 15 85.408203125 15 212.5 c 0
 15 339.591796875 84.1220703125 435.721679688 243.641601562 435.721679688 c 2
 452.3046875 435.721679688 l 1
270.856445312 661.362304688 m 0
 321.282226562 661.362304688 348.08203125 632.587890625 361.267578125 602.352539062 c 0
 407.704101562 495.874023438 403.350585938 506.03125 403.350585938 506.03125 c 1
 307.040039062 506.03125 l 1
 270.856445312 586.922851562 l 1
 235.059570312 506.03125 l 1
 138.931640625 506.03125 l 1
 138.931640625 506.03125 138.931640625 506.03125 180.810546875 602.352539062 c 0
 193.961914062 632.602539062 220.431640625 661.362304688 270.856445312 661.362304688 c 0
565.224609375 598.658203125 m 1
 437.9453125 598.658203125 l 1
 345.6015625 762.505859375 l 1
 474.6484375 762.622070312 l 1
 565.224609375 598.658203125 l 1
EndSplineSet
EndChar

StartChar: uni1EA9
Encoding: 7849 7849 166
Width: 519
Flags: HW
LayerCount: 2
Fore
SplineSet
452.3046875 435.721679688 m 1
 452.3046875 0 l 1
 322.318359375 0 l 1
 322.318359375 321.5 l 1
 267.020507812 321.5 l 2
 168.73046875 321.5 135.53515625 278.6796875 135.53515625 220.732421875 c 0
 135.53515625 144.0234375 197.994140625 117.5 266.03515625 117.5 c 1
 266.03515625 0 l 1
 234.03515625 0 l 2
 114.321289062 0 15 85.408203125 15 212.5 c 0
 15 339.591796875 84.1220703125 435.721679688 243.641601562 435.721679688 c 2
 452.3046875 435.721679688 l 1
270.856445312 661.362304688 m 0
 321.282226562 661.362304688 348.08203125 632.587890625 361.267578125 602.352539062 c 0
 407.704101562 495.874023438 403.350585938 506.03125 403.350585938 506.03125 c 1
 307.040039062 506.03125 l 1
 270.856445312 586.922851562 l 1
 235.059570312 506.03125 l 1
 138.931640625 506.03125 l 1
 138.931640625 506.03125 138.931640625 506.03125 180.810546875 602.352539062 c 0
 193.961914062 632.602539062 220.431640625 661.362304688 270.856445312 661.362304688 c 0
453.467773438 819.658203125 m 0
 517.461914062 819.658203125 552.153320312 774.459960938 552.153320312 721.745117188 c 0
 552.153320312 694.965820312 540.185546875 673.490234375 538.415039062 670.576171875 c 2
 492.901367188 598.658203125 l 1
 413.9453125 598.658203125 l 1
 464.836914062 677.338867188 l 2
 471.963867188 688.356445312 486.91796875 709.647460938 486.91796875 722.991210938 c 0
 486.91796875 744.594726562 471.793945312 757.66796875 452.134765625 757.66796875 c 0
 431.418945312 757.66796875 416.215820312 743.463867188 416.215820312 722.5703125 c 0
 416.215820312 696.514648438 438.686523438 689.400390625 438.686523438 689.400390625 c 1
 408.541992188 643.301757812 l 1
 408.541992188 643.301757812 356.23828125 665.274414062 356.23828125 724.237304688 c 0
 356.23828125 783.392578125 403.0546875 819.658203125 453.467773438 819.658203125 c 0
EndSplineSet
EndChar

StartChar: uni1EAA
Encoding: 7850 7850 167
Width: 583
Flags: HW
LayerCount: 2
Fore
SplineSet
290.6171875 579.083984375 m 0
 370.161132812 579.083984375 394.296875 498.544921875 394.296875 498.544921875 c 1
 553.181640625 0 l 1
 416.77734375 0 l 1
 381.947265625 117.40625 l 1
 253.767578125 117.40625 l 1
 280.9453125 213.859375 l 1
 353.33203125 213.859375 l 1
 290.6171875 425.259765625 l 1
 166.39453125 0 l 1
 30 0 l 1
 186.939453125 498.544921875 l 1
 186.939453125 498.544921875 211.072265625 579.083984375 290.6171875 579.083984375 c 0
288.892578125 782.331054688 m 0
 339.317382812 782.331054688 366.09765625 753.547851562 379.303710938 723.321289062 c 0
 421.38671875 627 421.38671875 627 421.38671875 627 c 1
 325.076171875 627 l 1
 288.892578125 707.891601562 l 1
 253.095703125 627 l 1
 156.967773438 627 l 1
 156.967773438 627 156.967773438 627 198.845703125 723.321289062 c 0
 211.998046875 753.5703125 238.467773438 782.331054688 288.892578125 782.331054688 c 0
496.926757812 816.28125 m 1
 496.926757812 816.28125 466.0859375 784.2890625 432.553710938 784.2890625 c 0
 350.44921875 784.2890625 354.508789062 816.272460938 281.573242188 816.272460938 c 0
 246.661132812 816.272460938 212.525390625 784.28125 212.525390625 784.28125 c 1
 212.669921875 880.09375 l 1
 212.669921875 880.09375 247.248046875 912.09375 283.458984375 912.09375 c 0
 361.21875 912.09375 360.833007812 880.09375 434.780273438 880.09375 c 0
 467.829101562 880.09375 496.926757812 912.09375 496.926757812 912.09375 c 1
 496.926757812 816.28125 l 1
EndSplineSet
EndChar

StartChar: uni1EAB
Encoding: 7851 7851 168
Width: 525
Flags: HW
LayerCount: 2
Fore
SplineSet
452.3046875 435.721679688 m 1
 452.3046875 0 l 1
 322.318359375 0 l 1
 322.318359375 321.5 l 1
 267.020507812 321.5 l 2
 168.73046875 321.5 135.53515625 278.6796875 135.53515625 220.732421875 c 0
 135.53515625 144.0234375 197.994140625 117.5 266.03515625 117.5 c 1
 266.03515625 0 l 1
 234.03515625 0 l 2
 114.321289062 0 15 85.408203125 15 212.5 c 0
 15 339.591796875 84.1220703125 435.721679688 243.641601562 435.721679688 c 2
 452.3046875 435.721679688 l 1
270.856445312 661.362304688 m 0
 321.282226562 661.362304688 348.061523438 632.579101562 361.267578125 602.352539062 c 0
 403.350585938 506.03125 403.350585938 506.03125 403.350585938 506.03125 c 1
 307.040039062 506.03125 l 1
 270.856445312 586.922851562 l 1
 235.059570312 506.03125 l 1
 138.931640625 506.03125 l 1
 138.931640625 506.03125 138.931640625 506.03125 180.810546875 602.352539062 c 0
 193.961914062 632.602539062 220.431640625 661.362304688 270.856445312 661.362304688 c 0
479.594726562 699.09375 m 1
 479.594726562 699.09375 448.754882812 667.100585938 415.22265625 667.100585938 c 0
 333.118164062 667.100585938 337.176757812 699.084960938 264.2421875 699.084960938 c 0
 229.330078125 699.084960938 195.194335938 667.09375 195.194335938 667.09375 c 1
 195.338867188 762.90625 l 1
 195.338867188 762.90625 229.916015625 794.90625 266.126953125 794.90625 c 0
 343.88671875 794.90625 343.500976562 762.90625 417.44921875 762.90625 c 0
 450.498046875 762.90625 479.594726562 794.90625 479.594726562 794.90625 c 1
 479.594726562 699.09375 l 1
EndSplineSet
EndChar

StartChar: uni1EAC
Encoding: 7852 7852 169
Width: 583
Flags: HW
LayerCount: 2
Fore
SplineSet
290.6171875 579.083984375 m 0
 370.162109375 579.083984375 394.296875 498.544921875 394.296875 498.544921875 c 1
 553.181640625 0 l 1
 416.77734375 0 l 1
 381.947265625 117.40625 l 1
 253.767578125 117.40625 l 1
 280.9453125 213.859375 l 1
 353.33203125 213.859375 l 1
 290.6171875 425.259765625 l 1
 166.39453125 0 l 1
 30 0 l 1
 186.939453125 498.544921875 l 1
 186.939453125 498.544921875 211.072265625 579.083984375 290.6171875 579.083984375 c 0
240.650390625 -95.984375 m 0
 240.650390625 -66.73046875 264.364257812 -43.0166015625 293.618164062 -43.0166015625 c 0
 322.87109375 -43.0166015625 346.5859375 -66.73046875 346.5859375 -95.984375 c 0
 346.5859375 -125.237304688 322.87109375 -148.952148438 293.618164062 -148.952148438 c 0
 264.364257812 -148.952148438 240.650390625 -125.237304688 240.650390625 -95.984375 c 0
290.251953125 782.331054688 m 0
 340.676757812 782.331054688 367.45703125 753.547851562 380.663085938 723.321289062 c 2
 422.74609375 627 l 1
 326.435546875 627 l 1
 290.251953125 707.891601562 l 1
 254.455078125 627 l 1
 158.327148438 627 l 1
 158.327148438 627 158.327148438 627 200.205078125 723.321289062 c 0
 213.357421875 753.5703125 239.827148438 782.331054688 290.251953125 782.331054688 c 0
EndSplineSet
EndChar

StartChar: uni1EAD
Encoding: 7853 7853 170
Width: 497
Flags: HW
LayerCount: 2
Fore
SplineSet
452.3046875 435.721679688 m 1
 452.3046875 0 l 1
 322.318359375 0 l 1
 322.318359375 321.5 l 1
 267.020507812 321.5 l 2
 168.73046875 321.5 135.53515625 278.6796875 135.53515625 220.732421875 c 0
 135.53515625 144.0234375 197.994140625 117.5 266.03515625 117.5 c 1
 266.03515625 0 l 1
 234.03515625 0 l 2
 114.321289062 0 15 85.408203125 15 212.5 c 0
 15 339.591796875 84.1220703125 435.721679688 243.641601562 435.721679688 c 2
 452.3046875 435.721679688 l 1
270.856445312 661.362304688 m 0
 321.282226562 661.362304688 348.061523438 632.579101562 361.267578125 602.352539062 c 0
 403.350585938 506.03125 403.350585938 506.03125 403.350585938 506.03125 c 1
 307.040039062 506.03125 l 1
 270.856445312 586.922851562 l 1
 235.059570312 506.03125 l 1
 138.931640625 506.03125 l 1
 138.931640625 506.03125 138.931640625 506.03125 180.810546875 602.352539062 c 0
 193.961914062 632.602539062 220.431640625 661.362304688 270.856445312 661.362304688 c 0
220.864257812 -94.2919921875 m 0
 220.864257812 -65.0380859375 244.579101562 -41.32421875 273.83203125 -41.32421875 c 0
 303.0859375 -41.32421875 326.80078125 -65.0380859375 326.80078125 -94.2919921875 c 0
 326.80078125 -123.544921875 303.0859375 -147.259765625 273.83203125 -147.259765625 c 0
 244.579101562 -147.259765625 220.864257812 -123.544921875 220.864257812 -94.2919921875 c 0
EndSplineSet
EndChar

StartChar: uni1EAE
Encoding: 7854 7854 171
Width: 583
Flags: HW
LayerCount: 2
Fore
SplineSet
290.6171875 579.083984375 m 0
 370.161132812 579.083984375 394.296875 498.544921875 394.296875 498.544921875 c 1
 553.181640625 0 l 1
 416.77734375 0 l 1
 381.947265625 117.40625 l 1
 253.767578125 117.40625 l 1
 280.9453125 213.859375 l 1
 353.33203125 213.859375 l 1
 290.6171875 425.259765625 l 1
 166.39453125 0 l 1
 30 0 l 1
 186.939453125 498.544921875 l 1
 186.939453125 498.544921875 211.072265625 579.083984375 290.6171875 579.083984375 c 0
433.100585938 767.741210938 m 1
 433.100585938 739.987304688 l 2
 433.100585938 653.908203125 372.756835938 618.609375 289.384765625 618.609375 c 0
 206.01171875 618.609375 147.266601562 665.625976562 147.266601562 734.802734375 c 2
 147.266601562 767.622070312 l 1
 235.287109375 767.741210938 l 1
 235.540039062 756.372070312 l 2
 235.540039062 717.716796875 258.642578125 697.974609375 290.913085938 697.974609375 c 0
 324.455078125 697.974609375 345.080078125 717.111328125 345.080078125 754.895507812 c 2
 345.080078125 767.741210938 l 1
 433.100585938 767.741210938 l 1
235.287109375 795.741210938 m 1
 325.862304688 959.706054688 l 1
 454.909179688 959.588867188 l 1
 362.56640625 795.741210938 l 1
 235.287109375 795.741210938 l 1
EndSplineSet
EndChar

StartChar: uni1EAF
Encoding: 7855 7855 172
Width: 497
Flags: HW
LayerCount: 2
Fore
SplineSet
452.3046875 435.721679688 m 1
 452.3046875 0 l 1
 322.318359375 0 l 1
 322.318359375 321.5 l 1
 267.020507812 321.5 l 2
 168.73046875 321.5 135.53515625 278.6796875 135.53515625 220.732421875 c 0
 135.53515625 144.0234375 197.994140625 117.5 266.03515625 117.5 c 1
 266.03515625 0 l 1
 234.03515625 0 l 2
 114.321289062 0 15 85.408203125 15 212.5 c 0
 15 339.591796875 84.1220703125 435.721679688 243.641601562 435.721679688 c 2
 452.3046875 435.721679688 l 1
414.407226562 647.583984375 m 1
 414.407226562 619.829101562 l 2
 414.407226562 533.750976562 354.063476562 498.452148438 270.690429688 498.452148438 c 0
 187.318359375 498.452148438 128.573242188 545.467773438 128.573242188 614.645507812 c 2
 128.573242188 647.46484375 l 1
 216.59375 647.583984375 l 1
 216.846679688 636.21484375 l 2
 216.846679688 597.55859375 239.94921875 577.81640625 272.219726562 577.81640625 c 0
 305.76171875 577.81640625 326.38671875 596.953125 326.38671875 634.73828125 c 2
 326.38671875 647.583984375 l 1
 414.407226562 647.583984375 l 1
216.59375 675.583984375 m 1
 307.168945312 839.547851562 l 1
 436.215820312 839.431640625 l 1
 343.872070312 675.583984375 l 1
 216.59375 675.583984375 l 1
EndSplineSet
EndChar

StartChar: uni1EB0
Encoding: 7856 7856 173
Width: 583
Flags: HW
LayerCount: 2
Fore
SplineSet
290.6171875 579.083984375 m 0
 370.161132812 579.083984375 394.296875 498.544921875 394.296875 498.544921875 c 1
 553.181640625 0 l 1
 416.77734375 0 l 1
 381.947265625 117.40625 l 1
 253.767578125 117.40625 l 1
 280.9453125 213.859375 l 1
 353.33203125 213.859375 l 1
 290.6171875 425.259765625 l 1
 166.39453125 0 l 1
 30 0 l 1
 186.939453125 498.544921875 l 1
 186.939453125 498.544921875 211.072265625 579.083984375 290.6171875 579.083984375 c 0
433.100585938 767.741210938 m 1
 433.100585938 739.987304688 l 2
 433.100585938 653.908203125 372.756835938 618.609375 289.384765625 618.609375 c 0
 206.01171875 618.609375 147.266601562 665.625976562 147.266601562 734.802734375 c 2
 147.266601562 767.622070312 l 1
 235.287109375 767.741210938 l 1
 235.540039062 756.372070312 l 2
 235.540039062 717.716796875 258.642578125 697.974609375 290.913085938 697.974609375 c 0
 324.455078125 697.974609375 345.080078125 717.111328125 345.080078125 754.895507812 c 2
 345.080078125 767.741210938 l 1
 433.100585938 767.741210938 l 1
362.56640625 795.741210938 m 1
 235.287109375 795.741210938 l 1
 142.943359375 959.588867188 l 1
 271.990234375 959.706054688 l 1
 362.56640625 795.741210938 l 1
EndSplineSet
EndChar

StartChar: uni1EB1
Encoding: 7857 7857 174
Width: 497
Flags: HW
LayerCount: 2
Fore
SplineSet
452.3046875 435.721679688 m 1
 452.3046875 0 l 1
 322.318359375 0 l 1
 322.318359375 321.5 l 1
 267.020507812 321.5 l 2
 168.73046875 321.5 135.53515625 278.6796875 135.53515625 220.732421875 c 0
 135.53515625 144.0234375 197.994140625 117.5 266.03515625 117.5 c 1
 266.03515625 0 l 1
 234.03515625 0 l 2
 114.321289062 0 15 85.408203125 15 212.5 c 0
 15 339.591796875 84.1220703125 435.721679688 243.641601562 435.721679688 c 2
 452.3046875 435.721679688 l 1
414.407226562 647.583984375 m 1
 414.407226562 619.829101562 l 2
 414.407226562 533.750976562 354.063476562 498.452148438 270.690429688 498.452148438 c 0
 187.318359375 498.452148438 128.573242188 545.467773438 128.573242188 614.645507812 c 2
 128.573242188 647.46484375 l 1
 216.59375 647.583984375 l 1
 216.846679688 636.21484375 l 2
 216.846679688 597.55859375 239.94921875 577.81640625 272.219726562 577.81640625 c 0
 305.76171875 577.81640625 326.38671875 596.953125 326.38671875 634.73828125 c 2
 326.38671875 647.583984375 l 1
 414.407226562 647.583984375 l 1
343.872070312 675.583984375 m 1
 216.59375 675.583984375 l 1
 124.25 839.431640625 l 1
 253.296875 839.547851562 l 1
 343.872070312 675.583984375 l 1
EndSplineSet
EndChar

StartChar: uni1EB2
Encoding: 7858 7858 175
Width: 583
Flags: HW
LayerCount: 2
Fore
SplineSet
290.6171875 579.083984375 m 0
 370.161132812 579.083984375 394.296875 498.544921875 394.296875 498.544921875 c 1
 553.181640625 0 l 1
 416.77734375 0 l 1
 381.947265625 117.40625 l 1
 253.767578125 117.40625 l 1
 280.9453125 213.859375 l 1
 353.33203125 213.859375 l 1
 290.6171875 425.259765625 l 1
 166.39453125 0 l 1
 30 0 l 1
 186.939453125 498.544921875 l 1
 186.939453125 498.544921875 211.072265625 579.083984375 290.6171875 579.083984375 c 0
433.100585938 767.741210938 m 1
 433.100585938 739.987304688 l 2
 433.100585938 653.908203125 372.756835938 618.609375 289.384765625 618.609375 c 0
 206.01171875 618.609375 147.266601562 665.625976562 147.266601562 734.802734375 c 2
 147.266601562 767.622070312 l 1
 235.287109375 767.741210938 l 1
 235.540039062 756.372070312 l 2
 235.540039062 717.716796875 258.642578125 697.974609375 290.913085938 697.974609375 c 0
 324.455078125 697.974609375 345.080078125 717.111328125 345.080078125 754.895507812 c 2
 345.080078125 767.741210938 l 1
 433.100585938 767.741210938 l 1
295.131835938 1016.74121094 m 0
 359.126953125 1016.74121094 393.817382812 971.54296875 393.817382812 918.829101562 c 0
 393.817382812 892.049804688 381.850585938 870.573242188 380.080078125 867.66015625 c 2
 334.56640625 795.741210938 l 1
 255.609375 795.741210938 l 1
 306.501953125 874.422851562 l 2
 313.627929688 885.439453125 328.58203125 906.731445312 328.58203125 920.075195312 c 0
 328.58203125 941.678710938 313.458984375 954.750976562 293.798828125 954.750976562 c 0
 273.083984375 954.750976562 257.879882812 940.546875 257.879882812 919.654296875 c 0
 257.879882812 893.598632812 280.3515625 886.484375 280.3515625 886.484375 c 1
 250.206054688 840.385742188 l 1
 250.206054688 840.385742188 197.903320312 862.357421875 197.903320312 921.3203125 c 0
 197.903320312 980.4765625 244.71875 1016.74121094 295.131835938 1016.74121094 c 0
EndSplineSet
EndChar

StartChar: uni1EB3
Encoding: 7859 7859 176
Width: 497
Flags: HW
LayerCount: 2
Fore
SplineSet
452.3046875 435.721679688 m 1
 452.3046875 0 l 1
 322.318359375 0 l 1
 322.318359375 321.5 l 1
 267.020507812 321.5 l 2
 168.73046875 321.5 135.53515625 278.6796875 135.53515625 220.732421875 c 0
 135.53515625 144.0234375 197.994140625 117.5 266.03515625 117.5 c 1
 266.03515625 0 l 1
 234.03515625 0 l 2
 114.321289062 0 15 85.408203125 15 212.5 c 0
 15 339.591796875 84.1220703125 435.721679688 243.641601562 435.721679688 c 2
 452.3046875 435.721679688 l 1
414.407226562 647.583984375 m 1
 414.407226562 619.829101562 l 2
 414.407226562 533.750976562 354.063476562 498.452148438 270.690429688 498.452148438 c 0
 187.318359375 498.452148438 128.573242188 545.467773438 128.573242188 614.645507812 c 2
 128.573242188 647.46484375 l 1
 216.59375 647.583984375 l 1
 216.846679688 636.21484375 l 2
 216.846679688 597.55859375 239.94921875 577.81640625 272.219726562 577.81640625 c 0
 305.76171875 577.81640625 326.38671875 596.953125 326.38671875 634.73828125 c 2
 326.38671875 647.583984375 l 1
 414.407226562 647.583984375 l 1
278.438476562 896.583984375 m 0
 342.43359375 896.583984375 377.124023438 851.385742188 377.124023438 798.670898438 c 0
 377.124023438 771.891601562 365.15625 750.416015625 363.38671875 747.501953125 c 2
 317.872070312 675.583984375 l 1
 238.916015625 675.583984375 l 1
 289.80859375 754.264648438 l 2
 296.934570312 765.282226562 311.888671875 786.573242188 311.888671875 799.91796875 c 0
 311.888671875 821.521484375 296.765625 834.59375 277.10546875 834.59375 c 0
 256.390625 834.59375 241.186523438 820.389648438 241.186523438 799.497070312 c 0
 241.186523438 773.440429688 263.657226562 766.326171875 263.657226562 766.326171875 c 1
 233.512695312 720.227539062 l 1
 233.512695312 720.227539062 181.208984375 742.200195312 181.208984375 801.163085938 c 0
 181.208984375 860.318359375 228.025390625 896.583984375 278.438476562 896.583984375 c 0
EndSplineSet
EndChar

StartChar: uni1EB4
Encoding: 7860 7860 177
Width: 583
Flags: HW
LayerCount: 2
Fore
SplineSet
290.6171875 579.083984375 m 0
 370.161132812 579.083984375 394.296875 498.544921875 394.296875 498.544921875 c 1
 553.181640625 0 l 1
 416.77734375 0 l 1
 381.947265625 117.40625 l 1
 253.767578125 117.40625 l 1
 280.9453125 213.859375 l 1
 353.33203125 213.859375 l 1
 290.6171875 425.259765625 l 1
 166.39453125 0 l 1
 30 0 l 1
 186.939453125 498.544921875 l 1
 186.939453125 498.544921875 211.072265625 579.083984375 290.6171875 579.083984375 c 0
433.100585938 767.741210938 m 1
 433.100585938 739.987304688 l 2
 433.100585938 653.908203125 372.756835938 618.609375 289.384765625 618.609375 c 0
 206.01171875 618.609375 147.266601562 665.625976562 147.266601562 734.802734375 c 2
 147.266601562 767.622070312 l 1
 235.287109375 767.741210938 l 1
 235.540039062 756.372070312 l 2
 235.540039062 717.716796875 258.642578125 697.974609375 290.913085938 697.974609375 c 0
 324.455078125 697.974609375 345.080078125 717.111328125 345.080078125 754.895507812 c 2
 345.080078125 767.741210938 l 1
 433.100585938 767.741210938 l 1
434.607421875 836.385742188 m 1
 434.607421875 836.385742188 403.766601562 804.392578125 370.234375 804.392578125 c 0
 288.129882812 804.392578125 292.189453125 836.376953125 219.25390625 836.376953125 c 0
 184.342773438 836.376953125 150.206054688 804.385742188 150.206054688 804.385742188 c 1
 150.350585938 900.198242188 l 1
 150.350585938 900.198242188 184.928710938 932.198242188 221.139648438 932.198242188 c 0
 298.899414062 932.198242188 298.513671875 900.198242188 372.4609375 900.198242188 c 0
 405.509765625 900.198242188 434.607421875 932.198242188 434.607421875 932.198242188 c 1
 434.607421875 836.385742188 l 1
EndSplineSet
EndChar

StartChar: uni1EB5
Encoding: 7861 7861 178
Width: 497
Flags: HW
LayerCount: 2
Fore
SplineSet
452.3046875 435.721679688 m 1
 452.3046875 0 l 1
 322.318359375 0 l 1
 322.318359375 321.5 l 1
 267.020507812 321.5 l 2
 168.73046875 321.5 135.53515625 278.6796875 135.53515625 220.732421875 c 0
 135.53515625 144.0234375 197.994140625 117.5 266.03515625 117.5 c 1
 266.03515625 0 l 1
 234.03515625 0 l 2
 114.321289062 0 15 85.408203125 15 212.5 c 0
 15 339.591796875 84.1220703125 435.721679688 243.641601562 435.721679688 c 2
 452.3046875 435.721679688 l 1
414.407226562 647.583984375 m 1
 414.407226562 619.829101562 l 2
 414.407226562 533.750976562 354.063476562 498.452148438 270.690429688 498.452148438 c 0
 187.318359375 498.452148438 128.573242188 545.467773438 128.573242188 614.645507812 c 2
 128.573242188 647.46484375 l 1
 216.59375 647.583984375 l 1
 216.846679688 636.21484375 l 2
 216.846679688 597.55859375 239.94921875 577.81640625 272.219726562 577.81640625 c 0
 305.76171875 577.81640625 326.38671875 596.953125 326.38671875 634.73828125 c 2
 326.38671875 647.583984375 l 1
 414.407226562 647.583984375 l 1
417.9140625 716.227539062 m 1
 417.9140625 716.228515625 l 1
 417.9140625 716.228515625 387.073242188 684.235351562 353.541015625 684.235351562 c 0
 271.436523438 684.235351562 275.49609375 716.21875 202.560546875 716.21875 c 0
 167.6484375 716.21875 133.512695312 684.227539062 133.512695312 684.227539062 c 1
 133.657226562 780.041015625 l 1
 133.657226562 780.041015625 168.234375 812.041015625 204.446289062 812.041015625 c 0
 282.205078125 812.041015625 281.8203125 780.041015625 355.767578125 780.041015625 c 0
 388.81640625 780.041015625 417.9140625 812.041015625 417.9140625 812.041015625 c 1
 417.9140625 716.227539062 l 1
EndSplineSet
EndChar

StartChar: uni1EB6
Encoding: 7862 7862 179
Width: 583
Flags: HW
LayerCount: 2
Fore
SplineSet
290.6171875 579.083984375 m 0
 370.162109375 579.083984375 394.296875 498.544921875 394.296875 498.544921875 c 1
 553.181640625 0 l 1
 416.77734375 0 l 1
 381.947265625 117.40625 l 1
 253.767578125 117.40625 l 1
 280.9453125 213.859375 l 1
 353.33203125 213.859375 l 1
 290.6171875 425.259765625 l 1
 166.39453125 0 l 1
 30 0 l 1
 186.939453125 498.544921875 l 1
 186.939453125 498.544921875 211.072265625 579.083984375 290.6171875 579.083984375 c 0
240.650390625 -95.984375 m 0
 240.650390625 -66.73046875 264.364257812 -43.0166015625 293.618164062 -43.0166015625 c 0
 322.87109375 -43.0166015625 346.5859375 -66.73046875 346.5859375 -95.984375 c 0
 346.5859375 -125.237304688 322.87109375 -148.952148438 293.618164062 -148.952148438 c 0
 264.364257812 -148.952148438 240.650390625 -125.237304688 240.650390625 -95.984375 c 0
290.251953125 782.331054688 m 0
 340.676757812 782.331054688 367.45703125 753.547851562 380.663085938 723.321289062 c 2
 422.74609375 627 l 1
 326.435546875 627 l 1
 290.251953125 707.891601562 l 1
 254.455078125 627 l 1
 158.327148438 627 l 1
 158.327148438 627 158.327148438 627 200.205078125 723.321289062 c 0
 213.357421875 753.5703125 239.827148438 782.331054688 290.251953125 782.331054688 c 0
EndSplineSet
EndChar

StartChar: uni1EB7
Encoding: 7863 7863 180
Width: 497
Flags: HW
LayerCount: 2
Fore
SplineSet
452.3046875 435.721679688 m 1
 452.3046875 0 l 1
 322.318359375 0 l 1
 322.318359375 321.5 l 1
 267.020507812 321.5 l 2
 168.73046875 321.5 135.53515625 278.6796875 135.53515625 220.732421875 c 0
 135.53515625 144.0234375 197.994140625 117.5 266.03515625 117.5 c 1
 266.03515625 0 l 1
 234.03515625 0 l 2
 114.321289062 0 15 85.408203125 15 212.5 c 0
 15 339.591796875 84.1220703125 435.721679688 243.641601562 435.721679688 c 2
 452.3046875 435.721679688 l 1
414.407226562 647.583984375 m 1
 414.407226562 619.829101562 l 2
 414.407226562 533.750976562 354.063476562 498.452148438 270.690429688 498.452148438 c 0
 187.318359375 498.452148438 128.573242188 545.467773438 128.573242188 614.645507812 c 2
 128.573242188 647.46484375 l 1
 216.59375 647.583984375 l 1
 216.846679688 636.21484375 l 2
 216.846679688 597.55859375 239.94921875 577.81640625 272.219726562 577.81640625 c 0
 305.76171875 577.81640625 326.38671875 596.953125 326.38671875 634.73828125 c 2
 326.38671875 647.583984375 l 1
 414.407226562 647.583984375 l 1
202.916992188 -95.890625 m 0
 202.916992188 -66.63671875 226.631835938 -42.9228515625 255.885742188 -42.9228515625 c 0
 285.138671875 -42.9228515625 308.853515625 -66.63671875 308.853515625 -95.890625 c 0
 308.853515625 -125.143554688 285.138671875 -148.858398438 255.885742188 -148.858398438 c 0
 226.631835938 -148.858398438 202.916992188 -125.143554688 202.916992188 -95.890625 c 0
EndSplineSet
EndChar

StartChar: uni1EB8
Encoding: 7864 7864 181
Width: 390
Flags: HW
LayerCount: 2
Fore
SplineSet
145.009765625 -95.984375 m 0
 145.009765625 -66.73046875 168.723632812 -43.0166015625 197.977539062 -43.0166015625 c 0
 227.23046875 -43.0166015625 250.9453125 -66.73046875 250.9453125 -95.984375 c 0
 250.9453125 -125.237304688 227.23046875 -148.952148438 197.977539062 -148.952148438 c 0
 168.723632812 -148.952148438 145.009765625 -125.237304688 145.009765625 -95.984375 c 0
29 568.657226562 m 1
 360.126953125 568.657226562 l 1
 360.125 435.721679688 l 1
 161.935546875 435.721679688 l 1
 161.935546875 347.467773438 l 1
 315.568359375 347.467773438 l 1
 315.568359375 214.530273438 l 1
 161.935546875 214.530273438 l 1
 161.935546875 133.157226562 l 1
 360.125 133.157226562 l 1
 360.126953125 0.2216796875 l 1
 29 0.2216796875 l 1
 29 568.657226562 l 1
EndSplineSet
EndChar

StartChar: uni1EB9
Encoding: 7865 7865 182
Width: 460
Flags: HW
LayerCount: 2
Fore
SplineSet
180.013671875 -95.984375 m 0
 180.013671875 -66.73046875 203.727539062 -43.0166015625 232.981445312 -43.0166015625 c 0
 262.234375 -43.0166015625 285.94921875 -66.73046875 285.94921875 -95.984375 c 0
 285.94921875 -125.237304688 262.234375 -148.952148438 232.981445312 -148.952148438 c 0
 203.727539062 -148.952148438 180.013671875 -125.237304688 180.013671875 -95.984375 c 0
444.627929688 169.142578125 m 1
 386.793945312 169.142578125 200.341796875 169 200.341796875 169 c 1
 200.341796875 245.5 l 1
 323.841796875 245.5 l 1
 326.53515625 280.965820312 296.86328125 322.5 231.841796875 322.5 c 0
 191.033203125 322.5 129.841796875 298.615234375 129.841796875 213 c 0
 129.841796875 130.951171875 202.005859375 105 262.841796875 105 c 0
 326.442382812 105 361.841796875 111.616210938 361.841796875 111.616210938 c 1
 361.841796875 0 l 1
 361.841796875 0 317.125976562 -6.671875 264.866210938 -6.671875 c 0
 80.5634765625 -6.671875 14 106.850585938 14 213.983398438 c 0
 14 344.3984375 95.697265625 444.950195312 229.793945312 444.950195312 c 0
 348.600585938 444.950195312 461.627929688 384.07421875 444.627929688 169.142578125 c 1
EndSplineSet
EndChar

StartChar: uni1EBA
Encoding: 7866 7866 183
Width: 390
Flags: HW
LayerCount: 2
Fore
SplineSet
201.220703125 848 m 0
 265.21484375 848 299.905273438 802.801757812 299.905273438 750.086914062 c 0
 299.905273438 723.307617188 287.938476562 701.83203125 286.16796875 698.91796875 c 2
 240.654296875 627 l 1
 161.697265625 627 l 1
 212.58984375 705.680664062 l 2
 219.715820312 716.698242188 234.670898438 737.989257812 234.670898438 751.333984375 c 0
 234.670898438 772.9375 219.546875 786.009765625 199.88671875 786.009765625 c 0
 179.171875 786.009765625 163.967773438 771.805664062 163.967773438 750.913085938 c 0
 163.967773438 724.856445312 186.439453125 717.7421875 186.439453125 717.7421875 c 1
 156.294921875 671.643554688 l 1
 156.294921875 671.643554688 103.991210938 693.616210938 103.991210938 752.579101562 c 0
 103.991210938 811.734375 150.807617188 848 201.220703125 848 c 0
29 568.657226562 m 1
 360.126953125 568.657226562 l 1
 360.125 435.721679688 l 1
 161.935546875 435.721679688 l 1
 161.935546875 347.467773438 l 1
 315.568359375 347.467773438 l 1
 315.568359375 214.530273438 l 1
 161.935546875 214.530273438 l 1
 161.935546875 133.157226562 l 1
 360.125 133.157226562 l 1
 360.126953125 0.2216796875 l 1
 29 0.2216796875 l 1
 29 568.657226562 l 1
EndSplineSet
EndChar

StartChar: uni1EBB
Encoding: 7867 7867 184
Width: 460
Flags: HW
LayerCount: 2
Fore
SplineSet
239.438476562 727.2578125 m 0
 303.432617188 727.2578125 338.123046875 682.059570312 338.123046875 629.344726562 c 0
 338.123046875 602.565429688 326.15625 581.088867188 324.385742188 578.17578125 c 2
 278.872070312 506.2578125 l 1
 199.915039062 506.2578125 l 1
 250.807617188 584.938476562 l 2
 257.93359375 595.956054688 272.888671875 617.247070312 272.888671875 630.590820312 c 0
 272.888671875 652.194335938 257.764648438 665.266601562 238.104492188 665.266601562 c 0
 217.389648438 665.266601562 202.185546875 651.0625 202.185546875 630.169921875 c 0
 202.185546875 604.114257812 224.657226562 597 224.657226562 597 c 1
 194.512695312 550.901367188 l 1
 194.512695312 550.901367188 142.208984375 572.873046875 142.208984375 631.836914062 c 0
 142.208984375 690.9921875 189.025390625 727.2578125 239.438476562 727.2578125 c 0
444.627929688 169.142578125 m 1
 386.793945312 169.142578125 200.341796875 169 200.341796875 169 c 1
 200.341796875 245.5 l 1
 323.841796875 245.5 l 1
 326.53515625 280.965820312 296.86328125 322.5 231.841796875 322.5 c 0
 191.033203125 322.5 129.841796875 298.615234375 129.841796875 213 c 0
 129.841796875 130.951171875 202.005859375 105 262.841796875 105 c 0
 326.442382812 105 361.841796875 111.616210938 361.841796875 111.616210938 c 1
 361.841796875 0 l 1
 361.841796875 0 317.125976562 -6.671875 264.866210938 -6.671875 c 0
 80.5634765625 -6.671875 14 106.850585938 14 213.983398438 c 0
 14 344.3984375 95.697265625 444.950195312 229.793945312 444.950195312 c 0
 348.600585938 444.950195312 461.627929688 384.07421875 444.627929688 169.142578125 c 1
EndSplineSet
EndChar

StartChar: uni1EBC
Encoding: 7868 7868 185
Width: 391
Flags: HW
LayerCount: 2
Fore
SplineSet
342.500976562 651 m 1
 342.500976562 651.000976562 l 1
 342.500976562 651.000976562 311.66015625 619.0078125 278.127929688 619.0078125 c 0
 196.0234375 619.0078125 200.083007812 650.991210938 127.147460938 650.991210938 c 0
 92.2353515625 650.991210938 58.099609375 619 58.099609375 619 c 1
 58.244140625 714.813476562 l 1
 58.244140625 714.813476562 92.822265625 746.813476562 129.033203125 746.813476562 c 0
 206.791992188 746.813476562 206.407226562 714.813476562 280.354492188 714.813476562 c 0
 313.403320312 714.813476562 342.500976562 746.813476562 342.500976562 746.813476562 c 1
 342.500976562 651 l 1
29 568.657226562 m 1
 360.126953125 568.657226562 l 1
 360.125 435.721679688 l 1
 161.935546875 435.721679688 l 1
 161.935546875 347.467773438 l 1
 315.568359375 347.467773438 l 1
 315.568359375 214.530273438 l 1
 161.935546875 214.530273438 l 1
 161.935546875 133.157226562 l 1
 360.125 133.157226562 l 1
 360.126953125 0.2216796875 l 1
 29 0.2216796875 l 1
 29 568.657226562 l 1
EndSplineSet
EndChar

StartChar: uni1EBD
Encoding: 7869 7869 186
Width: 460
Flags: HW
LayerCount: 2
Fore
SplineSet
379.265625 563.186523438 m 1
 379.265625 563.1875 l 1
 379.265625 563.1875 348.424804688 531.194335938 314.892578125 531.194335938 c 0
 232.788085938 531.194335938 236.846679688 563.177734375 163.912109375 563.177734375 c 0
 129 563.177734375 94.8642578125 531.186523438 94.8642578125 531.186523438 c 1
 95.0087890625 627 l 1
 95.0087890625 627 129.5859375 659 165.796875 659 c 0
 243.556640625 659 243.170898438 627 317.119140625 627 c 0
 350.16796875 627 379.265625 659 379.265625 659 c 1
 379.265625 563.186523438 l 1
444.627929688 169.142578125 m 1
 386.793945312 169.142578125 200.341796875 169 200.341796875 169 c 1
 200.341796875 245.5 l 1
 323.841796875 245.5 l 1
 326.53515625 280.965820312 296.86328125 322.5 231.841796875 322.5 c 0
 191.033203125 322.5 129.841796875 298.615234375 129.841796875 213 c 0
 129.841796875 130.951171875 202.005859375 105 262.841796875 105 c 0
 326.442382812 105 361.841796875 111.616210938 361.841796875 111.616210938 c 1
 361.841796875 0 l 1
 361.841796875 0 317.125976562 -6.671875 264.866210938 -6.671875 c 0
 80.5634765625 -6.671875 14 106.850585938 14 213.983398438 c 0
 14 344.3984375 95.697265625 444.950195312 229.793945312 444.950195312 c 0
 348.600585938 444.950195312 461.627929688 384.07421875 444.627929688 169.142578125 c 1
EndSplineSet
EndChar

StartChar: uni1EBE
Encoding: 7870 7870 187
Width: 392
Flags: HW
LayerCount: 2
Fore
SplineSet
332.377929688 722 m 1
 422.953125 885.963867188 l 1
 552 885.84765625 l 1
 459.657226562 722 l 1
 332.377929688 722 l 1
195.368164062 782.331054688 m 0
 245.79296875 782.331054688 272.573242188 753.547851562 285.779296875 723.321289062 c 2
 327.862304688 627 l 1
 231.551757812 627 l 1
 195.368164062 707.891601562 l 1
 159.571289062 627 l 1
 63.443359375 627 l 1
 105.321289062 723.321289062 l 2
 118.473632812 753.5703125 144.943359375 782.331054688 195.368164062 782.331054688 c 0
29.2314453125 568.657226562 m 1
 360.358398438 568.657226562 l 1
 360.356445312 435.721679688 l 1
 162.166992188 435.721679688 l 1
 162.166992188 347.467773438 l 1
 315.799804688 347.467773438 l 1
 315.799804688 214.530273438 l 1
 162.166992188 214.530273438 l 1
 162.166992188 133.157226562 l 1
 360.356445312 133.157226562 l 1
 360.358398438 0.2216796875 l 1
 29.2314453125 0.2216796875 l 1
 29.2314453125 568.657226562 l 1
EndSplineSet
EndChar

StartChar: uni1EBF
Encoding: 7871 7871 188
Width: 482
Flags: HW
LayerCount: 2
Fore
SplineSet
229.627929688 661.362304688 m 0
 280.053710938 661.362304688 306.833007812 632.579101562 320.0390625 602.352539062 c 2
 362.122070312 506.03125 l 1
 265.811523438 506.03125 l 1
 229.627929688 586.922851562 l 1
 193.831054688 506.03125 l 1
 97.703125 506.03125 l 1
 139.58203125 602.352539062 l 2
 152.733398438 632.602539062 179.203125 661.362304688 229.627929688 661.362304688 c 0
360.716796875 598.658203125 m 1
 451.291992188 762.622070312 l 1
 580.338867188 762.505859375 l 1
 487.99609375 598.658203125 l 1
 360.716796875 598.658203125 l 1
444.627929688 169.142578125 m 1
 386.793945312 169.142578125 200.341796875 169 200.341796875 169 c 1
 200.341796875 245.5 l 1
 323.841796875 245.5 l 1
 326.53515625 280.965820312 296.86328125 322.5 231.841796875 322.5 c 0
 191.033203125 322.5 129.841796875 298.615234375 129.841796875 213 c 0
 129.841796875 130.951171875 202.005859375 105 262.841796875 105 c 0
 326.442382812 105 361.841796875 111.616210938 361.841796875 111.616210938 c 1
 361.841796875 0 l 1
 361.841796875 0 317.125976562 -6.671875 264.866210938 -6.671875 c 0
 80.5634765625 -6.671875 14 106.850585938 14 213.983398438 c 0
 14 344.3984375 95.697265625 444.950195312 229.793945312 444.950195312 c 0
 348.600585938 444.950195312 461.627929688 384.07421875 444.627929688 169.142578125 c 1
EndSplineSet
EndChar

StartChar: uni1EC1
Encoding: 7873 7873 189
Width: 471
Flags: HW
LayerCount: 2
Fore
SplineSet
230.341796875 661.362304688 m 0
 280.767578125 661.362304688 307.567382812 632.587890625 320.752929688 602.352539062 c 0
 367.189453125 495.874023438 362.8359375 506.03125 362.8359375 506.03125 c 1
 266.525390625 506.03125 l 1
 230.341796875 586.922851562 l 1
 194.544921875 506.03125 l 1
 98.4169921875 506.03125 l 1
 140.295898438 602.352539062 l 2
 153.447265625 632.602539062 179.916992188 661.362304688 230.341796875 661.362304688 c 0
524.709960938 598.658203125 m 1
 397.430664062 598.658203125 l 1
 305.086914062 762.505859375 l 1
 434.134765625 762.622070312 l 1
 524.709960938 598.658203125 l 1
444.627929688 169.142578125 m 1
 386.79296875 169.142578125 200.340820312 169 200.340820312 169 c 1
 200.340820312 245.5 l 1
 323.840820312 245.5 l 1
 326.53515625 280.965820312 296.86328125 322.5 231.840820312 322.5 c 0
 191.033203125 322.5 129.840820312 298.615234375 129.840820312 213 c 0
 129.840820312 130.951171875 202.005859375 105 262.840820312 105 c 0
 326.442382812 105 361.840820312 111.616210938 361.840820312 111.616210938 c 1
 361.840820312 0 l 1
 361.840820312 0 317.125976562 -6.671875 264.866210938 -6.671875 c 0
 80.5634765625 -6.671875 14 106.850585938 14 213.983398438 c 0
 14 344.3984375 95.697265625 444.950195312 229.793945312 444.950195312 c 0
 348.600585938 444.950195312 461.627929688 384.07421875 444.627929688 169.142578125 c 1
EndSplineSet
EndChar

StartChar: uni1EC0
Encoding: 7872 7872 190
Width: 487
Flags: HW
LayerCount: 2
Fore
SplineSet
194.8359375 782.331054688 m 0
 245.260742188 782.331054688 272.061523438 753.556640625 285.247070312 723.321289062 c 0
 331.68359375 616.841796875 327.330078125 627 327.330078125 627 c 1
 231.01953125 627 l 1
 194.8359375 707.891601562 l 1
 159.0390625 627 l 1
 62.9111328125 627 l 1
 104.7890625 723.321289062 l 2
 117.94140625 753.5703125 144.411132812 782.331054688 194.8359375 782.331054688 c 0
459.125 722 m 1
 331.845703125 722 l 1
 239.501953125 885.84765625 l 1
 368.549804688 885.963867188 l 1
 459.125 722 l 1
29 568.657226562 m 1
 360.126953125 568.657226562 l 1
 360.125 435.721679688 l 1
 161.935546875 435.721679688 l 1
 161.935546875 347.467773438 l 1
 315.568359375 347.467773438 l 1
 315.568359375 214.530273438 l 1
 161.935546875 214.530273438 l 1
 161.935546875 133.157226562 l 1
 360.125 133.157226562 l 1
 360.126953125 0.2216796875 l 1
 29 0.2216796875 l 1
 29 568.657226562 l 1
EndSplineSet
EndChar

StartChar: uni1EC2
Encoding: 7874 7874 191
Width: 498
Flags: HW
LayerCount: 2
Fore
SplineSet
194.392578125 782.331054688 m 0
 244.817382812 782.331054688 271.59765625 753.547851562 284.803710938 723.321289062 c 2
 326.88671875 627 l 1
 230.576171875 627 l 1
 194.392578125 707.891601562 l 1
 158.595703125 627 l 1
 62.4677734375 627 l 1
 104.345703125 723.321289062 l 2
 117.498046875 753.5703125 143.967773438 782.331054688 194.392578125 782.331054688 c 0
370.924804688 943 m 0
 434.918945312 943 469.610351562 897.801757812 469.610351562 845.086914062 c 0
 469.610351562 818.307617188 457.642578125 796.83203125 455.872070312 793.91796875 c 2
 410.358398438 722 l 1
 331.40234375 722 l 1
 382.293945312 800.680664062 l 2
 389.420898438 811.698242188 404.375 832.989257812 404.375 846.333984375 c 0
 404.375 867.9375 389.251953125 881.009765625 369.591796875 881.009765625 c 0
 348.875976562 881.009765625 333.672851562 866.805664062 333.672851562 845.913085938 c 0
 333.672851562 819.856445312 356.143554688 812.7421875 356.143554688 812.7421875 c 1
 325.999023438 766.643554688 l 1
 325.999023438 766.643554688 273.6953125 788.616210938 273.6953125 847.579101562 c 0
 273.6953125 906.734375 320.51171875 943 370.924804688 943 c 0
29 568.657226562 m 1
 360.126953125 568.657226562 l 1
 360.125 435.721679688 l 1
 161.935546875 435.721679688 l 1
 161.935546875 347.467773438 l 1
 315.568359375 347.467773438 l 1
 315.568359375 214.530273438 l 1
 161.935546875 214.530273438 l 1
 161.935546875 133.157226562 l 1
 360.125 133.157226562 l 1
 360.126953125 0.2216796875 l 1
 29 0.2216796875 l 1
 29 568.657226562 l 1
EndSplineSet
EndChar

StartChar: uni1EC3
Encoding: 7875 7875 192
Width: 475
Flags: HW
LayerCount: 2
Fore
SplineSet
231.627929688 661.362304688 m 0
 282.053710938 661.362304688 308.853515625 632.587890625 322.0390625 602.352539062 c 0
 368.475585938 495.874023438 364.122070312 506.03125 364.122070312 506.03125 c 1
 267.811523438 506.03125 l 1
 231.627929688 586.922851562 l 1
 195.831054688 506.03125 l 1
 99.703125 506.03125 l 1
 141.58203125 602.352539062 l 2
 154.733398438 632.602539062 181.203125 661.362304688 231.627929688 661.362304688 c 0
414.239257812 819.658203125 m 1
 478.233398438 819.658203125 512.924804688 774.459960938 512.924804688 721.745117188 c 0
 512.924804688 694.965820312 500.95703125 673.490234375 499.186523438 670.576171875 c 2
 453.672851562 598.658203125 l 1
 374.716796875 598.658203125 l 1
 425.608398438 677.338867188 l 2
 432.735351562 688.356445312 447.689453125 709.647460938 447.689453125 722.991210938 c 0
 447.689453125 744.594726562 432.565429688 757.66796875 412.90625 757.66796875 c 0
 392.190429688 757.66796875 376.987304688 743.463867188 376.987304688 722.5703125 c 0
 376.987304688 696.514648438 399.458007812 689.400390625 399.458007812 689.400390625 c 1
 369.313476562 643.301757812 l 1
 369.313476562 643.301757812 317.009765625 665.274414062 317.009765625 724.237304688 c 0
 317.009765625 783.392578125 363.826171875 819.658203125 414.239257812 819.658203125 c 1
444.627929688 169.142578125 m 1
 386.793945312 169.142578125 200.341796875 169 200.341796875 169 c 1
 200.341796875 245.5 l 1
 323.841796875 245.5 l 1
 326.53515625 280.965820312 296.86328125 322.5 231.841796875 322.5 c 0
 191.033203125 322.5 129.841796875 298.615234375 129.841796875 213 c 0
 129.841796875 130.951171875 202.005859375 105 262.841796875 105 c 0
 326.442382812 105 361.841796875 111.616210938 361.841796875 111.616210938 c 1
 361.841796875 0 l 1
 361.841796875 0 317.125976562 -6.671875 264.866210938 -6.671875 c 0
 80.5634765625 -6.671875 14 106.850585938 14 213.983398438 c 0
 14 344.3984375 95.697265625 444.950195312 229.793945312 444.950195312 c 0
 348.600585938 444.950195312 461.627929688 384.07421875 444.627929688 169.142578125 c 1
EndSplineSet
EndChar

StartChar: uni1EC4
Encoding: 7876 7876 193
Width: 430
Flags: HW
LayerCount: 2
Fore
SplineSet
194.13671875 782.331054688 m 0
 244.561523438 782.331054688 271.341796875 753.547851562 284.547851562 723.321289062 c 2
 326.630859375 627 l 1
 230.3203125 627 l 1
 194.13671875 707.891601562 l 1
 158.33984375 627 l 1
 62.2119140625 627 l 1
 104.08984375 723.321289062 l 2
 117.2421875 753.5703125 143.711914062 782.331054688 194.13671875 782.331054688 c 0
402.170898438 816.28125 m 1
 402.170898438 816.28125 371.330078125 784.2890625 337.797851562 784.2890625 c 0
 255.693359375 784.2890625 259.752929688 816.272460938 186.817382812 816.272460938 c 0
 151.90625 816.272460938 117.76953125 784.28125 117.76953125 784.28125 c 1
 117.9140625 880.09375 l 1
 117.9140625 880.09375 152.4921875 912.09375 188.703125 912.09375 c 0
 266.462890625 912.09375 266.077148438 880.09375 340.024414062 880.09375 c 0
 373.073242188 880.09375 402.170898438 912.09375 402.170898438 912.09375 c 1
 402.170898438 816.28125 l 1
29 568.657226562 m 1
 360.126953125 568.657226562 l 1
 360.125 435.721679688 l 1
 161.935546875 435.721679688 l 1
 161.935546875 347.467773438 l 1
 315.568359375 347.467773438 l 1
 315.568359375 214.530273438 l 1
 161.935546875 214.530273438 l 1
 161.935546875 133.157226562 l 1
 360.125 133.157226562 l 1
 360.126953125 0.2216796875 l 1
 29 0.2216796875 l 1
 29 568.657226562 l 1
EndSplineSet
EndChar

